<svg xmlns="http://www.w3.org/2000/svg" x="0px" y="0px" width="24" height="24" viewBox="0 0 172 172"
  style=" fill:#FFF;">
  <g fill="none" fill-rule="nonzero" stroke="none" stroke-width="1" stroke-linecap="butt" stroke-linejoin="miter"
    stroke-miterlimit="10" stroke-dasharray="" stroke-dashoffset="0" font-family="none" font-weight="none"
    font-size="none" text-anchor="none" style="mix-blend-mode: normal">
    <path d="M0,172v-172h172v172z" fill="none"></path>
    <g fill="#FFF">
      <path
        d="M152.73346,1.34375c-1.02461,0 -2.03242,0.40365 -2.77148,1.2099l-3.62708,3.62708c-0.13438,0.13438 -0.40365,0.40313 -0.53802,0.67188c-1.075,1.47813 -0.93958,3.6297 0.40417,4.97345l6.58228,6.8526c1.47813,1.6125 1.47813,4.16457 0,5.6427l-27.27655,27.27918c-1.6125,1.6125 -4.1672,1.6125 -5.64532,0c-1.6125,-1.6125 -1.6125,-4.1672 0,-5.64532l21.63647,-21.63385c1.6125,-1.6125 1.6125,-4.0302 0,-5.6427l-0.9422,-0.9422c-1.34375,-1.34375 -3.49218,-1.6104 -5.10468,-0.5354c-0.26875,0.13438 -0.40312,0.26665 -0.67187,0.5354l-40.71667,40.58282c-0.80625,0.80625 -1.2099,1.74635 -1.2099,2.82135c0,1.075 0.40365,2.14947 1.2099,2.82135l4.97083,4.97345l2.55365,2.55103c1.34375,1.34375 1.74688,3.62865 0.67188,5.24115c-1.47812,2.15 -4.43385,2.41875 -6.18072,0.67188l-2.01562,-2.14947l-5.50885,-5.50885c-0.94063,-0.94062 -2.28595,-1.3448 -3.6297,-1.07605c-1.34375,0.26875 -2.4177,1.21043 -2.9552,2.4198l-9.40625,22.7099c-0.67187,1.47812 -0.26928,3.35728 0.80572,4.56665c1.075,1.20938 2.82345,1.4797 4.30157,0.9422l22.84375,-9.67657c0.40313,-0.13437 0.94063,-0.53698 1.34375,-0.80573l11.42188,-11.42187l55.89947,-55.76562c0.80625,-0.80625 1.2099,-1.74635 1.2099,-2.82135c0,-1.075 -0.40365,-2.14947 -1.2099,-2.82135l-13.57135,-13.4375c-0.80625,-0.80625 -1.84923,-1.2099 -2.87384,-1.2099zM25.53125,8.0625c-9.675,0 -17.46875,7.79375 -17.46875,17.46875v120.9375c0,9.675 7.79375,17.46875 17.46875,17.46875h67.1875c2.28437,0 4.03125,-1.74687 4.03125,-4.03125c0,-2.28438 -1.74688,-4.03125 -4.03125,-4.03125h-67.1875c-5.24063,0 -9.40625,-4.16563 -9.40625,-9.40625v-120.9375c0,-5.24063 4.16562,-9.40625 9.40625,-9.40625h80.625c2.28437,0 4.03125,-1.74688 4.03125,-4.03125c0,-2.28438 -1.74688,-4.03125 -4.03125,-4.03125zM159.90625,48.375c-2.28438,0 -4.03125,1.74687 -4.03125,4.03125v63.15625h-22.84375c-9.675,0 -17.46875,7.79375 -17.46875,17.46875v26.875c0,1.6125 0.94115,3.09167 2.55365,3.76355c0.40312,0.13438 0.9401,0.2677 1.4776,0.2677c1.075,0 2.0151,-0.40365 2.82135,-1.2099l40.3125,-40.3125c0.80625,-0.80625 1.2099,-1.74635 1.2099,-2.82135v-67.1875c0,-2.28438 -1.74687,-4.03125 -4.03125,-4.03125zM133.03125,123.625h17.20105l-26.6073,26.6073v-17.20105c0,-5.24063 4.16562,-9.40625 9.40625,-9.40625z">
      </path>
    </g>
  </g>
</svg>
