<svg id="Layer_1" data-name="Layer 1" xmlns="http://www.w3.org/2000/svg" xmlns:xlink="http://www.w3.org/1999/xlink" viewBox="0 0 226.12 309.82"><defs><style>.cls-1{fill:url(#New_Gradient_Swatch);}.cls-2{fill:url(#New_Gradient_Swatch-2);}.cls-3{fill:url(#New_Gradient_Swatch-3);}.cls-4{fill:url(#New_Gradient_Swatch-4);}.cls-5{fill:url(#New_Gradient_Swatch-5);}.cls-6{fill:url(#New_Gradient_Swatch-6);}.cls-7{fill:url(#New_Gradient_Swatch-7);}.cls-8{fill:url(#New_Gradient_Swatch-8);}.cls-9{fill:url(#New_Gradient_Swatch-9);}.cls-10{fill:url(#New_Gradient_Swatch-10);}.cls-11{fill:url(#New_Gradient_Swatch-11);}.cls-12{fill:url(#New_Gradient_Swatch-12);}.cls-13{fill:url(#New_Gradient_Swatch-13);}.cls-14{fill:url(#New_Gradient_Swatch-14);}.cls-15{fill:url(#New_Gradient_Swatch-15);}.cls-16{fill:url(#New_Gradient_Swatch-16);}.cls-17{fill:url(#New_Gradient_Swatch-17);}.cls-18{fill:url(#New_Gradient_Swatch-18);}.cls-19{fill:url(#New_Gradient_Swatch-19);}.cls-20{fill:url(#New_Gradient_Swatch-20);}.cls-21{fill:url(#New_Gradient_Swatch-21);}.cls-22{fill:url(#New_Gradient_Swatch-22);}.cls-23{fill:url(#New_Gradient_Swatch-23);}.cls-24{fill:url(#New_Gradient_Swatch-24);}.cls-25{fill:url(#New_Gradient_Swatch-25);}.cls-26{fill:url(#New_Gradient_Swatch-26);}</style><linearGradient id="New_Gradient_Swatch" x1="-182.06" y1="-0.42" x2="630.96" y2="1056.36" gradientUnits="userSpaceOnUse"><stop offset="0" stop-color="#db9b79"/><stop offset="0.05" stop-color="#db9b79"/><stop offset="0.25" stop-color="#a96847"/><stop offset="0.35" stop-color="#db9b79"/><stop offset="0.53" stop-color="#7d532c"/><stop offset="0.7" stop-color="#db9b79"/><stop offset="0.87" stop-color="#7d532c"/><stop offset="1" stop-color="#db9b79"/></linearGradient><linearGradient id="New_Gradient_Swatch-2" x1="-169.71" y1="-9.92" x2="643.31" y2="1046.85" xlink:href="#New_Gradient_Swatch"/><linearGradient id="New_Gradient_Swatch-3" x1="-159.55" y1="-17.74" x2="653.47" y2="1039.04" xlink:href="#New_Gradient_Swatch"/><linearGradient id="New_Gradient_Swatch-4" x1="-148.41" y1="-26.31" x2="664.61" y2="1030.47" xlink:href="#New_Gradient_Swatch"/><linearGradient id="New_Gradient_Swatch-5" x1="-134.48" y1="-37.03" x2="678.54" y2="1019.75" xlink:href="#New_Gradient_Swatch"/><linearGradient id="New_Gradient_Swatch-6" x1="-122.11" y1="-46.54" x2="690.91" y2="1010.23" xlink:href="#New_Gradient_Swatch"/><linearGradient id="New_Gradient_Swatch-7" x1="-110.69" y1="-55.33" x2="702.33" y2="1001.45" xlink:href="#New_Gradient_Swatch"/><linearGradient id="New_Gradient_Swatch-8" x1="-99.68" y1="-63.8" x2="713.34" y2="992.98" xlink:href="#New_Gradient_Swatch"/><linearGradient id="New_Gradient_Swatch-9" x1="-182.78" y1="0.13" x2="630.24" y2="1056.91" xlink:href="#New_Gradient_Swatch"/><linearGradient id="New_Gradient_Swatch-10" x1="-134.99" y1="-36.64" x2="678.03" y2="1020.14" xlink:href="#New_Gradient_Swatch"/><linearGradient id="New_Gradient_Swatch-11" x1="-63.07" y1="-91.97" x2="749.95" y2="964.81" xlink:href="#New_Gradient_Swatch"/><linearGradient id="New_Gradient_Swatch-12" x1="-101.01" y1="-62.78" x2="712.01" y2="994" xlink:href="#New_Gradient_Swatch"/><linearGradient id="New_Gradient_Swatch-13" x1="33.4" y1="-12.53" x2="364.07" y2="392.49" xlink:href="#New_Gradient_Swatch"/><linearGradient id="New_Gradient_Swatch-14" x1="33.4" y1="-12.53" x2="364.07" y2="392.48" xlink:href="#New_Gradient_Swatch"/><linearGradient id="New_Gradient_Swatch-15" x1="25.9" y1="-6.4" x2="356.56" y2="398.61" xlink:href="#New_Gradient_Swatch"/><linearGradient id="New_Gradient_Swatch-16" x1="43" y1="-20.36" x2="373.66" y2="384.65" xlink:href="#New_Gradient_Swatch"/><linearGradient id="New_Gradient_Swatch-17" x1="23.81" y1="-4.69" x2="354.47" y2="400.32" xlink:href="#New_Gradient_Swatch"/><linearGradient id="New_Gradient_Swatch-18" x1="40.9" y1="-18.65" x2="371.56" y2="386.36" xlink:href="#New_Gradient_Swatch"/><linearGradient id="New_Gradient_Swatch-19" x1="30.25" y1="-9.95" x2="360.91" y2="395.06" xlink:href="#New_Gradient_Swatch"/><linearGradient id="New_Gradient_Swatch-20" x1="41.22" y1="-18.91" x2="371.88" y2="386.1" xlink:href="#New_Gradient_Swatch"/><linearGradient id="New_Gradient_Swatch-21" x1="36.56" y1="-15.1" x2="367.22" y2="389.91" xlink:href="#New_Gradient_Swatch"/><linearGradient id="New_Gradient_Swatch-22" x1="25.59" y1="-6.15" x2="356.25" y2="398.87" xlink:href="#New_Gradient_Swatch"/><linearGradient id="New_Gradient_Swatch-23" x1="31.08" y1="-10.63" x2="361.74" y2="394.38" xlink:href="#New_Gradient_Swatch"/><linearGradient id="New_Gradient_Swatch-24" x1="26.73" y1="-7.08" x2="357.39" y2="397.94" xlink:href="#New_Gradient_Swatch"/><linearGradient id="New_Gradient_Swatch-25" x1="35.73" y1="-14.42" x2="366.39" y2="390.59" xlink:href="#New_Gradient_Swatch"/><linearGradient id="New_Gradient_Swatch-26" x1="40.08" y1="-17.98" x2="370.74" y2="387.04" xlink:href="#New_Gradient_Swatch"/></defs><title>home-aura-brand</title><path class="cls-1" d="M52.74,309.75H52l-3.19-9.27-3.22,9.27h-.72l-3.19-9.36a20.75,20.75,0,0,0-.75-2,3,3,0,0,0-1.25-1.56l.06-.5c.48,0,1.08,0,1.81,0s1.5,0,2,0l.05.5c-.43.21-.65.45-.65.73a16.45,16.45,0,0,0,.76,2.81l2,6.1,1.91-5.74a6.8,6.8,0,0,0,.41-2.06,2,2,0,0,0-1.24-1.84l.06-.5c.49,0,1.09,0,1.82,0s1.53,0,2,0l0,.5c-.5.25-.67.42-.67.77a16,16,0,0,0,.77,2.75l2,6.09,2-6.07a11.15,11.15,0,0,0,.66-2.73c0-.38-.23-.6-.77-.81l0-.5c.43,0,1,0,1.7,0,.51,0,1,0,1.42,0l0,.52a2.7,2.7,0,0,0-1.21,1.52c-.12.24-.36.93-.75,2.06Z"/><path class="cls-2" d="M67.19,309.46l0-.5c.69-.28.86-.64.91-1.54,0-.41.06-1.1.06-2.05v-5c0-1,0-1.63-.06-2.06,0-.9-.22-1.26-.91-1.54l0-.5c.54,0,1.18,0,1.89,0h3.48c.92,0,1.63,0,2.12,0,.15,1,.26,2,.34,2.94l-.6.13a4.58,4.58,0,0,0-.84-1.48,2.31,2.31,0,0,0-1-.56,5.41,5.41,0,0,0-1.39-.14c-.88,0-1,.14-1,.9,0,.4,0,1,0,1.93v2.25a22.87,22.87,0,0,0,2.3-.08c.8-.09,1.09-.41,1.38-1.29l.53.09c0,.49-.06,1-.06,1.71s0,1.23.06,1.72l-.53.1c-.29-.88-.58-1.18-1.38-1.28a21.39,21.39,0,0,0-2.3-.09v2.3c0,.86,0,1.53.07,2,.1.9.34,1.09,1.18,1.09a12.49,12.49,0,0,0,1.7-.1,1.8,1.8,0,0,0,1.33-.82A6.53,6.53,0,0,0,75,306.1l.62.13a30,30,0,0,1-.52,3.27c-1.14-.05-3-.09-5.77-.09C68.46,309.41,67.73,309.43,67.19,309.46Z"/><path class="cls-3" d="M88.07,305.44q0,1.49.06,2c.07.9.32,1.09,1.2,1.09a9.18,9.18,0,0,0,1.64-.12,2,2,0,0,0,1.37-.91,7,7,0,0,0,.75-1.65l.67.13c-.09.86-.26,2-.54,3.48-1.18-.05-3.13-.09-5.82-.09-.9,0-1.63,0-2.17,0l-.06-.5c.69-.28.86-.64.92-1.54,0-.41,0-1.1,0-2.05v-5c0-1,0-1.63,0-2.06-.06-.9-.23-1.26-.92-1.54l.06-.5c.54,0,1.18,0,1.87,0s1.35,0,1.89,0l.06.5c-.7.28-.86.64-.92,1.54,0,.43-.06,1.1-.06,2.06Z"/><path class="cls-4" d="M105.81,305.44c0,1,0,1.67,0,2,.08.9.32,1.09,1.2,1.09a9.22,9.22,0,0,0,1.65-.12,2,2,0,0,0,1.37-.91,7.48,7.48,0,0,0,.75-1.65l.67.13c-.1.86-.26,2-.54,3.48-1.18-.05-3.13-.09-5.83-.09-.89,0-1.62,0-2.17,0l0-.5c.69-.28.86-.64.91-1.54,0-.41.06-1.1.06-2.05v-5c0-1,0-1.63-.06-2.06,0-.9-.22-1.26-.91-1.54l0-.5c.55,0,1.18,0,1.87,0s1.35,0,1.9,0l0,.5c-.69.28-.86.64-.92,1.54,0,.43,0,1.1,0,2.06Z"/><path class="cls-5" d="M131.8,309.82l-9.06-10.95v6.52c0,.76,0,1.44.06,2.05,0,.9.22,1.24,1,1.54l-.08.5c-.61,0-1.12-.05-1.49-.05-.58,0-1.07,0-1.5.05l-.08-.5c.75-.3.92-.62,1-1.54,0-.41,0-1.1,0-2.05v-4.95c0-.93,0-1.61,0-2-.06-.92-.26-1.33-1-1.63l0-.5c.58,0,1.41,0,2.51,0l8.14,9.76v-5.71c0-1,0-1.65,0-2.06-.06-.92-.21-1.24-1-1.54l.06-.5c.77,0,1.27,0,1.48,0,.43,0,.93,0,1.51,0l.06.5c-.73.3-.9.64-1,1.54,0,.62,0,1.31,0,2.06v6.14c0,1.18,0,2.2.07,3.07Z"/><path class="cls-6" d="M143,309.46l-.05-.5c.69-.28.86-.64.91-1.54,0-.41.06-1.1.06-2.05v-5c0-1,0-1.63-.06-2.06,0-.9-.22-1.26-.91-1.54l.05-.5c.55,0,1.18,0,1.89,0h3.49c.91,0,1.62,0,2.11,0,.15,1,.26,2,.34,2.94l-.6.13a4.58,4.58,0,0,0-.84-1.48,2.31,2.31,0,0,0-1-.56,5.41,5.41,0,0,0-1.39-.14c-.88,0-1,.14-1,.9,0,.4-.06,1-.06,1.93v2.25a22.87,22.87,0,0,0,2.3-.08c.81-.09,1.09-.41,1.39-1.29l.52.09c0,.49-.06,1-.06,1.71s0,1.23.06,1.72l-.52.1c-.3-.88-.58-1.18-1.39-1.28a21.26,21.26,0,0,0-2.3-.09v2.3c0,.86,0,1.53.07,2,.1.9.34,1.09,1.18,1.09a12.66,12.66,0,0,0,1.71-.1,1.79,1.79,0,0,0,1.32-.82,6.91,6.91,0,0,0,.72-1.55l.61.13a30,30,0,0,1-.52,3.27c-1.14-.05-3.05-.09-5.77-.09C144.24,309.41,143.51,309.43,143,309.46Z"/><path class="cls-7" d="M163.81,300.61A14.68,14.68,0,0,0,165.6,302c.75.5,1.28.88,1.58,1.12a8.6,8.6,0,0,1,.82.75,3.46,3.46,0,0,1,.9,2.38,3.21,3.21,0,0,1-1.18,2.58,4.59,4.59,0,0,1-3,1,8.75,8.75,0,0,1-3.34-.62c-.15-.75-.28-1.84-.41-3.26a5.68,5.68,0,0,0,.62-.15,7.66,7.66,0,0,0,.84,1.72,2.75,2.75,0,0,0,2.47,1.29,2,2,0,0,0,2.21-2,2.11,2.11,0,0,0-.52-1.46,11.8,11.8,0,0,0-2-1.66c-.81-.55-1.35-1-1.67-1.22a4.76,4.76,0,0,1-.82-.86,3.26,3.26,0,0,1-.69-2.12,3,3,0,0,1,1.1-2.41,4.23,4.23,0,0,1,2.84-1,7.14,7.14,0,0,1,3.32.81c0,.73,0,1.21,0,1.46s0,.71,0,1.44l-.58,0a5.33,5.33,0,0,0-.94-1.86,2.43,2.43,0,0,0-1.87-.91,2,2,0,0,0-2.1,2.06A2,2,0,0,0,163.81,300.61Z"/><path class="cls-8" d="M181.34,300.61a14.68,14.68,0,0,0,1.79,1.35c.75.5,1.28.88,1.58,1.12a7.54,7.54,0,0,1,.82.75,3.46,3.46,0,0,1,.9,2.38,3.21,3.21,0,0,1-1.18,2.58,4.59,4.59,0,0,1-3,1,8.75,8.75,0,0,1-3.34-.62c-.15-.75-.28-1.84-.41-3.26a5.68,5.68,0,0,0,.62-.15,7.66,7.66,0,0,0,.84,1.72,2.75,2.75,0,0,0,2.47,1.29,2,2,0,0,0,2.21-2,2.11,2.11,0,0,0-.52-1.46,11.8,11.8,0,0,0-2-1.66c-.81-.55-1.35-1-1.67-1.22a4.76,4.76,0,0,1-.82-.86,3.26,3.26,0,0,1-.69-2.12A3,3,0,0,1,180,297a4.23,4.23,0,0,1,2.84-1,7.14,7.14,0,0,1,3.32.81c0,.73,0,1.21,0,1.46s0,.71,0,1.44l-.58,0a5.33,5.33,0,0,0-.94-1.86,2.43,2.43,0,0,0-1.87-.91,2,2,0,0,0-2.1,2.06A2,2,0,0,0,181.34,300.61Z"/><path class="cls-9" d="M9.55,256.26l-.41,1.13c-1.72,4.25-2.55,7.19-2.55,8.72a5.52,5.52,0,0,0,1.6,3.68H7.54c-1,0-2.79-.17-3.45-.17-.95,0-2.78.17-3.44.17H0a36,36,0,0,0,3.32-6.06c.66-1.41,1.55-3.57,2.67-6.34l12-28.31,11.52,28.31c1.13,2.77,2,4.93,2.67,6.34a28.1,28.1,0,0,0,3.32,6.06h-.89c-1,0-3-.17-3.92-.17s-2.73.17-3.91.17h-.6a4.82,4.82,0,0,0,1.19-3.06,9.15,9.15,0,0,0-.59-2.94c-.24-.74-.3-1-.72-2.1l-.47-1.24c-.18-.63-.83-2.21-1.13-3.06L24,256.26l-.95-2.44L17,239l-6.41,14.78"/><path class="cls-10" d="M96.44,255.35A14.7,14.7,0,0,1,81,270.64c-9.5,0-15.13-5.32-15.13-14.44V242.33c0-2.32-.06-4.48-.18-6.34-.18-2.78-1-4.82-2.2-6.06h.71c.66,0,2.85.28,4.1.28s3.38-.28,4-.28h.72A8.45,8.45,0,0,0,70.74,236c-.06,2.49-.12,4.58-.12,6.34v13.76c0,7.24,4,11.43,10.75,11.43,7.3,0,11.92-4.7,11.92-12.91V242.33c0-2.32-.05-4.48-.17-6.34-.18-2.78-1-4.82-2.2-6.06h.48c.71,0,2.73.28,3.5.28s2.79-.28,3.5-.28h.48A8.45,8.45,0,0,0,96.56,236c-.06,2.49-.12,4.58-.12,6.34Z"/><path class="cls-11" d="M200.12,256.26l-.41,1.13c-1.73,4.25-2.56,7.19-2.56,8.72a5.54,5.54,0,0,0,1.61,3.68h-.66c-1,0-2.79-.17-3.44-.17-.95,0-2.79.17-3.44.17h-.65a37.47,37.47,0,0,0,3.32-6.06c.65-1.41,1.54-3.57,2.67-6.34l12.05-28.31,11.51,28.31c1.13,2.77,2,4.93,2.67,6.34a28.46,28.46,0,0,0,3.33,6.06h-.89c-1,0-3-.17-3.92-.17s-2.73.17-3.92.17h-.59a4.86,4.86,0,0,0,1.18-3.06,8.89,8.89,0,0,0-.59-2.94c-.24-.74-.29-1-.71-2.1l-.48-1.24c-.17-.63-.82-2.21-1.12-3.06l-.48-1.13-.95-2.44L207.6,239l-6.41,14.78"/><path class="cls-12" d="M157.39,264.92a103.45,103.45,0,0,1-9.46-14.09,11.83,11.83,0,0,0,3.88-2.16,9.82,9.82,0,0,0,3.44-7.93c0-6.57-5.34-10.75-13.64-10.75-2.85,0-6.18.22-7.42.22s-3.44-.28-4.1-.28h-.71c1.25,1.24,2,3.28,2.2,6.06.11,1.87.17,4,.17,6.34v15.06c0,2.38-.06,4.47-.17,6.34-.18,2.77-1,4.81-2.2,6h.71c.66,0,2.85-.28,4.1-.28s3.38.28,4,.28h.71a8.46,8.46,0,0,1-2.31-6c-.06-2.49-.12-4.59-.12-6.34V240.86c0-2.72.06-4.65.18-5.84.18-2.32.65-2.82,3.32-2.82,6.35,0,10.27,2.88,10.27,8.54,0,6.18-3.56,9.29-10.74,9.29-.54,0-1.13-.06-1.84-.11a9.19,9.19,0,0,0,5.52,1.64c.14,0,.26,0,.39,0a87.54,87.54,0,0,0,8.75,14.41c2.31,3.11,4.8,4.7,7.48,4.7a4.87,4.87,0,0,0,3-.8,24.45,24.45,0,0,1-5.46-4.92"/><path class="cls-13" d="M113.06,0a85,85,0,1,0,85,85A85,85,0,0,0,113.06,0Zm59.78,110.87v13.35a8.4,8.4,0,0,1-8.35,8.39l-3.51,0v.28h-.24v3.47a8.39,8.39,0,0,1-8.39,8.39H140.57a29.14,29.14,0,0,1-51.77,0h-15a8.4,8.4,0,0,1-8.39-8.39v-3.75l-3.75,0a8.4,8.4,0,0,1-8.34-8.39v-13.3a29.21,29.21,0,0,1,0-51.86V45.75a8.39,8.39,0,0,1,8.34-8.38l3.75,0V33.6a8.4,8.4,0,0,1,8.39-8.39h15a29.21,29.21,0,0,1,51.86,0h11.74a8.39,8.39,0,0,1,8.39,8.39v3.75l3.75,0a8.4,8.4,0,0,1,8.35,8.38V59.11a29.13,29.13,0,0,1,0,51.76Z"/><path class="cls-14" d="M113.12,85.83c-.29-.23-.58-.47-.85-.73a9.53,9.53,0,0,1,.72-.85,9.65,9.65,0,0,1,.86.72h0Z"/><path class="cls-15" d="M124.93,99.12a10,10,0,0,1-5.8,1.88h0a9.89,9.89,0,0,1-6-2,9.79,9.79,0,0,1-6,2h0a10,10,0,0,1-5.92-1.93,11.91,11.91,0,0,0,3.36,6.49,12,12,0,0,0,20.39-6.48"/><path class="cls-16" d="M127.14,73.16A10,10,0,0,1,129,79v0a10,10,0,0,1-2,6,10,10,0,0,1,2,6v0a9.92,9.92,0,0,1-1.94,5.92,12.05,12.05,0,0,0,0-23.76"/><path class="cls-17" d="M99,73.16a12.05,12.05,0,0,0,0,23.76A9.92,9.92,0,0,1,97.05,91v0a10,10,0,0,1,2-6,9.94,9.94,0,0,1-2-6v0A9.92,9.92,0,0,1,99,73.16"/><path class="cls-18" d="M124.93,71a12,12,0,0,0-23.75,0A9.9,9.9,0,0,1,107.1,69h0a9.92,9.92,0,0,1,6,2,9.94,9.94,0,0,1,6-2h0a9.89,9.89,0,0,1,5.8,1.88"/><path class="cls-19" d="M100.09,83.88a10,10,0,0,1,11-2,19.22,19.22,0,0,0-2.6-4.28,10.57,10.57,0,0,0-8.6-3h0a8.51,8.51,0,0,0,.24,9.31"/><path class="cls-20" d="M116.23,83a19.22,19.22,0,0,0,4.28-2.6,10.58,10.58,0,0,0,3-8.59h0a8.48,8.48,0,0,0-9.31.23S118.76,75.93,116.23,83Z"/><path class="cls-21" d="M126,86.2a9.93,9.93,0,0,1-7,2.84,10.1,10.1,0,0,1-4-.83,19.4,19.4,0,0,0,2.61,4.28,10.53,10.53,0,0,0,8.59,3h0A8.46,8.46,0,0,0,126,86.2"/><path class="cls-22" d="M111.9,98a10,10,0,0,1-2-11,19.4,19.4,0,0,0-4.28,2.61,10.5,10.5,0,0,0-3,8.59h0A8.46,8.46,0,0,0,111.9,98Z"/><path class="cls-23" d="M125,97.08a12.05,12.05,0,0,1-11.73-9.76,10.92,10.92,0,0,1-1.24-1,8.48,8.48,0,0,0,13,10.79Z"/><path class="cls-24" d="M101,97a12.05,12.05,0,0,1,9.76-11.72,10.29,10.29,0,0,1,1-1.25A8.48,8.48,0,0,0,101,97"/><path class="cls-25" d="M101.12,73a12,12,0,0,1,11.72,9.77,10.21,10.21,0,0,1,1.25,1,8.48,8.48,0,0,0-13-10.8"/><path class="cls-26" d="M125.1,73.1a12,12,0,0,1-9.76,11.72,10.21,10.21,0,0,1-1,1.25,8.38,8.38,0,0,0,4.74,1.45,8.48,8.48,0,0,0,6-14.42"/></svg>