<svg xmlns="http://www.w3.org/2000/svg" xmlns:xlink="http://www.w3.org/1999/xlink" width="341.1" height="59.52" viewBox="0 0 341.1 59.52">
  <defs>
    <linearGradient id="linear-gradient" x1="0.401" x2="0.983" y2="0.36" gradientUnits="objectBoundingBox">
      <stop offset="0" stop-color="#e19976"/>
      <stop offset="0.1" stop-color="#ca7f5d"/>
      <stop offset="0.2" stop-color="#bb6e4d"/>
      <stop offset="0.3" stop-color="#b36444"/>
      <stop offset="0.4" stop-color="#ae5f3f"/>
      <stop offset="0.5" stop-color="#ab5c3d"/>
      <stop offset="0.6" stop-color="#aa5b3c"/>
      <stop offset="0.7" stop-color="#aa5a3b"/>
      <stop offset="0.8" stop-color="#aa5a3b"/>
      <stop offset="0.9" stop-color="#aa5a3b"/>
      <stop offset="1" stop-color="#aa5a3b"/>
    </linearGradient>
  </defs>
  <path id="Path_342" data-name="Path 342" d="M17.82-23.22a81.555,81.555,0,0,1-8.16.3V-30.6c0-2.88.06-4.92.18-6.18.18-2.46.54-2.88,3.36-2.88a37.158,37.158,0,0,1,5.16.3c2.82.48,5.1,2.64,6.84,6.42a31.769,31.769,0,0,0,.3-4.02,28.594,28.594,0,0,0-.48-5.22q-2.34.18-6.66.18H7.32c-1.26,0-3.48-.18-4.14-.18H2.46c1.26,1.32,2.04,3.48,2.22,6.42.12,1.98.18,4.26.18,6.72v15.96c0,2.52-.06,4.74-.18,6.72C4.5-3.42,3.72-1.26,2.46.06h.72c.66,0,2.88-.18,4.14-.18,9,0,15.3.12,18.96.3a32.588,32.588,0,0,0,.96-7.56A16.593,16.593,0,0,0,27-10.14c-1.62,4.5-3.96,6.96-6.96,7.38a52.338,52.338,0,0,1-6.36.3c-2.82,0-3.78-.66-3.84-3.48-.12-2.4-.18-4.56-.18-6.54v-8.1a81.555,81.555,0,0,1,8.16.3c2.7.36,4.68,1.38,5.88,3.12v-.72a55.535,55.535,0,0,1,0-7.74v-.72A7.732,7.732,0,0,1,17.82-23.22Zm34.56,10.2c0,2.52-.06,4.74-.18,6.72-.18,2.94-.96,5.1-2.22,6.42h.48c.72,0,2.76-.3,3.54-.3s2.82.3,3.54.3h.48A9.221,9.221,0,0,1,55.68-6.3c-.06-2.64-.12-4.86-.12-6.72V-34.74L86.58,1.5c-.18-2.76-.24-6.18-.24-10.26V-29.04c0-1.86.06-4.08.12-6.72a9.221,9.221,0,0,1,2.34-6.42h-.48c-.72,0-2.76.3-3.54.3s-2.82-.3-3.54-.3h-.48c1.26,1.32,2.04,3.48,2.22,6.42.12,1.98.18,4.26.18,6.72V-10.2L55.92-42c-2.1,0-4.74-.18-5.7-.18H49.5c1.5,1.5,2.4,3.78,2.7,6.78.12,1.32.18,3.42.18,6.36ZM110.64-21c0,6.24,1.92,11.4,5.76,15.42A21.543,21.543,0,0,0,131.46.9a55.465,55.465,0,0,0,18.42,11.82,54.4,54.4,0,0,0,19.74,3.84c8.58,0,15.3-2.28,20.1-6.78a44.051,44.051,0,0,1-17.64,3.42q-18.09,0-33.6-12.96a20.789,20.789,0,0,0,11.34-7.62A21.942,21.942,0,0,0,154.26-21a21.253,21.253,0,0,0-6.24-15.66,21.071,21.071,0,0,0-15.66-6.3,21.187,21.187,0,0,0-15.42,6.24A21.206,21.206,0,0,0,110.64-21Zm20.82-18.96a15.682,15.682,0,0,1,12.18,5.58c3.3,3.66,4.98,8.4,4.98,14.1,0,5.4-1.38,9.78-4.2,13.2a13.241,13.241,0,0,1-10.74,5.1,16.223,16.223,0,0,1-12.36-5.46c-3.36-3.66-5.04-8.4-5.04-14.34q0-8.46,4.32-13.32A13.886,13.886,0,0,1,131.46-39.96Zm77.22,10.92c0-1.86.06-4.08.12-6.72a9.221,9.221,0,0,1,2.34-6.42h-.48c-.72,0-2.76.3-3.54.3s-2.82-.3-3.54-.3h-.48c1.26,1.32,2.04,3.48,2.22,6.42.12,1.98.18,4.26.18,6.72v13.02c0,8.7-4.68,13.68-12.06,13.68-6.78,0-10.86-4.44-10.86-12.12V-29.04c0-1.86.06-4.08.12-6.72a9.221,9.221,0,0,1,2.34-6.42h-.72c-.66,0-2.82.3-4.08.3s-3.48-.3-4.14-.3h-.72c1.26,1.32,2.04,3.48,2.22,6.42.12,1.98.18,4.26.18,6.72v14.7c0,9.66,5.7,15.3,15.3,15.3A14.786,14.786,0,0,0,204.36-3.6a16.243,16.243,0,0,0,4.32-11.64Zm31.5,0c0-1.86.06-4.08.12-6.72a9.221,9.221,0,0,1,2.34-6.42h-.72c-.66,0-2.82.3-4.08.3s-3.48-.3-4.14-.3h-.72c1.26,1.32,2.04,3.48,2.22,6.42.12,1.98.18,4.26.18,6.72v15.96c0,2.52-.06,4.74-.18,6.72-.18,2.94-.96,5.1-2.22,6.42h.72c.66,0,2.88-.3,4.14-.3s3.42.3,4.08.3h.72a9.221,9.221,0,0,1-2.34-6.42c-.06-2.64-.12-4.86-.12-6.72ZM276.3-39.78c5.94,0,9.12,3.36,9.12,8.94,0,5.46-3.42,8.7-9.9,8.7a26.407,26.407,0,0,1-2.76-.06v-8.4c0-2.88.06-4.92.18-6.18C273.12-39.24,273.6-39.78,276.3-39.78Zm-5.88-2.1c-1.26,0-3.48-.3-4.14-.3h-.72c1.26,1.32,2.04,3.48,2.22,6.42.12,1.98.18,4.26.18,6.72v15.96c0,2.52-.06,4.74-.18,6.72-.18,2.94-.96,5.1-2.22,6.42h.72c.66,0,2.88-.3,4.14-.3s3.42.3,4.08.3h.72a9.221,9.221,0,0,1-2.34-6.42c-.06-2.64-.12-4.86-.12-6.72v-6.9a15.82,15.82,0,0,0,3.54.24,16.116,16.116,0,0,0,3.3-.24,94.366,94.366,0,0,0,9.18,15.96c2.34,3.3,4.86,4.98,7.56,4.98A4.776,4.776,0,0,0,299.4.12a25.124,25.124,0,0,1-5.52-5.22,111.443,111.443,0,0,1-10.14-15.96,10.488,10.488,0,0,0,6.78-10.38A9.61,9.61,0,0,0,287.04-39c-2.34-2.1-5.52-3.12-9.6-3.12C274.98-42.12,271.8-41.88,270.42-41.88Zm63.72,18.66a81.555,81.555,0,0,1-8.16.3V-30.6c0-2.88.06-4.92.18-6.18.18-2.46.54-2.88,3.36-2.88a37.157,37.157,0,0,1,5.16.3c2.82.48,5.1,2.64,6.84,6.42a31.771,31.771,0,0,0,.3-4.02,28.592,28.592,0,0,0-.48-5.22Q339-42,334.68-42H323.64c-1.26,0-3.48-.18-4.14-.18h-.72c1.26,1.32,2.04,3.48,2.22,6.42.12,1.98.18,4.26.18,6.72v15.96c0,2.52-.06,4.74-.18,6.72-.18,2.94-.96,5.1-2.22,6.42h.72c.66,0,2.88-.18,4.14-.18,9,0,15.3.12,18.96.3a32.588,32.588,0,0,0,.96-7.56,16.594,16.594,0,0,0-.24-2.76c-1.62,4.5-3.96,6.96-6.96,7.38a52.339,52.339,0,0,1-6.36.3c-2.82,0-3.78-.66-3.84-3.48-.12-2.4-.18-4.56-.18-6.54v-8.1a81.555,81.555,0,0,1,8.16.3c2.7.36,4.68,1.38,5.88,3.12v-.72a55.528,55.528,0,0,1,0-7.74v-.72A7.733,7.733,0,0,1,334.14-23.22Z" transform="translate(-2.46 42.96)" fill="url(#linear-gradient)"/>
</svg>
