<svg id="facebook-logo" xmlns="http://www.w3.org/2000/svg" width="10.369" height="19.178" viewBox="0 0 10.369 19.178">
  <path id="Path_79" data-name="Path 79" d="M32.055,0,29.568,0a4.368,4.368,0,0,0-4.6,4.72V6.9h-2.5a.391.391,0,0,0-.391.391V10.44a.391.391,0,0,0,.391.391h2.5v7.956a.391.391,0,0,0,.391.391h3.263a.391.391,0,0,0,.391-.391V10.831h2.924a.391.391,0,0,0,.391-.391V7.287a.391.391,0,0,0-.391-.391H29.013V5.051c0-.887.211-1.337,1.366-1.337h1.675a.391.391,0,0,0,.391-.391V.4A.391.391,0,0,0,32.055,0Z" transform="translate(-22.077)" fill="#d99a78"/>
</svg>
