<svg id="instagram" xmlns="http://www.w3.org/2000/svg" width="19.178" height="19.178" viewBox="0 0 19.178 19.178">
  <g id="Group_120" data-name="Group 120">
    <g id="Group_119" data-name="Group 119">
      <path id="Path_80" data-name="Path 80" d="M13.185,0H5.993A5.994,5.994,0,0,0,0,5.993v7.192a5.994,5.994,0,0,0,5.993,5.993h7.192a5.994,5.994,0,0,0,5.993-5.993V5.993A5.994,5.994,0,0,0,13.185,0Zm4.2,13.185a4.2,4.2,0,0,1-4.2,4.2H5.993a4.2,4.2,0,0,1-4.2-4.2V5.993a4.2,4.2,0,0,1,4.2-4.2h7.192a4.2,4.2,0,0,1,4.2,4.2Z" fill="#d99a78"/>
    </g>
  </g>
  <g id="Group_122" data-name="Group 122" transform="translate(4.795 4.795)">
    <g id="Group_121" data-name="Group 121">
      <path id="Path_81" data-name="Path 81" d="M132.795,128a4.795,4.795,0,1,0,4.795,4.795A4.795,4.795,0,0,0,132.795,128Zm0,7.791a3,3,0,1,1,3-3A3,3,0,0,1,132.795,135.791Z" transform="translate(-128 -128)" fill="#d99a78"/>
    </g>
  </g>
  <g id="Group_124" data-name="Group 124" transform="translate(14.105 3.796)">
    <g id="Group_123" data-name="Group 123">
      <circle id="Ellipse_1" data-name="Ellipse 1" cx="0.639" cy="0.639" r="0.639" fill="#d99a78"/>
    </g>
  </g>
</svg>
