<?xml version="1.0" encoding="utf-8"?>
<!-- Generator: Adobe Illustrator 23.1.1, SVG Export Plug-In . SVG Version: 6.00 Build 0)  -->
<svg version="1.1" id="Layer_1" xmlns="http://www.w3.org/2000/svg" xmlns:xlink="http://www.w3.org/1999/xlink" x="0px" y="0px"
	 viewBox="0 0 422.4 114.5" style="enable-background:new 0 0 422.4 114.5;" xml:space="preserve">
<style type="text/css">
	.st0{fill:#FFFFFF;}
</style>
<g>
	<g>
		<path class="st0" d="M183.2,103.4c0-1.1,0-1.8-0.1-2.3c-0.1-1.1-0.4-1.9-1-2.5h0.3c0.3,0,1.3,0.1,2.1,0.1l9.9,11.6v-6.9
			c0-0.9,0-1.7-0.1-2.4c-0.1-1.1-0.3-1.9-0.8-2.3h0.2c0.3,0,1,0.1,1.3,0.1s1-0.1,1.3-0.1h0.2c-0.5,0.6-0.8,1.4-0.9,2.3
			c0,1,0,1.8,0,2.4v7.4c0,1.5,0,2.7,0.1,3.7l-11.3-13.2v7.9c0,0.7,0,1.5,0,2.4c0,1,0.3,1.8,0.8,2.3H185c-0.3,0-1-0.1-1.3-0.1
			c-0.3,0-1,0.1-1.3,0.1h-0.2c0.5-0.5,0.7-1.3,0.8-2.3c0-0.7,0.1-1.5,0.1-2.4V103.4z"/>
		<path class="st0" d="M212.8,104.4v0.3c-0.1,0.5-0.1,2.2,0,2.8v0.3c-0.4-0.6-1.2-1-2.1-1.1c-0.6-0.1-1.6-0.1-3-0.1v2.9
			c0,0.7,0,1.5,0.1,2.4c0,1,0.4,1.3,1.4,1.3c1,0,1.8,0,2.3-0.1c1.1-0.2,1.9-1,2.5-2.7c0.1,0.4,0.1,0.7,0.1,1c0,0.8-0.1,1.7-0.4,2.8
			c-1.3-0.1-3.6-0.1-6.9-0.1c-0.5,0-1.3,0.1-1.5,0.1h-0.3c0.5-0.5,0.7-1.3,0.8-2.3c0-0.7,0.1-1.5,0.1-2.4v-5.8c0-0.9,0-1.7-0.1-2.4
			c-0.1-1.1-0.3-1.9-0.8-2.3h0.3c0.2,0,1,0.1,1.5,0.1h4c1,0,1.9,0,2.4-0.1c0.1,0.6,0.2,1.2,0.2,1.9c0,0.5,0,1-0.1,1.5
			c-0.6-1.4-1.5-2.2-2.5-2.3c-0.5-0.1-1.1-0.1-1.9-0.1c-1,0-1.2,0.2-1.2,1.1c0,0.5-0.1,1.2-0.1,2.2v2.8c1.4,0,2.4,0,3-0.1
			C211.6,105.4,212.3,105,212.8,104.4"/>
		<path class="st0" d="M238.2,98.6c0.4,0,1,0.1,1.3,0.1c0.4,0,0.9-0.1,1.2-0.1h0.2c-0.4,0.5-0.8,1.2-1.2,2.3
			c-0.1,0.3-0.3,0.7-0.5,1.4c-0.2,0.6-0.3,1-0.4,1.1l-4.2,10.9l-4.3-11.5l-4.4,11.5l-4-10.9L221,101c-0.3-0.9-0.7-1.6-1.2-2.3h0.3
			c0.4,0,1.1,0.1,1.4,0.1c0.3,0,1-0.1,1.4-0.1h0.2c-0.3,0.4-0.5,0.8-0.5,1.3c0,0.4,0.4,1.6,1,3.5l2.5,7.1l2.7-7.1
			c0.4-1,0.6-2,0.6-2.8c0-0.7-0.3-1.3-1-2h0.4c0.4,0,1.1,0.1,1.4,0.1c0.3,0,1-0.1,1.4-0.1h0.2c-0.3,0.4-0.5,0.9-0.5,1.4
			c0,0.5,0.3,1.7,0.9,3.4l2.6,7l2.7-7c0.6-1.6,0.9-2.7,0.9-3.5c0-0.5-0.2-0.9-0.6-1.3H238.2z"/>
		<path class="st0" d="M253.9,109.2c0,0.7,0,1.5,0,2.4c0,1.2,0.3,1.7,1.1,2.3h-0.3c-0.1,0-0.4,0-0.8,0c-0.4,0-0.7-0.1-0.9-0.1
			s-0.5,0-1,0.1c-0.4,0-0.7,0-0.8,0H251c0.6-0.5,1-1.3,1-2.3c0-0.7,0.1-1.5,0.1-2.4v-6.4c0-1,0-1.8-0.1-2.2c-0.1-0.9-0.2-1-1.2-1
			c-0.5,0-1,0-1.5,0.1c-1.2,0.2-1.9,1-2.5,2.4c-0.1-0.5-0.1-1.2-0.1-2.1c0-0.6,0-1.1,0-1.4c0.6,0,1.4,0.1,2.5,0.1h7.6
			c1.1,0,1.9,0,2.5-0.1c0,0.3,0,0.7,0,1.4c0,0.9,0,1.5-0.1,2.1c-0.6-1.4-1.3-2.2-2.5-2.4c-0.5-0.1-1-0.1-1.5-0.1c-1,0-1.2,0.2-1.2,1
			c0,0.5-0.1,1.2-0.1,2.2V109.2z"/>
		<path class="st0" d="M278.1,111.4c-1,1.2-2.3,1.9-3.9,1.9c-1.8,0-3.2-0.7-4.5-2c-1.2-1.3-1.8-3.1-1.8-5.2c0-2.1,0.5-3.7,1.6-4.8
			c1-1.2,2.4-1.8,3.9-1.8c1.7,0,3.2,0.7,4.4,2c1.2,1.3,1.8,3.1,1.8,5.1C279.6,108.6,279.1,110.2,278.1,111.4 M279.4,100.6
			c-1.5-1.5-3.4-2.3-5.7-2.3c-2.2,0-4.1,0.8-5.6,2.3c-1.5,1.5-2.3,3.4-2.3,5.7c0,2.4,0.8,4.3,2.3,5.8c1.5,1.5,3.4,2.2,5.8,2.2
			c2.2,0,4-0.8,5.5-2.3c1.5-1.5,2.3-3.4,2.3-5.7C281.7,104,280.9,102.1,279.4,100.6"/>
		<path class="st0" d="M289.3,103.4c0-1.1,0-1.8-0.1-2.3c-0.1-1.1-0.4-1.9-1-2.5h0.3c0.4,0,1.3,0.1,2.1,0.1l9.9,11.6v-6.9
			c0-0.9,0-1.7-0.1-2.4c-0.1-1.1-0.3-1.9-0.8-2.3h0.2c0.3,0,1,0.1,1.3,0.1c0.3,0,1-0.1,1.3-0.1h0.2c-0.5,0.6-0.8,1.4-0.9,2.3
			c0,1,0,1.8,0,2.4v7.4c0,1.5,0,2.7,0.1,3.7l-11.3-13.2v7.9c0,0.7,0,1.5,0,2.4c0,1,0.3,1.8,0.8,2.3h-0.2c-0.3,0-1-0.1-1.3-0.1
			c-0.3,0-1,0.1-1.3,0.1h-0.2c0.5-0.5,0.7-1.3,0.8-2.3c0-0.7,0.1-1.5,0.1-2.4V103.4z"/>
		<path class="st0" d="M127.5,105.7c0,0-1.3-3.4-1.3-3.4l-2.4,5.8l-0.4,0.9l-0.2,0.4c-0.6,1.7-0.9,2.8-0.9,3.4c0,0.5,0.2,1,0.6,1.4
			h-0.2c-0.4,0-1-0.1-1.3-0.1c-0.4,0-1,0.1-1.3,0.1h-0.2c0.4-0.6,0.8-1.4,1.2-2.4c0.2-0.6,0.6-1.4,1-2.5l4.5-11l4.3,11
			c0.4,1.1,0.8,1.9,1,2.5c0.5,1.2,0.9,2,1.2,2.4h-0.3c-0.4,0-1.1-0.1-1.5-0.1c-0.3,0-1,0.1-1.5,0.1h-0.2c0.3-0.4,0.4-0.8,0.4-1.2
			c0-0.3-0.1-0.7-0.2-1.1c-0.1-0.3-0.1-0.4-0.3-0.8l-0.2-0.5c-0.1-0.2-0.3-0.9-0.4-1.2l-0.2-0.4l-0.4-0.9l-0.4-1L127.5,105.7z"/>
		<path class="st0" d="M145.6,109.2c0,0.7,0,1.5,0,2.4c0,1.2,0.3,1.7,1.1,2.3h-0.3c-0.1,0-0.4,0-0.8,0c-0.4,0-0.7-0.1-0.9-0.1
			c-0.2,0-0.5,0-1,0.1c-0.4,0-0.7,0-0.8,0h-0.3c0.6-0.5,1-1.3,1-2.3c0-0.7,0.1-1.5,0.1-2.4v-6.4c0-1,0-1.8-0.1-2.2
			c-0.1-0.9-0.2-1-1.2-1c-0.5,0-1,0-1.5,0.1c-1.2,0.2-1.9,1-2.5,2.4c-0.1-0.5-0.1-1.2-0.1-2.1c0-0.6,0-1.1,0-1.4
			c0.6,0,1.4,0.1,2.5,0.1h7.6c1.1,0,1.9,0,2.5-0.1c0,0.3,0,0.7,0,1.4c0,0.9,0,1.5-0.1,2.1c-0.6-1.4-1.3-2.2-2.5-2.4
			c-0.5-0.1-1-0.1-1.5-0.1c-1,0-1.2,0.2-1.2,1c0,0.5-0.1,1.2-0.1,2.2V109.2z"/>
		<path class="st0" d="M414,57.4c-4.5-5.7-9.3-13.3-14.5-22.6c2.2-0.8,4.2-1.9,5.9-3.5c3.5-3.2,5.3-7.3,5.3-12.7
			c0-10.5-8.2-17.2-20.9-17.2c-4.4,0-9.4,0.4-11.3,0.4c-1.9,0-5.3-0.5-6.3-0.5h-1.1c1.9,2,3.1,5.3,3.4,9.7c0.2,3,0.3,6.4,0.3,10.2
			v24.1c0,3.8-0.1,7.2-0.3,10.2c-0.3,4.4-1.5,7.7-3.4,9.7h1.1c1,0,4.4-0.5,6.3-0.5c1.9,0,5.2,0.5,6.2,0.5h1.1
			c-2.3-2.4-3.4-5.6-3.5-9.7c-0.1-4-0.2-7.3-0.2-10.2V18.8c0-4.4,0.1-7.4,0.3-9.3c0.3-3.7,1-4.5,5.1-4.5c9.7,0,15.7,4.6,15.7,13.7
			c0,9.9-5.4,14.9-16.4,14.9c-0.8,0-1.7-0.1-2.8-0.2c2.3,1.7,5.1,2.6,8.4,2.6c0.2,0,0.4,0,0.6,0c4.3,9.1,8.7,16.8,13.4,23.1
			c3.5,5,7.3,7.5,11.4,7.5c2.1,0,3.6-0.5,4.6-1.3C419.9,63.7,417.1,61.1,414,57.4"/>
		<path class="st0" d="M308.7,29.9c0,0-5.4-13.9-5.4-13.9l-9.8,23.7l-1.6,3.9l-0.6,1.8c-2.6,6.8-3.9,11.5-3.9,14c0,2,0.8,4,2.4,5.9
			h-1c-1.5,0-4.3-0.3-5.3-0.3c-1.4,0-4.3,0.3-5.3,0.3h-1c1.7-2.6,3.5-5.8,5.1-9.7c1-2.3,2.4-5.7,4.1-10.2L304.8,0l17.6,45.4
			c1.7,4.4,3.1,7.9,4.1,10.2c2.1,4.9,3.8,8.2,5.1,9.7h-1.4c-1.5,0-4.6-0.3-6-0.3c-1.4,0-4.2,0.3-6,0.3h-0.9c1.2-1.5,1.8-3.2,1.8-4.9
			c0-1.4-0.3-2.7-0.9-4.7c-0.4-1.2-0.4-1.6-1.1-3.4l-0.7-2c-0.3-1-1.3-3.5-1.7-4.9l-0.7-1.8l-1.5-3.9l-1.6-4L308.7,29.9z"/>
		<path class="st0" d="M237.6,18.7c0,5.4-1.7,9.5-5.3,12.7c-3.5,3.1-7.9,4.6-13.2,4.6c-3.4,0-6.2-0.9-8.4-2.6c1.1,0.1,2,0.2,2.8,0.2
			c11,0,16.4-5,16.4-14.9C230,9.6,224,5,214.3,5c-4.1,0-4.8,0.8-5.1,4.5c-0.2,1.9-0.3,5-0.3,9.3v26.5c0,2.8,0.1,6.2,0.2,10.2
			c0.1,4.1,1.3,7.3,3.5,9.7h-1.1c-1,0-4.3-0.4-6.2-0.4c-1.9,0-5.3,0.4-6.3,0.4h-1.1c1.9-2,3.1-5.3,3.4-9.7c0.2-3,0.3-6.3,0.3-10.2
			V21.2c0-3.7-0.1-7.2-0.3-10.2c-0.3-4.4-1.5-7.7-3.4-9.7h1.1c1,0,4.4,0.5,6.3,0.5c1.9,0,7-0.4,11.3-0.4
			C229.5,1.5,237.6,8.2,237.6,18.7"/>
		<path class="st0" d="M136.8,54.4c-4.3,5.2-9.6,7.7-16.2,7.7c-7.4,0-13.5-2.7-18.7-8.3c-5.1-5.5-7.6-12.7-7.6-21.7
			c0-8.5,2.2-15.2,6.5-20.1c4.4-4.9,9.8-7.3,16.4-7.3c7.3,0,13.4,2.8,18.4,8.4c5,5.5,7.5,12.7,7.5,21.3
			C143.2,42.6,141.1,49.3,136.8,54.4 M142.2,9.7c-6.3-6.3-14.2-9.5-23.7-9.5c-9.2,0-17,3.2-23.3,9.4c-6.4,6.3-9.5,14.2-9.5,23.8
			c0,9.8,3.2,17.8,9.4,23.9c6.3,6.2,14.3,9.3,24.2,9.3c9,0,16.6-3.2,22.9-9.4c6.3-6.3,9.4-14.2,9.4-23.8
			C151.7,23.9,148.5,16,142.2,9.7"/>
		<path class="st0" d="M28.8,21.2l-8.5,8.6c7.3,10.2,14.7,19.4,22.1,27.7c3.8,4.3,6.6,6.9,8.4,7.9c-1.2,0.8-2.7,1.2-4.6,1.2
			c-3.7,0-7.6-2.5-11.9-7.5C28.1,51.9,21,42.7,13.1,31.4l10.2-10.2c4.7-4.8,7.9-8.2,9.6-10.2c1.7-2.1,2.5-3.8,2.5-5
			c0-1.5-0.7-3-2.1-4.5h1.3c2.1,0,5.3,0.5,6.4,0.5s3.9-0.5,5.6-0.5H48l-9.2,9.5L28.8,21.2z"/>
		<path class="st0" d="M10.9,45.4c0,2.8,0.1,6.2,0.2,10.2c0.1,4.1,1.3,7.3,3.5,9.7h-1.1c-1,0-4.3-0.4-6.2-0.4
			c-1.9,0-5.3,0.4-6.3,0.4H0c1.9-2,3.1-5.3,3.4-9.7c0.2-3,0.3-6.3,0.3-10.2V21.2c0-3.7-0.1-7.2-0.3-10.2C3.1,6.6,1.9,3.4,0,1.4h1.1
			c1,0,4.4,0.5,6.3,0.5c1.9,0,5.2-0.5,6.2-0.5h1.1c-2.3,2.4-3.4,5.6-3.5,9.7c-0.1,4-0.2,7.3-0.2,10.2V45.4z"/>
		<path class="st0" d="M28.8,21.2l-8.5,8.6c7.3,10.2,14.7,19.4,22.1,27.7c3.8,4.3,6.6,6.9,8.4,7.9c-1.2,0.8-2.7,1.2-4.6,1.2
			c-3.7,0-7.6-2.5-11.9-7.5C28.1,51.9,21,42.7,13.1,31.4l10.2-10.2c4.7-4.8,7.9-8.2,9.6-10.2c1.7-2.1,2.5-3.8,2.5-5
			c0-1.5-0.7-3-2.1-4.5h1.3c2.1,0,5.3,0.5,6.4,0.5s3.9-0.5,5.6-0.5H48l-9.2,9.5L28.8,21.2z"/>
		<path class="st0" d="M10.9,45.4c0,2.8,0.1,6.2,0.2,10.2c0.1,4.1,1.3,7.3,3.5,9.7h-1.1c-1,0-4.3-0.4-6.2-0.4
			c-1.9,0-5.3,0.4-6.3,0.4H0c1.9-2,3.1-5.3,3.4-9.7c0.2-3,0.3-6.3,0.3-10.2V21.2c0-3.7-0.1-7.2-0.3-10.2C3.1,6.6,1.9,3.4,0,1.4h1.1
			c1,0,4.4,0.5,6.3,0.5c1.9,0,5.2-0.5,6.2-0.5h1.1c-2.3,2.4-3.4,5.6-3.5,9.7c-0.1,4-0.2,7.3-0.2,10.2V45.4z"/>
	</g>
</g>
</svg>
