<svg id="Layer_1" data-name="Layer 1" xmlns="http://www.w3.org/2000/svg" xmlns:xlink="http://www.w3.org/1999/xlink" viewBox="0 0 314.08 309.82"><defs><style>.cls-1{fill:url(#New_Gradient_Swatch);}.cls-2{fill:url(#New_Gradient_Swatch-2);}.cls-3{fill:url(#New_Gradient_Swatch-3);}.cls-4{fill:url(#New_Gradient_Swatch-4);}.cls-5{fill:url(#New_Gradient_Swatch-5);}.cls-6{fill:url(#New_Gradient_Swatch-6);}.cls-7{fill:url(#New_Gradient_Swatch-7);}.cls-8{fill:url(#New_Gradient_Swatch-8);}.cls-9{fill:url(#New_Gradient_Swatch-9);}.cls-10{fill:url(#New_Gradient_Swatch-10);}.cls-11{fill:url(#New_Gradient_Swatch-11);}.cls-12{fill:url(#New_Gradient_Swatch-12);}.cls-13{fill:url(#New_Gradient_Swatch-13);}.cls-14{fill:url(#New_Gradient_Swatch-14);}.cls-15{fill:url(#New_Gradient_Swatch-15);}.cls-16{fill:url(#New_Gradient_Swatch-16);}.cls-17{fill:url(#New_Gradient_Swatch-17);}.cls-18{fill:url(#New_Gradient_Swatch-18);}.cls-19{fill:url(#New_Gradient_Swatch-19);}.cls-20{fill:url(#New_Gradient_Swatch-20);}.cls-21{fill:url(#New_Gradient_Swatch-21);}</style><linearGradient id="New_Gradient_Swatch" x1="-109.98" y1="70.26" x2="369.66" y2="581.37" gradientUnits="userSpaceOnUse"><stop offset="0" stop-color="#db9b79"/><stop offset="0.05" stop-color="#db9b79"/><stop offset="0.25" stop-color="#a96847"/><stop offset="0.35" stop-color="#db9b79"/><stop offset="0.53" stop-color="#7d532c"/><stop offset="0.7" stop-color="#db9b79"/><stop offset="0.87" stop-color="#7d532c"/><stop offset="1" stop-color="#db9b79"/></linearGradient><linearGradient id="New_Gradient_Swatch-2" x1="-99.11" y1="60.07" x2="380.52" y2="571.18" xlink:href="#New_Gradient_Swatch"/><linearGradient id="New_Gradient_Swatch-3" x1="-86.42" y1="48.15" x2="393.21" y2="559.27" xlink:href="#New_Gradient_Swatch"/><linearGradient id="New_Gradient_Swatch-4" x1="-77.69" y1="39.96" x2="401.94" y2="551.08" xlink:href="#New_Gradient_Swatch"/><linearGradient id="New_Gradient_Swatch-5" x1="-70.06" y1="32.8" x2="409.58" y2="543.91" xlink:href="#New_Gradient_Swatch"/><linearGradient id="New_Gradient_Swatch-6" x1="-59.68" y1="23.06" x2="419.95" y2="534.17" xlink:href="#New_Gradient_Swatch"/><linearGradient id="New_Gradient_Swatch-7" x1="-135.27" y1="93.99" x2="344.37" y2="605.1" xlink:href="#New_Gradient_Swatch"/><linearGradient id="New_Gradient_Swatch-8" x1="-101.77" y1="62.56" x2="377.86" y2="573.67" xlink:href="#New_Gradient_Swatch"/><linearGradient id="New_Gradient_Swatch-9" x1="-74.42" y1="36.9" x2="405.21" y2="548.01" xlink:href="#New_Gradient_Swatch"/><linearGradient id="New_Gradient_Swatch-10" x1="-48.15" y1="12.24" x2="431.48" y2="523.35" xlink:href="#New_Gradient_Swatch"/><linearGradient id="New_Gradient_Swatch-11" x1="-19.18" y1="-14.94" x2="460.45" y2="496.17" xlink:href="#New_Gradient_Swatch"/><linearGradient id="New_Gradient_Swatch-12" x1="11.75" y1="-43.97" x2="491.38" y2="467.14" xlink:href="#New_Gradient_Swatch"/><linearGradient id="New_Gradient_Swatch-13" x1="55.18" y1="-35.97" x2="400.85" y2="346.46" xlink:href="#New_Gradient_Swatch"/><linearGradient id="New_Gradient_Swatch-14" x1="47.99" y1="-29.48" x2="393.66" y2="352.96" xlink:href="#New_Gradient_Swatch"/><linearGradient id="New_Gradient_Swatch-15" x1="46.9" y1="-28.49" x2="392.57" y2="353.94" xlink:href="#New_Gradient_Swatch"/><linearGradient id="New_Gradient_Swatch-16" x1="54.09" y1="-34.99" x2="399.76" y2="347.45" xlink:href="#New_Gradient_Swatch"/><linearGradient id="New_Gradient_Swatch-17" x1="41.99" y1="-24.05" x2="387.66" y2="358.39" xlink:href="#New_Gradient_Swatch"/><linearGradient id="New_Gradient_Swatch-18" x1="41.77" y1="-23.86" x2="387.45" y2="358.58" xlink:href="#New_Gradient_Swatch"/><linearGradient id="New_Gradient_Swatch-19" x1="60.1" y1="-40.42" x2="405.77" y2="342.02" xlink:href="#New_Gradient_Swatch"/><linearGradient id="New_Gradient_Swatch-20" x1="60.31" y1="-40.61" x2="405.98" y2="341.83" xlink:href="#New_Gradient_Swatch"/><linearGradient id="New_Gradient_Swatch-21" x1="51.04" y1="-32.23" x2="396.71" y2="350.2" xlink:href="#New_Gradient_Swatch"/></defs><title>home-stella-brand</title><path class="cls-1" d="M107.32,300.68a13.3,13.3,0,0,0,1.8,1.35c.75.51,1.27.88,1.57,1.13a6,6,0,0,1,.82.74,3.46,3.46,0,0,1,.9,2.38,3.17,3.17,0,0,1-1.18,2.58,4.59,4.59,0,0,1-3,1,8.66,8.66,0,0,1-3.33-.62c-.15-.75-.28-1.83-.42-3.26a4.72,4.72,0,0,0,.62-.14,8.36,8.36,0,0,0,.84,1.72,2.78,2.78,0,0,0,2.48,1.29,2,2,0,0,0,2.2-2,2.06,2.06,0,0,0-.52-1.46,11.28,11.28,0,0,0-2-1.67c-.8-.54-1.35-.95-1.67-1.22a5.13,5.13,0,0,1-.82-.86,3.25,3.25,0,0,1-.69-2.11,3,3,0,0,1,1.1-2.42,4.3,4.3,0,0,1,2.85-.95,7.24,7.24,0,0,1,3.31.8c0,.73,0,1.22,0,1.46s0,.71,0,1.44l-.58,0a5.18,5.18,0,0,0-.94-1.85,2.41,2.41,0,0,0-1.87-.92,2,2,0,0,0-2.09,2.06A2,2,0,0,0,107.32,300.68Z"/><path class="cls-2" d="M123.9,298.06a7.32,7.32,0,0,1,9.95,0,6.54,6.54,0,0,1,2,4.89,6.61,6.61,0,0,1-2,4.9,6.71,6.71,0,0,1-4.85,1.95,7.15,7.15,0,0,1-5.14-1.91,7,7,0,0,1,0-9.85Zm1.47.62a6.07,6.07,0,0,0-1.27,4.06,6.37,6.37,0,0,0,1.46,4.37,4.61,4.61,0,0,0,3.61,1.64,3.88,3.88,0,0,0,3.17-1.55,7.15,7.15,0,0,0-.21-8.31,4.44,4.44,0,0,0-3.54-1.69A4.08,4.08,0,0,0,125.37,298.68Z"/><path class="cls-3" d="M156,307.16a8.54,8.54,0,0,0,.75-1.8l.64.13c-.06,1.11-.19,2.23-.36,3.37a8.82,8.82,0,0,1-4.34,1,8.27,8.27,0,0,1-5.09-1.7,6.52,6.52,0,0,1-2.31-5.17,6.27,6.27,0,0,1,2.14-4.93,7.69,7.69,0,0,1,5.31-1.9,10.59,10.59,0,0,1,4.29.88l.06,1.51c0,.47,0,1-.06,1.54l-.64,0a4.35,4.35,0,0,0-.93-1.89,3.56,3.56,0,0,0-2.73-1,4.86,4.86,0,0,0-3.77,1.59,6,6,0,0,0-1.44,4.17,5.86,5.86,0,0,0,1.59,4.31,5.13,5.13,0,0,0,3.76,1.59A3.09,3.09,0,0,0,156,307.16Z"/><path class="cls-4" d="M170.05,305.44c0,.95,0,1.65.06,2.06.07.95.2,1.25.93,1.53l0,.51a30,30,0,0,0-3.79,0l0-.51c.69-.28.86-.63.91-1.53,0-.41.06-1.11.06-2.06v-5c0-1,0-1.63-.06-2.06-.05-.9-.22-1.25-.91-1.53l0-.51a30,30,0,0,0,3.79,0l0,.51c-.73.3-.86.61-.93,1.53,0,.43-.06,1.1-.06,2.06Z"/><path class="cls-5" d="M185.67,296.08h.7l3.42,9.38c.39,1,.66,1.7.81,2a3.21,3.21,0,0,0,1.23,1.55l0,.51c-.48,0-1.1-.06-1.83-.06s-1.44,0-2,.06l0-.51c.5-.22.63-.37.63-.73a15,15,0,0,0-.89-3h-4.27a9.15,9.15,0,0,0-.73,2.9c0,.39.19.6.73.8l-.06.51c-.48,0-1-.06-1.68-.06s-1,0-1.39.06l-.06-.51a2.76,2.76,0,0,0,1.22-1.53c.13-.28.4-1,.81-2.06Zm-.11,3.31-1.8,5h3.6Z"/><path class="cls-6" d="M203.93,305.51q0,1.49.06,2c.07.9.32,1.09,1.2,1.09a10.38,10.38,0,0,0,1.64-.11,2,2,0,0,0,1.37-.92A7.48,7.48,0,0,0,209,306l.67.14c-.09.85-.26,2-.54,3.48-1.18-.06-3.13-.1-5.82-.1-.9,0-1.63,0-2.17.06L201,309c.69-.28.86-.63.92-1.53,0-.41.05-1.11.05-2.06v-5c0-1,0-1.63-.05-2.06-.06-.9-.23-1.25-.92-1.53l.06-.51c.54,0,1.18.06,1.87.06s1.35,0,1.89-.06l.06.51c-.7.28-.87.63-.92,1.53,0,.43-.06,1.1-.06,2.06Z"/><path class="cls-7" d="M18.93,261.78a7,7,0,0,0-2.25-5.26A44,44,0,0,0,10.86,252c-2.55-1.7-4.27-3-5.22-3.68A15.72,15.72,0,0,1,3,245.7,9.44,9.44,0,0,1,1,239.59a9,9,0,0,1,3.32-7.08,13,13,0,0,1,8.55-2.83A21.33,21.33,0,0,1,22.55,232a20.94,20.94,0,0,1,.18,2.78,27.82,27.82,0,0,1-.53,6.05c-2.55-5.83-4.93-8.55-9.85-8.55-4.22,0-7.07,2.5-7.07,6.35a6.56,6.56,0,0,0,2.08,4.81,47.38,47.38,0,0,0,5.7,4.24q3.82,2.55,5.16,3.57a16.53,16.53,0,0,1,2.61,2.32,10.57,10.57,0,0,1,2.79,7.14c0,6.34-5.16,10.42-13,10.42a23.46,23.46,0,0,1-9.73-1.87A31,31,0,0,1,0,261.78c0-.45.06-1.52.18-3.22l1.48,3.28a25.36,25.36,0,0,0,1.55,2.6C5,267.28,7.12,268.3,11,268.58c4.69,0,7.89-2.89,7.89-6.8"/><path class="cls-8" d="M71,257.88c0,1.75.06,3.85.12,6.34A7,7,0,0,0,74,270.28H73.3c-.3,0-1-.06-2.08-.11a23.81,23.81,0,0,0-2.55-.18,25.46,25.46,0,0,0-2.61.18c-1.07.05-1.78.11-2.08.11h-.71a8.29,8.29,0,0,0,2.79-6.06c.12-1.87.17-4,.17-6.34V241.34c0-2.71,0-4.64-.17-5.83-.18-2.32-.54-2.72-3.33-2.72a30,30,0,0,0-4.09.29c-3.33.51-5.17,2.6-6.89,6.17a40.66,40.66,0,0,1-.29-5.32c0-1.64,0-2.78.11-3.52,1.55.12,3.8.18,6.71.18H78.94c2.9,0,5.16-.06,6.7-.18.06.74.12,1.88.12,3.52a40.37,40.37,0,0,1-.3,5.32c-1.72-3.57-3.56-5.66-6.88-6.17a30.18,30.18,0,0,0-4.1-.29c-2.79,0-3.14.4-3.32,2.72-.12,1.19-.18,3.12-.18,5.83Z"/><path class="cls-9" d="M135.73,245.36V246a49.54,49.54,0,0,0,0,7.31V254c-1.19-1.64-3.14-2.61-5.82-2.95-1.6-.17-4.27-.28-8.07-.28v7.64c0,1.87.06,3.91.18,6.18.06,2.66,1,3.28,3.8,3.28a51.59,51.59,0,0,0,6.29-.29c3-.39,5.28-2.71,6.89-7a15.72,15.72,0,0,1,.23,2.61,29.46,29.46,0,0,1-.94,7.13c-3.63-.17-9.86-.28-18.76-.28-1.25,0-3.44.17-4.1.17h-.71c1.25-1.25,2-3.29,2.2-6.06.12-1.87.17-4,.17-6.34V242.82c0-2.33,0-4.48-.17-6.34-.18-2.78-1-4.82-2.2-6.06h.71c.66,0,2.85.17,4.1.17h10.92c2.85,0,5-.06,6.59-.17a26.25,26.25,0,0,1,.47,4.92,30.2,30.2,0,0,1-.29,3.8c-1.73-3.57-4-5.61-6.77-6.06a38.61,38.61,0,0,0-5.1-.28c-2.8,0-3.15.39-3.33,2.71-.12,1.19-.18,3.12-.18,5.83v7.25c3.8,0,6.47-.11,8.07-.28a7.76,7.76,0,0,0,5.82-2.95"/><path class="cls-10" d="M177.63,258.44c0,1.87.06,3.91.18,6.18.06,2.65,1,3.28,3.8,3.28a54.4,54.4,0,0,0,6.29-.28c3.14-.46,5.16-3.17,6.88-7.76a13.56,13.56,0,0,1,.36,3.4,31.14,31.14,0,0,1-1.07,7.13c-3.62-.17-9.85-.28-18.75-.28-1.25,0-3.45.17-4.1.17h-.71c1.25-1.25,2-3.29,2.2-6.06.11-1.87.17-4,.17-6.34V242.82c0-2.32-.06-4.48-.17-6.35-.18-2.77-1-4.81-2.2-6.05h.71c.65,0,2.85.28,4.1.28s3.38-.28,4-.28h.72a8.44,8.44,0,0,0-2.32,6.05c-.06,2.5-.12,4.59-.12,6.35Z"/><path class="cls-11" d="M232.11,258.44c0,1.87.06,3.91.18,6.18.06,2.65,1,3.28,3.8,3.28a54.28,54.28,0,0,0,6.29-.28c3.15-.46,5.16-3.17,6.88-7.76a13.56,13.56,0,0,1,.36,3.4,31.14,31.14,0,0,1-1.07,7.13c-3.62-.17-9.85-.28-18.75-.28-1.25,0-3.44.17-4.1.17H225c1.25-1.25,2-3.29,2.2-6.06.12-1.87.17-4,.17-6.34V242.82c0-2.32-.05-4.48-.17-6.35-.18-2.77-.95-4.81-2.2-6.05h.71c.66,0,2.85.28,4.1.28s3.38-.28,4-.28h.72a8.44,8.44,0,0,0-2.32,6.05c-.06,2.5-.12,4.59-.12,6.35Z"/><path class="cls-12" d="M288.08,256.74l-.42,1.14c-1.72,4.24-2.55,7.19-2.55,8.72a5.52,5.52,0,0,0,1.6,3.68h-.65c-1,0-2.79-.17-3.44-.17-.95,0-2.79.17-3.44.17h-.66a37.11,37.11,0,0,0,3.33-6.06c.65-1.42,1.54-3.57,2.67-6.34l12.05-28.31,11.51,28.31c1.13,2.77,2,4.92,2.67,6.34a28.46,28.46,0,0,0,3.33,6.06h-.9c-1,0-3-.17-3.91-.17s-2.73.17-3.92.17h-.59a4.89,4.89,0,0,0,1.18-3.06,8.89,8.89,0,0,0-.59-2.94c-.24-.74-.3-1-.71-2.1l-.48-1.25c-.17-.62-.83-2.2-1.12-3.05l-.48-1.14-.95-2.43-6.05-14.78-6.41,14.78"/><path class="cls-13" d="M172.67,99.47,158.42,85.23s9.81,1,13.92,3.16,6,4.27,6,7.18S175.12,100.27,172.67,99.47Z"/><path class="cls-14" d="M171.47,100.67,157.23,86.42s1.05,9.81,3.16,13.92,4.27,6,7.18,6S172.27,103.12,171.47,100.67Z"/><path class="cls-15" d="M141.41,70.6l14.24,14.25s-9.81-1-13.92-3.16-5.95-4.27-5.95-7.18S139,69.81,141.41,70.6Z"/><path class="cls-16" d="M142.6,69.41l14.25,14.24s-1-9.81-3.16-13.91-4.27-6-7.19-6S141.81,67,142.6,69.41Z"/><path class="cls-17" d="M142.6,100.67l14.25-14.25s-1,9.81-3.16,13.92-4.27,6-7.19,6S141.81,103.12,142.6,100.67Z"/><path class="cls-18" d="M141.41,99.47l14.24-14.24s-9.81,1-13.92,3.16-5.95,4.27-5.95,7.18S139,100.27,141.41,99.47Z"/><path class="cls-19" d="M171.47,69.41,157.23,83.65s1.05-9.81,3.16-13.91,4.27-6,7.18-6S172.27,67,171.47,69.41Z"/><path class="cls-20" d="M172.67,70.6,158.42,84.85s9.81-1,13.92-3.16,6-4.27,6-7.18S175.12,69.81,172.67,70.6Z"/><path class="cls-21" d="M157,0a85,85,0,1,0,85,85A85,85,0,0,0,157,0Zm50.05,117.31V135.1H189.31a33.34,33.34,0,0,1-64.54,0H107V117.31a33.34,33.34,0,0,1,0-64.54V35h17.79a33.34,33.34,0,0,1,64.54,0h17.78V52.77a33.34,33.34,0,0,1,0,64.54Z"/></svg>