<svg xmlns="http://www.w3.org/2000/svg" x="0px" y="0px" width="24" height="24" viewBox="0 0 172 172"
  style=" fill:#d99a78;">
  <g fill="none" fill-rule="nonzero" stroke="none" stroke-width="1" stroke-linecap="butt" stroke-linejoin="miter"
    stroke-miterlimit="10" stroke-dasharray="" stroke-dashoffset="0" font-family="none" font-weight="none"
    font-size="none" text-anchor="none" style="mix-blend-mode: normal">
    <path d="M0,172v-172h172v172z" fill="none"></path>
    <g id="original-icon" fill="#d99a78">
      <path
        d="M44.72,10.32c-18.95899,0 -34.4,15.44101 -34.4,34.4v82.56c0,18.95899 15.44101,34.4 34.4,34.4h82.56c18.95899,0 34.4,-15.44101 34.4,-34.4v-82.56c0,-18.96206 -15.44147,-34.4 -34.4,-34.4zM44.72,17.2h82.56c15.24195,0 27.52,12.2747 27.52,27.52v82.56c0,15.24149 -12.27851,27.52 -27.52,27.52h-82.56c-15.24149,0 -27.52,-12.27851 -27.52,-27.52v-82.56c0,-15.24149 12.27851,-27.52 27.52,-27.52zM105.58515,48.16c-12.3903,0 -22.49437,10.14324 -22.49437,22.54813c0,0.08957 0.03256,0.17262 0.03359,0.26203c-13.12126,-1.74962 -24.73152,-8.24151 -32.70687,-18.04656c-0.71322,-0.87666 -1.81152,-1.34713 -2.93819,-1.2586c-1.12667,0.08852 -2.13801,0.72475 -2.70556,1.70204c-1.93587,3.33602 -3.03687,7.22269 -3.03688,11.33453c0,3.66337 1.01648,7.07344 2.57328,10.14531c-1.59033,0.33667 -2.72797,1.74052 -2.72781,3.3661v0.24188c0,6.66879 3.1096,12.44551 7.72656,16.58187c-0.94877,0.91045 -1.29559,2.28207 -0.89359,3.53406c1.92072,5.99037 6.39373,10.6872 12.0064,13.33c-4.48731,2.10554 -9.29108,3.61469 -14.59312,3.61469c-1.41315,0 -2.78683,-0.07361 -4.13203,-0.23515c-1.59266,-0.19462 -3.10837,0.73754 -3.65322,2.2467c-0.54484,1.50916 0.02588,3.19457 1.37556,4.0622c8.95694,5.76779 19.6334,9.13078 31.0675,9.13078c18.47751,0 33.0781,-7.78007 42.83875,-18.87969c9.76065,-11.09961 14.82828,-25.42263 14.82828,-38.915c0,-0.40818 -0.01827,-0.8013 -0.02687,-1.20266c3.35202,-2.69652 6.5063,-5.67123 8.89562,-9.25844c0.80046,-1.21095 0.75473,-2.79403 -0.1143,-3.95675c-0.86903,-1.16273 -2.37435,-1.65489 -3.76241,-1.23012c0.56117,-1.09165 1.34714,-2.0444 1.72672,-3.23172c0.43671,-1.3626 -0.01557,-2.85325 -1.1358,-3.74346c-1.12023,-0.89021 -2.67452,-0.99411 -3.90326,-0.26091c-3.00601,1.78675 -6.3781,2.96842 -9.87656,3.78938c-3.9328,-3.35984 -8.82411,-5.67063 -14.37141,-5.67063zM105.58515,55.04c4.51105,0 8.54713,1.89693 11.395,4.945c0.81216,0.86595 2.0134,1.25197 3.17797,1.02125c0.53249,-0.10516 0.95959,-0.44589 1.48484,-0.5711c-0.07726,0.0483 -0.12341,0.13445 -0.20156,0.18141c-1.33592,0.80186 -1.96617,2.40144 -1.53626,3.89905c0.42991,1.49761 1.81265,2.51933 3.37048,2.49049c-0.24221,0.18538 -0.38467,0.4796 -0.63156,0.65844c-0.93625,0.67559 -1.4712,1.77577 -1.42438,2.92937c0.03268,0.77546 0.05375,1.55579 0.05375,2.33141c0,11.75034 -4.51911,24.6057 -13.10828,34.37312c-8.5892,9.76744 -21.10609,16.54156 -37.67875,16.54156c-5.70032,0 -11.06163,-1.15054 -16.16531,-2.88906c6.3538,-1.34308 12.36755,-3.58887 17.29406,-7.46453c1.14085,-0.8998 1.5934,-2.41932 1.13076,-3.79668c-0.46264,-1.37737 -1.74071,-2.31559 -3.19342,-2.34425c-4.874,-0.08851 -8.63342,-2.85033 -11.43531,-6.42312c1.03644,-0.13416 2.10949,-0.14345 3.09735,-0.41656c1.53839,-0.42136 2.58542,-1.84489 2.5294,-3.43896c-0.05602,-1.59407 -1.20038,-2.94059 -2.76456,-3.25292c-5.68144,-1.14885 -10.12065,-5.42974 -11.74437,-10.965c1.46478,0.35395 2.74919,1.14625 4.30672,1.19594c1.53289,0.04695 2.91176,-0.9264 3.3808,-2.38652c0.46905,-1.46012 -0.085,-3.05439 -1.35846,-3.90895c-4.19435,-2.81033 -6.94719,-7.58452 -6.94719,-13.04781c0,-1.12674 0.60383,-2.02285 0.82641,-3.07719c9.77022,9.69385 22.7701,16.12972 37.41,16.87078c1.08031,0.05415 2.12318,-0.40292 2.81551,-1.23399c0.69233,-0.83107 0.95351,-1.93935 0.70511,-2.9921c-0.26802,-1.1363 -0.40312,-2.32287 -0.40312,-3.56094c0,-8.69608 6.95187,-15.66813 15.61437,-15.66813z">
      </path>
    </g>
  </g>
</svg>