<svg id="Layer_1" data-name="Layer 1" xmlns="http://www.w3.org/2000/svg" xmlns:xlink="http://www.w3.org/1999/xlink" viewBox="0 0 193.04 309.82"><defs><style>.cls-1{fill:url(#New_Gradient_Swatch);}.cls-2{clip-path:url(#clip-path);}.cls-3{fill:url(#New_Gradient_Swatch-3);}.cls-4{fill:url(#New_Gradient_Swatch-4);}.cls-5{fill:url(#New_Gradient_Swatch-5);}.cls-6{fill:url(#New_Gradient_Swatch-6);}.cls-7{fill:url(#New_Gradient_Swatch-7);}.cls-8{fill:url(#New_Gradient_Swatch-8);}.cls-9{fill:url(#New_Gradient_Swatch-9);}.cls-10{fill:url(#New_Gradient_Swatch-10);}.cls-11{fill:url(#New_Gradient_Swatch-11);}.cls-12{fill:url(#New_Gradient_Swatch-12);}</style><linearGradient id="New_Gradient_Swatch" x1="-56.18" y1="-108.82" x2="388.94" y2="457.42" gradientUnits="userSpaceOnUse"><stop offset="0" stop-color="#db9b79"/><stop offset="0.05" stop-color="#db9b79"/><stop offset="0.25" stop-color="#a96847"/><stop offset="0.35" stop-color="#db9b79"/><stop offset="0.53" stop-color="#7d532c"/><stop offset="0.7" stop-color="#db9b79"/><stop offset="0.87" stop-color="#7d532c"/><stop offset="1" stop-color="#db9b79"/></linearGradient><clipPath id="clip-path"><path class="cls-1" d="M55.72,132.93V125.5l-7.48,0a18.39,18.39,0,0,1-18.33-18.29V62.9A18.4,18.4,0,0,1,48.24,44.61l7.48,0V37.14A18.34,18.34,0,0,1,74.1,18.89h44.83a18.34,18.34,0,0,1,18.39,18.25v7.43l7.48,0A18.39,18.39,0,0,1,163.12,62.9v44.27a18.38,18.38,0,0,1-18.32,18.29l-7.48,0v7.43a18.35,18.35,0,0,1-18.39,18.26H74.1a18.34,18.34,0,0,1-18.38-18.26M96.17,0C72.54,0,52.42,8.13,36,24.16S11.48,60.64,11.48,85c0,25.1,8.19,45.54,24.33,61.34s37,23.7,62.46,23.7c23.16,0,42.81-8.13,59-24.16,16.14-16.27,24.33-36.48,24.33-60.88s-8.19-44.61-24.33-60.64Q133,0,96.17,0Z"/></clipPath><linearGradient id="New_Gradient_Swatch-3" x1="-55.99" y1="-108.97" x2="389.13" y2="457.27" xlink:href="#New_Gradient_Swatch"/><linearGradient id="New_Gradient_Swatch-4" x1="-55.99" y1="-108.97" x2="389.13" y2="457.27" xlink:href="#New_Gradient_Swatch"/><linearGradient id="New_Gradient_Swatch-5" x1="-180.17" y1="-11.35" x2="264.95" y2="554.89" xlink:href="#New_Gradient_Swatch"/><linearGradient id="New_Gradient_Swatch-6" x1="-153.7" y1="-32.16" x2="291.42" y2="534.08" xlink:href="#New_Gradient_Swatch"/><linearGradient id="New_Gradient_Swatch-7" x1="-118.63" y1="-59.72" x2="326.49" y2="506.51" xlink:href="#New_Gradient_Swatch"/><linearGradient id="New_Gradient_Swatch-8" x1="-92.96" y1="-79.9" x2="352.15" y2="486.34" xlink:href="#New_Gradient_Swatch"/><linearGradient id="New_Gradient_Swatch-9" x1="-177.65" y1="-13.33" x2="267.47" y2="552.91" xlink:href="#New_Gradient_Swatch"/><linearGradient id="New_Gradient_Swatch-10" x1="-166.68" y1="-21.95" x2="278.44" y2="544.29" xlink:href="#New_Gradient_Swatch"/><linearGradient id="New_Gradient_Swatch-11" x1="-157.19" y1="-29.42" x2="287.93" y2="536.82" xlink:href="#New_Gradient_Swatch"/><linearGradient id="New_Gradient_Swatch-12" x1="-146.55" y1="-37.78" x2="298.57" y2="528.46" xlink:href="#New_Gradient_Swatch"/></defs><title>home-vita-brand</title><path class="cls-1" d="M55.72,132.93V125.5l-7.48,0a18.39,18.39,0,0,1-18.33-18.29V62.9A18.4,18.4,0,0,1,48.24,44.61l7.48,0V37.14A18.34,18.34,0,0,1,74.1,18.89h44.83a18.34,18.34,0,0,1,18.39,18.25v7.43l7.48,0A18.39,18.39,0,0,1,163.12,62.9v44.27a18.38,18.38,0,0,1-18.32,18.29l-7.48,0v7.43a18.35,18.35,0,0,1-18.39,18.26H74.1a18.34,18.34,0,0,1-18.38-18.26M96.17,0C72.54,0,52.42,8.13,36,24.16S11.48,60.64,11.48,85c0,25.1,8.19,45.54,24.33,61.34s37,23.7,62.46,23.7c23.16,0,42.81-8.13,59-24.16,16.14-16.27,24.33-36.48,24.33-60.88s-8.19-44.61-24.33-60.64Q133,0,96.17,0Z"/><g class="cls-2"><rect class="cls-3" x="11.48" width="170.08" height="170.08"/></g><path class="cls-4" d="M85.89,63.78A10.64,10.64,0,0,1,75.26,74.41V95.67A10.64,10.64,0,0,1,85.89,106.3h21.26a10.64,10.64,0,0,1,10.63-10.63V74.41a10.64,10.64,0,0,1-10.63-10.63Z"/><path class="cls-5" d="M18.22,261.41l7.54-18.34c1.72-4.25,2.61-7.14,2.61-8.72a5.5,5.5,0,0,0-1.6-3.68h.65c1,0,2.79.17,3.44.17.89,0,2.73-.17,3.44-.17H35a36.29,36.29,0,0,0-3.33,6.06c-.65,1.41-1.54,3.56-2.67,6.34L17.21,271.38,5.87,243.07c-1.12-2.78-2-4.93-2.66-6.34-.18-.29-.42-.85-.78-1.65a8.9,8.9,0,0,0-.71-1.69A13.45,13.45,0,0,0,0,230.67H.89c1,0,2.91.17,3.8.17s2.73-.17,3.92-.17H9.2A4.86,4.86,0,0,0,8,233.73c0,1.41,1,4.52,2.91,9.34Z"/><path class="cls-6" d="M70.92,258.13c0,1.75.06,3.85.12,6.34a8.45,8.45,0,0,0,2.32,6.06h-.72c-.65,0-2.79-.28-4-.28s-3.45.28-4.1.28H63.8c1.25-1.25,2-3.29,2.2-6.06.11-1.87.17-4,.17-6.34V243.07c0-2.32-.06-4.48-.17-6.34-.18-2.78-1-4.82-2.2-6.06h.71c.65,0,2.85.28,4.1.28s3.38-.28,4-.28h.72A8.45,8.45,0,0,0,71,236.73c-.06,2.49-.12,4.58-.12,6.34Z"/><path class="cls-7" d="M121.84,258.13c0,1.75.06,3.85.12,6.34a7,7,0,0,0,2.91,6.06h-.71c-.3,0-1-.06-2.08-.11a23.36,23.36,0,0,0-2.55-.17,24.94,24.94,0,0,0-2.61.17c-1.07.05-1.78.11-2.08.11h-.71a8.29,8.29,0,0,0,2.79-6.06c.12-1.87.17-4,.17-6.34V241.6c0-2.72,0-4.65-.17-5.84-.18-2.32-.54-2.71-3.33-2.71a30.1,30.1,0,0,0-4.09.28c-3.33.51-5.17,2.6-6.89,6.17a40.66,40.66,0,0,1-.29-5.32c0-1.64.05-2.77.11-3.51,1.55.11,3.8.17,6.71.17H129.8c2.9,0,5.16-.06,6.7-.17.06.74.12,1.87.12,3.51a42.5,42.5,0,0,1-.29,5.32c-1.73-3.57-3.57-5.66-6.89-6.17a30.26,30.26,0,0,0-4.1-.28c-2.79,0-3.14.39-3.32,2.71-.12,1.19-.18,3.12-.18,5.84Z"/><path class="cls-8" d="M167,257l-.41,1.13c-1.73,4.25-2.56,7.19-2.56,8.72a5.57,5.57,0,0,0,1.6,3.68H165c-1,0-2.79-.17-3.44-.17-1,0-2.79.17-3.44.17h-.66a36.7,36.7,0,0,0,3.33-6.06c.65-1.42,1.54-3.57,2.67-6.34l12.05-28.31L187,258.13c1.13,2.77,2,4.92,2.67,6.34a28.19,28.19,0,0,0,3.33,6.06h-.89c-1,0-3-.17-3.92-.17s-2.73.17-3.92.17h-.59a4.84,4.84,0,0,0,1.18-3.06,9.15,9.15,0,0,0-.59-2.94c-.24-.74-.29-1-.71-2.1l-.48-1.24c-.17-.63-.83-2.21-1.12-3.06l-.48-1.13-1-2.44-6-14.78-6.41,14.78"/><path class="cls-9" d="M72.13,305.76c0,1,0,1.66.06,2,.08.89.32,1.08,1.2,1.08a9.3,9.3,0,0,0,1.64-.11,2,2,0,0,0,1.37-.92,6.67,6.67,0,0,0,.75-1.65l.67.14c-.09.86-.26,2-.54,3.48-1.18-.06-3.13-.09-5.82-.09-.9,0-1.63,0-2.17,0l-.06-.5c.69-.29.86-.64.92-1.54,0-.41.06-1.1.06-2.06v-5c0-.95,0-1.63-.06-2.06-.06-.89-.23-1.25-.92-1.53l.06-.51c.54,0,1.18.06,1.87.06s1.35,0,1.89-.06l.06.51c-.7.28-.87.64-.92,1.53,0,.43-.06,1.11-.06,2.06Z"/><path class="cls-10" d="M89.87,305.68c0,1,0,1.65,0,2.06.08.95.21,1.25.94,1.54l-.06.5a29.8,29.8,0,0,0-3.78,0l0-.5c.69-.29.86-.64.91-1.54,0-.41.06-1.1.06-2.06v-5c0-.95,0-1.63-.06-2.06,0-.89-.22-1.25-.91-1.53l0-.51a29.8,29.8,0,0,0,3.78,0l.06.51c-.73.3-.86.61-.94,1.53,0,.43,0,1.11,0,2.06Z"/><path class="cls-11" d="M100.42,309.26c.69-.25.9-.6,1-1.52,0-.41,0-1.1,0-2.06v-5c0-.95,0-1.63-.06-2.06-.07-.92-.22-1.25-.91-1.53l0-.51c.55,0,1.18.06,1.9.06H106c.92,0,1.63,0,2.12-.06.14,1,.26,2,.33,2.94a5.08,5.08,0,0,0-.6.13,4.23,4.23,0,0,0-.78-1.36,2.31,2.31,0,0,0-1-.68,6.3,6.3,0,0,0-1.54-.13c-.88,0-1,.13-1,.9,0,.6-.06,1.25-.06,2v2.19a19.77,19.77,0,0,0,2-.07c.8-.1,1.08-.41,1.39-1.29l.54.09c0,.49-.06,1.05-.06,1.7s0,1.24.06,1.73l-.54.09c-.31-.88-.59-1.18-1.39-1.27a17.77,17.77,0,0,0-2-.1v2.23c0,1,0,1.65,0,2.06.05.95.26,1.27,1.14,1.52l-.06.52c-.54,0-1.25,0-2.1,0s-1.34,0-1.89,0Z"/><path class="cls-12" d="M117.74,309.78l0-.5c.69-.29.86-.64.91-1.54,0-.41.06-1.1.06-2.06v-5c0-.95,0-1.63-.06-2.06,0-.89-.22-1.25-.91-1.53l0-.51c.55,0,1.18.06,1.9.06h3.48c.91,0,1.63,0,2.11-.06.15,1,.26,2,.34,2.94l-.6.13a4.69,4.69,0,0,0-.84-1.48,2.41,2.41,0,0,0-1-.56,5.9,5.9,0,0,0-1.39-.13c-.88,0-1,.13-1,.9,0,.39-.06,1-.06,1.93v2.24c1,0,1.76,0,2.3-.07.81-.1,1.09-.41,1.39-1.29l.52.09c0,.49,0,1.05,0,1.7s0,1.24,0,1.73l-.52.09c-.3-.88-.58-1.18-1.39-1.27a20.68,20.68,0,0,0-2.3-.1v2.31c0,.86,0,1.53.07,2,.1.89.34,1.08,1.18,1.08a12.92,12.92,0,0,0,1.71-.09,1.87,1.87,0,0,0,1.33-.83,7,7,0,0,0,.71-1.55l.61.13a30.12,30.12,0,0,1-.52,3.28c-1.14-.06-3.05-.09-5.77-.09C119,309.73,118.29,309.74,117.74,309.78Z"/></svg>