<svg xmlns="http://www.w3.org/2000/svg" viewBox="0 0 815.43 164.48"><defs><style>.cls-1{fill:#231f20;}.cls-2{fill:#fff;}.cls-3{fill:#da1a32;}</style></defs><title>Asset 1</title><g id="Layer_2" data-name="Layer 2"><g id="Layer_1-2" data-name="Layer 1"><path class="cls-1" d="M329.78,132.43v-1.11H333l9.53-29.18h1.35L353,131.32h3.2v1.11H343.57v-1.11h4.14l-2.43-7.85h-8.61l-2.47,7.85h4.06v1.11Zm7.33-10.07h7.77L341.13,110Z"/><path class="cls-1" d="M357.62,132.43v-1.11h3.95v-27.4h-3.95V102.8h13.2v1.12h-4.15v27.4h5.22c5.07,0,6.86-3.77,7-8.87h1.23l-.39,10Z"/><path class="cls-1" d="M382.39,132.43v-1.11h3.95v-27.4h-3.95V102.8h13.19v1.12h-4.14v27.4h5.22c5.06,0,6.86-3.77,7-8.87h1.24l-.4,10Z"/><path class="cls-1" d="M428.77,111.14c-.84-4-3.23-7.89-7.54-7.89-7.41,0-7.06,7.58-7.06,14.1,0,5.86-.75,14.64,6.54,14.64,5.55,0,4.91-4.66,4.91-9.23h-4v-1.11h12.48v1.11h-2.79c-.08,6.52-4.47,10.33-10.13,10.33-4.5,0-7.14-1.68-10-5.49-2.08-2.75-2.84-6.44-2.84-9.94A17.75,17.75,0,0,1,412,106.84c2.31-3.06,5.11-4.7,8.73-4.7a10.09,10.09,0,0,1,6.7,2.3l1.6-1.86h.87v8.56Z"/><path class="cls-1" d="M446.28,131.32h4v1.11h-13v-1.11h3.94V103.91h-3.94V102.8h13.35c4.34,0,9.53.57,9.53,6.75,0,5-4.75,6.73-8.46,7.18v.09c6.22,1.06,7.62,4.79,7.62,12,0,1.55.12,3.33,4,2.53v1.07a12.68,12.68,0,0,1-3.39.53c-4,0-6.14-2.26-6.14-6.78,0-3.69-.56-6.44-1.6-7.41a5.26,5.26,0,0,0-3.63-1.6h-2.19Zm0-15.26h3.27c3.59,0,5.06-1.9,5.06-5.9,0-5-1.31-6.25-4.86-6.25h-3.47Z"/><path class="cls-1" d="M475.08,103.91v12.73c3.83,0,5.87-.67,6.06-5.41h1.12v12.38h-1.12c-.35-4.93-1.75-6-6.06-5.86v13.57h5.67c5.18,0,6.29-3.41,7.13-8.43H489l-.36,9.54H466v-1.11h4V103.91h-4V102.8h22l.24,8h-1.11c-.84-4.26-2.36-5.9-4.39-6.53a12.28,12.28,0,0,0-3.47-.35Z"/><path class="cls-1" d="M502.09,103.91v12.73c3.83,0,5.86-.67,6.06-5.41h1.11v12.38h-1.11c-.36-4.93-1.76-6-6.06-5.86v13.57h5.66c5.18,0,6.3-3.41,7.13-8.43H516l-.36,9.54H493v-1.11h4V103.91h-4V102.8h22l.25,8h-1.12c-.84-4.26-2.36-5.9-4.39-6.53a12.24,12.24,0,0,0-3.47-.35Z"/><polygon class="cls-1" points="542.69 133 541.5 133 524.59 104.8 524.59 131.32 528.5 131.32 528.5 132.43 519.41 132.43 519.41 131.32 523.32 131.32 523.32 103.92 519.41 103.92 519.41 102.8 529.61 102.8 541.42 122.19 541.42 103.92 537.59 103.92 537.59 102.8 546.68 102.8 546.68 103.92 542.69 103.92 542.69 133"/><path class="cls-1" d="M559.9,102.8h12.88c5.06,0,11.12,1.16,11.12,8.16,0,6.21-5.82,8-10.41,8H569v12.33h4.22v1.11H559.9v-1.11h4V103.91h-4Zm13.72,15.08c3.86,0,4.66-3.32,4.66-7,0-3.2-.2-7-4.66-7H569v14Z"/><path class="cls-1" d="M596.08,131.32H600v1.11H587v-1.11H591V103.91H587V102.8h13.35c4.35,0,9.53.57,9.53,6.75,0,5-4.74,6.73-8.45,7.18v.09c6.22,1.06,7.61,4.79,7.61,12,0,1.55.13,3.33,3.95,2.53v1.07a12.56,12.56,0,0,1-3.39.53c-4,0-6.13-2.26-6.13-6.78,0-3.69-.56-6.44-1.6-7.41a5.3,5.3,0,0,0-3.63-1.6h-2.19Zm0-15.26h3.27c3.59,0,5.06-1.9,5.06-5.9,0-5-1.31-6.25-4.87-6.25h-3.46Z"/><path class="cls-1" d="M616.39,116.86c0-7.32,5.78-14.72,12.44-14.72s12.39,7.4,12.39,14.72c0,8.12-4.51,16.23-12.39,16.23s-12.44-8.11-12.44-16.23m19-4.7a15.53,15.53,0,0,0-.6-4.44c-.79-2.7-2.43-4.47-5.93-4.47s-5.27,1.77-6,4.47a17.08,17.08,0,0,0-.6,4.44v9.67a22.22,22.22,0,0,0,.44,5c.72,3.06,2.39,5.18,6.15,5.18s5.42-2.12,6.13-5.18a22.26,22.26,0,0,0,.4-5Z"/><path class="cls-1" d="M645.31,102.8h12.87c5.06,0,11.13,1.16,11.13,8.16,0,6.21-5.83,8-10.41,8h-4.54v12.33h4.22v1.11H645.31v-1.11h3.94V103.91h-3.94ZM659,117.88c3.87,0,4.66-3.32,4.66-7,0-3.2-.2-7-4.66-7h-4.66v14Z"/><path class="cls-1" d="M681.08,103.91v12.73c3.82,0,5.86-.67,6.06-5.41h1.12v12.38h-1.12c-.35-4.93-1.75-6-6.06-5.86v13.57h5.66c5.18,0,6.3-3.41,7.14-8.43H695l-.36,9.54H672v-1.11h4V103.91h-4V102.8h22l.24,8h-1.12c-.84-4.26-2.35-5.9-4.39-6.53a12.21,12.21,0,0,0-3.46-.35Z"/><path class="cls-1" d="M708.49,131.32h4v1.11h-13v-1.11h3.95V103.91h-3.95V102.8H712.8c4.34,0,9.52.57,9.52,6.75,0,5-4.74,6.73-8.45,7.18v.09c6.22,1.06,7.61,4.79,7.61,12,0,1.55.13,3.33,3.95,2.53v1.07A12.56,12.56,0,0,1,722,133c-4,0-6.13-2.26-6.13-6.78,0-3.69-.56-6.44-1.6-7.41a5.3,5.3,0,0,0-3.63-1.6h-2.19Zm0-15.26h3.27c3.59,0,5.06-1.9,5.06-5.9,0-5-1.31-6.25-4.86-6.25h-3.47Z"/><path class="cls-1" d="M732.71,132.43v-1.11h4.18v-27.4c-5.62-.32-7.33,2.7-8,8.37h-1.28l.44-9.49h22.85l.43,9.49h-1.23c-.72-5.67-2.44-8.69-8.06-8.37v27.4h4.19v1.11Z"/><polygon class="cls-1" points="763.42 131.32 767.37 131.32 767.37 132.43 754.37 132.43 754.37 131.32 758.32 131.32 758.32 103.91 754.37 103.91 754.37 102.8 767.37 102.8 767.37 103.91 763.42 103.91 763.42 131.32"/><path class="cls-1" d="M779.49,103.91v12.73c3.83,0,5.87-.67,6.06-5.41h1.12v12.38h-1.12c-.35-4.93-1.74-6-6.06-5.86v13.57h5.67c5.18,0,6.3-3.41,7.13-8.43h1.16l-.36,9.54H770.41v-1.11h4V103.91h-4V102.8h22l.24,8h-1.11c-.84-4.26-2.35-5.9-4.39-6.53a12.28,12.28,0,0,0-3.47-.35Z"/><path class="cls-1" d="M799.49,132.7h-.68v-8.83H800c.83,4.21,3.11,8.12,7.34,8.12a6,6,0,0,0,5.93-6.21c0-4.13-3.31-4.93-6.29-6.08-.8-.32-1.6-.62-2.4-.89-3.71-1.24-5.54-4.34-5.54-8.56,0-4.66,3.11-8.11,7.26-8.11a8.11,8.11,0,0,1,5.82,2.21l1.51-1.77h.72V111h-1.27c-.44-4.21-2.92-7.71-6.9-7.71a5,5,0,0,0-4.95,5c0,3.41,2.11,3.77,4.59,4.52,1,.32,1.79.63,2.47.85a17.31,17.31,0,0,1,2.63,1c3.35,1.77,4.54,4.69,4.54,8.69,0,5.59-3.26,9.71-8.41,9.71a8.57,8.57,0,0,1-5.66-2.26Z"/><path class="cls-1" d="M342.44,57.64a54.84,54.84,0,0,0-10.2.57c-.4-.82-.79-1.65-1.19-2.46h13.54V36.66l-.23-5.35a30.67,30.67,0,0,1,6.7,2.51,1.31,1.31,0,0,1,0,.76l-1.88,1.51a7.73,7.73,0,0,0-.17,2.27V55.81h26.46l2.28-3c.22-.31.61-.06.84.06a30,30,0,0,1,3.8,3.91.88.88,0,0,1-.4.82h-26.8A47.44,47.44,0,0,0,370,76.23a62.77,62.77,0,0,0,13.67,6.92L383,84.29a6.08,6.08,0,0,0-7,2.39,32.52,32.52,0,0,1-6.17-4.35C362.16,75.85,357,67,353.94,57.64h-7V80.38c4.24-1.63,8.32-4,12.4-6l.46,1.07c-4.82,4-9.92,7.56-15,11.21-1,.7-1.47,1.9-2.27,2.65-.62,0-1-.88-1.3-1.38l-1.87-3.6a1,1,0,0,1,.06-.82,7.22,7.22,0,0,0,1.92-1.07c.69-.56,1.14-.82,1.14-3.52Zm27.82-19.15c-1.41.75-2.32,2.64-3.62,3.71a47.76,47.76,0,0,1-15.81,10.71c-.34-.12-.4-.63-.57-.94,6.63-4.6,13.31-11.22,17-19.09a40.41,40.41,0,0,1,5.1,4.54c0,1.19-1.36.81-2.1,1.07"/><path class="cls-1" d="M435.34,86a2.14,2.14,0,0,1-.84,1.45,12.66,12.66,0,0,1-3.4,1.77.64.64,0,0,1-.74-.63l.17-9.08V68.22A45,45,0,0,1,417,77c-.17-.31-.57-.75-.79-1.13,6.45-4.28,13.6-11.52,16.77-19H422a14.56,14.56,0,0,0-3.68.7l-1.65-2.52,16.95,0a25.47,25.47,0,0,0,2.09-5.6l-8.66.07a13,13,0,0,0-3.86.56l-1.64-2.4,14.62-.05a37.64,37.64,0,0,0,1.47-5.55H424.58a18.42,18.42,0,0,0-4.08.56l-1.7-2.39H438A74.44,74.44,0,0,0,439.26,31l6.91,2.28a.89.89,0,0,1,.23,1c-.74.81-2,1.06-2.21,2.2l-.79,3.84h13l2.77-4a.75.75,0,0,1,.74,0,59.7,59.7,0,0,1,4.82,4.72.65.65,0,0,1-.34,1.07H443.17c-.63,1.83-1,3.78-1.59,5.6l11.79-.05,2.54-3.47a.87.87,0,0,1,1.09.13,32.22,32.22,0,0,1,4.59,4.28.54.54,0,0,1-.4.88H441.07c-.8,2.21-1.3,3.53-2.21,5.55l20.8,0,2.6-3.84a.87.87,0,0,1,1-.06c1.76,1.58,2.73,2.39,4.88,4.54.28.44.17,1.13-.23,1.13H450.36A8,8,0,0,0,452,59.59a30.46,30.46,0,0,0,14.56,9.7A25.67,25.67,0,0,0,470,70.43l-.34,1.14c-2.6-.07-5.27.94-6.51,3.58a17.75,17.75,0,0,1-3.63-2.46,43.71,43.71,0,0,1-4.31-4L455.07,73l.06,10,.11,3.47c.11.7-1.14,1.45-1.93,2-1,.56-2.15,1-2.72.75l-.34-.5V84.41H435.34ZM438,56.88c-1,2-2.15,4-3.34,5.93l1,.75h14.56l.51-.5a28.49,28.49,0,0,1-2.83-6.18Zm12.24,8.5h-14.9v7.44h14.9Zm0,9.27h-14.9v7.94h14.9Z"/><path class="cls-1" d="M513.18,67.84a26.49,26.49,0,0,1-4,13.67c-1.46,2.4-3.56,4.29-6.68,6.88a2.63,2.63,0,0,1-.85-1,27.84,27.84,0,0,0,6.86-17.14c.11-4,.11-12.22-.18-17a29.37,29.37,0,0,1,5.05,2.77h17.74a56.06,56.06,0,0,0,4.64-12.16,38.14,38.14,0,0,1,5.73,2.52.72.72,0,0,1,.17.82c-.51.63-1.36.63-2,1.07a46.44,46.44,0,0,1-6.46,7.63l10.43.12,2.32-3a.83.83,0,0,1,.86.13A40.06,40.06,0,0,1,550.7,57c.11.31,0,.94-.41.82H513.18ZM509.38,43a26.65,26.65,0,0,0-3.91.7l-1.07-2.4h22.78A32.57,32.57,0,0,0,524.06,35a20,20,0,0,0-2.66-3.28l.68-.76A20.26,20.26,0,0,1,530,35.33a4.37,4.37,0,0,1,.9,3.28,6,6,0,0,1-1.3,2.71h15.07a18.54,18.54,0,0,1,2.83-3.21l.46.06,4,4c.23.19.17.63.12.88ZM522.59,55.5a1.28,1.28,0,0,1-1.47.19c-1.37-.57-1.09-2.46-1.76-3.59a20.61,20.61,0,0,0-3.86-6.43c.06-.32.46-.57.62-.82,2.78,1.51,6.24,2.83,7.72,6.24a4.64,4.64,0,0,1-1.25,4.41"/><path class="cls-1" d="M594.54,84.29a24.74,24.74,0,0,0-5.22.69,27.21,27.21,0,0,0-1.25-2.77l17.79.06V36.84l-.16-5a49.34,49.34,0,0,1,7.19,2.58.92.92,0,0,1,.23.76c-.91,1.2-3.4,1.26-2.84,3.53V82.33h7.32l0-46.31-.22-4a35.32,35.32,0,0,1,7.08,2.58.93.93,0,0,1,0,.94c-.74.83-2,.76-2.55,1.89V70.68c.06.06.12.06.22.06a153.64,153.64,0,0,0,7.38-21.35l.9-3.6A30.57,30.57,0,0,1,637,49.51c.84,1.45-1.25,1.32-1.93,2.21l-1,1.32c-3.4,7.24-7,14.3-12.13,20.73V82.4c3.29.19,6.57-.07,9.86,0,1-1.13,1.75-2.52,2.9-3.4l.39.06c1.42,1.51,2.95,2.84,4.19,4.41a.58.58,0,0,1-.34.82Zm6.85-12.6a2.06,2.06,0,0,1-1.64.82,1.42,1.42,0,0,1-1.08-.88,88.27,88.27,0,0,0-2.44-12.73,100.53,100.53,0,0,0-4.47-11.4,2.59,2.59,0,0,1,1.13-.76c2.89,4,7.82,10.71,10,16.76,1.08,3-.11,5.92-1.53,8.19"/><path class="cls-2" d="M264.39,88.82c0,21.75-14.68,41.33-38.87,54.87-23.09,12.92-54.94,20.57-91.2,20.57-25.55,0-49.87-5.81-70.15-12.29-7.58-2.42-14-4.76-21.88-7.39-5.78-1.92-10.44-4.89-15.16-8.07C16.53,129.36,8.07,119,3.9,109.24.45,101.22.14,95.94.14,89.1c0-15.34,7.21-30.16,20.74-41.91A113.42,113.42,0,0,1,46.76,30.41c.79-.39,2.59-1.18,3.4-1.56.65-.3,1.37-.9,2-1.19,22.47-10,50-15.54,80.69-15.54,1.78,0,5.32.06,5.32.06s1,1,2.39,2.87a7.88,7.88,0,0,0,4.66,2.63c5.05.38,17.39,1.66,24.83,2.67,15.94,2.13,34.6,5.44,34.6,5.44s5.77.33,7.79,1.16c32.66,13.62,51.92,35,51.92,61.87"/><path class="cls-3" d="M141.64,16.08C137.18,8.77,125.74.2,106.15,0,84.93-.07,65.93,9.93,50.27,28.8c21-8.64,40.37-13.44,65.56-13.44,8.86,0,18.53.05,25.81.72"/><path class="cls-1" d="M137.26,164.31c22.57,0,43.67-3.36,62-9.25H145.59a35.87,35.87,0,0,1-8.33,9.25"/><path class="cls-1" d="M149.12,115.65H256.56a53.46,53.46,0,0,0,2.78-4.93H146.61a38.75,38.75,0,0,1,2.51,4.93"/><path class="cls-1" d="M143.94,106.78H261a49.66,49.66,0,0,0,1.62-4.92H139.79a49.85,49.85,0,0,1,4.15,4.92"/><path class="cls-1" d="M135.6,97.91h128a44.62,44.62,0,0,0,.57-4.92H129.28a75.74,75.74,0,0,1,6.32,4.92"/><path class="cls-1" d="M104.72,80.18h159c-.28-1.67-.64-3.31-1.07-4.92H92.7c3.73,1.56,7.76,3.17,12,4.92"/><path class="cls-1" d="M151,142.25h77.21c2.64-1.57,5.19-3.21,7.58-4.93h-84a46.82,46.82,0,0,1-.84,4.93"/><path class="cls-1" d="M264.25,84.13H113.75c3.26,1.54,6.38,3.19,9.32,4.92H264.5s0-.06,0-.09c0-1.64-.11-3.25-.26-4.83"/><path class="cls-1" d="M152.23,130.54c0,1,0,1.91-.08,2.84h88.63c1.93-1.59,3.72-3.23,5.45-4.91H152.12c0,.69.11,1.37.11,2.07"/><path class="cls-1" d="M151.69,124.51h98.37c1.41-1.59,2.74-3.23,4-4.91H150.56a39.79,39.79,0,0,1,1.13,4.91"/><path class="cls-1" d="M147.81,151.11h62.31c3.76-1.52,7.33-3.17,10.78-4.91H149.85a43.18,43.18,0,0,1-2,4.91"/><path class="cls-1" d="M72.59,95c-1.26-.66-2.37-1.34-3.55-2H.1c.1,1.66.27,3.31.53,4.92H77.84C76.17,97,74.46,96,72.59,95"/><path class="cls-1" d="M43.27,66.39H5.72a52.9,52.9,0,0,0-2.2,4.93H45.63a37.49,37.49,0,0,1-2.36-4.93"/><path class="cls-1" d="M43.79,39.8H30.34c-2.28,1.56-4.42,3.21-6.5,4.92H42.16a40.49,40.49,0,0,1,1.63-4.92"/><path class="cls-1" d="M56.35,84.13H.34C.14,85.74,0,87.38,0,89.05H62.74a71.37,71.37,0,0,1-6.39-4.92"/><path class="cls-1" d="M41.32,48.67h-22c-1.68,1.59-3.31,3.21-4.81,4.91H40.94a38,38,0,0,1,.38-4.91"/><path class="cls-1" d="M41.12,57.54H11.31A59.09,59.09,0,0,0,8,62.45H42a34.32,34.32,0,0,1-.9-4.91"/><path class="cls-1" d="M82.75,146.2H46.57a60,60,0,0,0,17.9,3,52.68,52.68,0,0,0,18.28-3"/><path class="cls-1" d="M48.13,75.26h-46c-.47,1.61-.89,3.25-1.21,4.92H52.24a50.3,50.3,0,0,1-4.11-4.92"/><path class="cls-1" d="M50.27,28.79a132.22,132.22,0,0,0-13.68,7.05h9.06a48.88,48.88,0,0,1,4.62-7.05"/><path class="cls-1" d="M84.23,101.86H1.41A49.26,49.26,0,0,0,3,106.78H90.48a56.74,56.74,0,0,0-6.25-4.92"/><path class="cls-1" d="M95.61,137.32H28.24a73.34,73.34,0,0,0,8.46,4.93H90.61a23.65,23.65,0,0,0,5-4.93"/><path class="cls-1" d="M94.21,110.72H4.62a51.5,51.5,0,0,0,2.6,4.93H97.37a25.84,25.84,0,0,0-3.16-4.93"/><path class="cls-1" d="M98.82,119.6H9.73c1.19,1.69,2.48,3.34,3.84,4.91h86a22.89,22.89,0,0,0-.75-4.91"/><path class="cls-1" d="M99.38,128.47H17.25c1.76,1.73,3.64,3.36,5.57,4.91H98a18.82,18.82,0,0,0,1.41-4.91"/><path class="cls-1" d="M141.14,151.11c.66-1.65,1.23-3.31,1.69-4.91.39-1.34.73-2.66,1-3.95a43.49,43.49,0,0,0,.73-4.93c.12-1.32.19-2.64.18-3.94a37.81,37.81,0,0,0-.4-4.91,35.74,35.74,0,0,0-2.45-8.87,41.53,41.53,0,0,0-1.85-4,51.18,51.18,0,0,0-3-4.91c-.91-1.32-1.9-2.65-3-4-1.34-1.65-2.76-3.28-4.34-4.92-1.26-1.31-2.61-2.63-4-4s-3.19-2.89-4.93-4.36c-.25-.19-.52-.36-.75-.56-1.67-1.36-3.41-2.68-5.26-3.94-2.54-1.74-5.25-3.35-8-4.92q-3.57-2-7.2-3.95c-3.17-1.68-6.31-3.31-9.34-4.92-2.48-1.31-4.89-2.62-7.13-4-1.63-.94-3.12-1.91-4.56-2.89,1.62,1,3.42,2,5.32,2.89H261.42c-.6-1.68-1.28-3.31-2-4.92H75.75a35.24,35.24,0,0,1-3.16-2.58c-.44-.43-.71-.92-1.09-1.36H257.34c-1-1.69-2-3.32-3.16-4.92H68.48a17.45,17.45,0,0,1-1.09-4H251.13c-1.42-1.71-2.93-3.33-4.52-4.91H67.43a17,17,0,0,1,1.09-4H242.34c-2-1.71-4.06-3.36-6.23-4.91H71.5a12.61,12.61,0,0,1,4.42-4H230.14c-2.86-1.75-5.79-3.4-8.81-4.91H87.14A115.32,115.32,0,0,1,113.08,27h99.64c-.18-.08-.37-.17-.56-.24h.11c-6.8-1.48-55.13-9.25-72.73-9.39-20-.08-38.39,1.33-60.24,9.63-1.42.54-2.8,1-4.24,1.61a52.34,52.34,0,0,0-5,2.34,40.58,40.58,0,0,0-7.38,4.91,28.17,28.17,0,0,0-3.93,4,21.15,21.15,0,0,0-3,4.91,18,18,0,0,0-1.17,4,17.25,17.25,0,0,0-.19,4.91,17.69,17.69,0,0,0,.92,4,20.67,20.67,0,0,0,2.48,4.92,27.07,27.07,0,0,0,3.33,3.94c.37.36.71.72,1.1,1.07a42.81,42.81,0,0,0,5.54,3.85c2,1.23,4.29,2.54,6.75,4,2.67,1.53,5.53,3.16,8.45,4.92,2.09,1.26,4.19,2.56,6.27,3.95,2.34,1.55,4.61,3.19,6.78,4.92,1.6,1.26,3.13,2.58,4.56,3.94a48.7,48.7,0,0,1,4.46,4.92,33.6,33.6,0,0,1,2.69,4,25.5,25.5,0,0,1,2.29,4.92,23.18,23.18,0,0,1,.92,3.89v.06a41.92,41.92,0,0,1,.39,4.91c0,1.36,0,2.67-.08,4a35.4,35.4,0,0,1-.71,4.91,28.55,28.55,0,0,1-3.45,8.87,30,30,0,0,1-2.75,3.94,32.52,32.52,0,0,1-5.13,4.93A40.92,40.92,0,0,1,93,146.2a56.7,56.7,0,0,1-14.63,4.91q-2.55.52-5.31.87a21.88,21.88,0,0,1-9.14,0c2.66,1.09,5.47,2.14,8.4,3.13,18.82,6.4,42.64,10.48,62.28,9.18a88.31,88.31,0,0,0,4.9-9.18c.61-1.33,1.16-2.65,1.67-3.95"/></g></g></svg>