<?xml version="1.0" encoding="utf-8"?>
<!-- Generator: Adobe Illustrator 23.0.6, SVG Export Plug-In . SVG Version: 6.00 Build 0)  -->
<svg version="1.1" id="Layer_1" xmlns="http://www.w3.org/2000/svg" xmlns:xlink="http://www.w3.org/1999/xlink" x="0px"
	y="0px" viewBox="0 0 265.7 121" style="enable-background:new 0 0 265.7 121;" xml:space="preserve">
	<style type="text/css">
		.st0 {
			fill: #E8AD80;
			stroke: #E8AD80;
			stroke-miterlimit: 10;
		}
	</style>
	<path id="Path_1_1_" class="st0" d="M128.5,116.3l-0.1,0.1c-1.4,1-3,1.5-4.7,1.7l0,0c-2,0.2-4,0.3-6,0.2c0-1.2-0.1-4.4-0.1-9.7
	c0-5.1,0-8.1,0.1-9.3c0-0.6,0.4-1.1,0.9-1.2l0.1-0.1l-0.1-0.4l-0.2,0c-0.7,0.1-1.5,0.2-2.3,0.1c-0.8,0-1.5,0-2.3-0.1l-0.2,0
	l-0.1,0.4l0.1,0.1c0.5,0.2,0.9,0.7,0.9,1.2c0,1.1,0,4.2,0,9.3s0,8.1,0,9.3c0,0.6-0.4,1.1-0.9,1.2l-0.1,0.1l0.1,0.4l0.2,0
	c0.7-0.1,1.5-0.2,2.2-0.1h11.5l0-0.1c0.4-1,0.8-1.8,1.1-2.5l0.1-0.1L128.5,116.3z" />
	<path id="Path_2_1_" class="st0" d="M210.1,116.3l-0.1,0.1c-1.5,1.4-4.5,2-9,1.9c0-1.2-0.1-4.3-0.1-9.5c1.7-0.1,3.4,0,5,0.2
	c0.5,0.1,0.9,0.5,1,1l0.1,0.2l0.4-0.2l0-0.1c-0.1-0.6-0.1-1.1-0.1-1.7c0-0.6,0-1.1,0.1-1.7l0-0.1l-0.4-0.1l0,0.2
	c-0.2,0.7-0.8,1.2-1.5,1.2c-0.8,0.1-2.4,0.1-4.6,0.1c0-4.5,0-7.4,0.1-8.9c0.8,0,1.4-0.1,2-0.1c2.7,0,4.6,0.7,5.8,1.9l0.1,0.1
	l0.3-0.4l0-0.1c-0.3-0.8-0.5-1.6-0.6-2.5l0-0.2h-8.8c-0.6,0-1.2,0-1.8-0.1l-0.2,0l-0.1,0.4l0.1,0.1c0.5,0.2,0.7,0.7,0.7,1.2
	c0,1.1,0,4.2,0,9.3s0,8.1,0,9.3c0,0.5-0.3,1-0.7,1.2l-0.1,0.1l0.1,0.4l0.2,0c0.6-0.1,1.2-0.2,1.8-0.1h9.7l0-0.1
	c0.3-1,0.6-1.8,0.9-2.5l0-0.1L210.1,116.3z" />
	<path id="Path_3_1_" class="st0" d="M235.4,116.3l-0.1,0.1c-1.5,1.4-4.5,2-9,1.9c0-1.2-0.1-4.4-0.1-9.5c1.7-0.1,3.4,0,5,0.2
	c0.5,0.1,0.9,0.5,1,1l0.1,0.2l0.4-0.2l0-0.1c-0.1-0.6-0.1-1.1-0.1-1.7c0-0.6,0-1.1,0.1-1.7l0-0.1l-0.4-0.1l0,0.2
	c-0.2,0.7-0.8,1.2-1.5,1.2c-0.8,0.1-2.4,0.1-4.6,0.1c0-4.4,0-7.4,0.1-8.9c0.8,0,1.4-0.1,2-0.1c2.7,0,4.6,0.7,5.8,1.9l0.1,0.1
	l0.3-0.4l0-0.1c-0.3-0.8-0.5-1.6-0.6-2.5l0-0.2H225c-0.6,0-1.2,0-1.8-0.1l-0.2,0L223,98l0.1,0.1c0.5,0.2,0.7,0.7,0.7,1.2
	c0,1.2,0,4.4,0,9.3s0,8.1,0,9.3c0,0.5-0.3,1-0.7,1.2l-0.1,0.1l0.1,0.4l0.2,0c0.6-0.1,1.2-0.2,1.8-0.1h9.7l0-0.1
	c0.3-1,0.6-1.8,0.9-2.5l0-0.1L235.4,116.3z" />
	<path id="Path_4_1_" class="st0" d="M185.7,118.6l-0.2,0.1c-0.6,0.2-1.4-0.4-2.2-1.8l-2.5-4.7c-0.6-1.3-1.6-2.3-2.7-3.1
	c1.4-0.3,2.6-0.9,3.6-1.8c1.2-1.1,1.8-2.6,1.8-4.2c0-1.5-0.7-3-1.9-3.9c-1.7-1.2-3.8-1.8-5.9-1.6c-1.4,0-2.8,0-4.1,0.1l-0.1,0v0.4
	l0.1,0c0.3,0,0.7,0.2,0.7,1.1c0,1.1,0.1,4.2,0.1,9.3s0,8.1-0.1,9.3c0,0.5-0.3,1-0.8,1.2l-0.1,0v0.5l0.2-0.1c0.7-0.1,1.4-0.2,2.1-0.1
	c0.7,0,1.3,0,2,0.1l0.2,0l0.1-0.4l-0.1-0.1c-0.5-0.2-0.8-0.7-0.8-1.2c0-1.2-0.1-4-0.1-8.4c0.5,0,0.9,0,1.4,0c0.8,0.3,1.5,1.3,2.2,3
	c1.5,4,1.8,4.6,1.8,4.7l0,0c0.9,1.7,2,2.5,3.3,2.5c0.7,0,1.4-0.1,2-0.5l0.1-0.1L185.7,118.6z M175.1,98.8c3.9,0,5.7,1.5,5.7,4.4
	c0.1,1.5-0.5,3-1.6,3.9c-1,0.7-2.2,1-3.4,1c-0.3,0-0.5,0-0.7,0C175,103.2,175.1,100.1,175.1,98.8L175.1,98.8z" />
	<path id="Path_5_1_" class="st0" d="M15.1,118.6l-0.2,0.1c-0.6,0.2-1.4-0.4-2.2-1.8l-0.4-0.7c-0.7-1.3-1.4-2.6-2.1-3.9
	c-0.6-1.3-1.6-2.3-2.7-3.1c1.4-0.3,2.6-0.9,3.7-1.8c1.2-1.1,1.8-2.6,1.8-4.2c0-1.5-0.7-3-1.9-3.9c-1.7-1.2-3.8-1.8-5.9-1.6
	c-1.4,0-2.8,0-4.1,0.1l-0.1,0v0.4l0.2,0c0.3,0,0.7,0.2,0.7,1.1c0,1.2,0.1,4.4,0.1,9.3s0,8.1-0.1,9.3c0,0.5-0.3,1-0.8,1.2l-0.1,0v0.5
	l0.2-0.1c0.7-0.1,1.4-0.2,2.1-0.1c0.7,0,1.3,0,2,0.1l0.2,0l0.1-0.4l-0.1-0.1c-0.5-0.2-0.8-0.7-0.8-1.2c0-1.1-0.1-4-0.1-8.4
	c0.2,0,0.5,0,0.7,0c0.3,0,0.6,0,0.7,0c0.8,0.3,1.5,1.3,2.2,3c1.8,4.7,1.8,4.7,1.8,4.7c0.9,1.7,2,2.5,3.3,2.5c0.7,0,1.4-0.1,2-0.5
	l0.1-0.1L15.1,118.6z M10.2,103.2c0.1,1.5-0.5,3-1.6,3.9c-1,0.7-2.2,1-3.4,1c-0.3,0-0.5,0-0.7,0c0-4.9,0-8,0.1-9.3
	C8.3,98.8,10.2,100.3,10.2,103.2z" />
	<path id="Path_6_1_" class="st0" d="M264.9,97.6l-0.2,0c-0.4,0.1-0.8,0.1-1.3,0.1c-0.4,0-0.9,0-1.3-0.1l-0.2,0L262,98l0.1,0.1
	c0.5,0.3,0.7,0.7,0.7,1.2c0.1,3.5,0.2,6.6,0.2,9.3c0,3.2,0.1,5.4,0.1,6.6c-2.9-4.1-4.8-6.7-5.6-7.8l-6.8-9.7h-1.4
	c-0.5,0-0.9,0-1.4-0.1l-0.2,0l-0.1,0.4l0.1,0.1c0.5,0.3,0.9,0.8,0.8,1.4c0,1.1,0.1,4.1,0.1,9.1c0,2.7-0.1,5.8-0.2,9.3
	c0,0.5-0.3,1-0.7,1.2l-0.1,0.1l0.1,0.4l0.2,0c0.4-0.1,0.8-0.1,1.2-0.1c0.4,0,0.9,0,1.3,0.1l0.2,0l0.1-0.4l-0.1-0.1
	c-0.5-0.2-0.7-0.7-0.7-1.2c-0.1-3.5-0.2-6.6-0.2-9.3c0-3.9-0.1-6.6-0.1-8l13.7,19.5h0.7l-0.1-11.5c0-2.7,0.1-5.8,0.2-9.3
	c0-0.5,0.3-1,0.7-1.2L265,98L264.9,97.6z" />
	<path id="Path_7_1_" class="st0" d="M74.5,97.6l-0.2,0c-0.4,0.1-0.9,0.1-1.4,0.1c-0.5,0-1,0-1.5-0.1l-0.2,0L71.2,98l0.1,0.1
	c0.3,0.2,0.6,0.4,0.6,0.7c0,0.1,0,0.3-0.1,0.4c-0.9,1.8-2.1,3.8-3.4,6.1c-0.7,1.2-1.2,2-1.5,2.6c-0.5-0.9-1-1.7-1.4-2.5
	c-1.4-2.5-2.6-4.6-3.4-6.3c-0.1-0.1-0.1-0.2-0.1-0.4c0-0.1,0.1-0.3,0.8-0.7l0.1-0.1l-0.1-0.4l-0.2,0c-0.8,0.1-1.6,0.2-2.5,0.1
	c-0.7,0-1.3,0-2-0.1l-0.2,0L57.8,98l0.1,0.1c0.2,0.1,0.7,0.5,1.5,1.9l5.5,9.5c0,4.4,0,7.2-0.1,8.4c0,0.5-0.2,1-0.7,1.2l-0.1,0.1
	l0.1,0.4l0.2,0c0.6-0.1,1.2-0.2,1.8-0.1c0.6,0,1.2,0,1.8,0.1l0.2,0l0.1-0.4l-0.1-0.1c-0.5-0.2-0.7-0.7-0.7-1.2
	c0-1.2-0.1-4.1-0.1-8.6l2.2-3.7c2.1-3.5,3.2-5.5,3.4-5.8c0.4-0.7,0.9-1.2,1.5-1.6l0.1-0.1L74.5,97.6z" />
	<path id="Path_8_1_" class="st0" d="M150.7,120.1c-3.1,0.1-6.1-1-8.4-3.1c-2.3-2.1-3.6-5.2-3.5-8.4c-0.1-3.2,1.2-6.2,3.6-8.4
	c2.2-2.1,5.3-3.3,8.4-3.1c2.5,0,5,0.9,7,2.4l0.1,0l0.1,2.3l-0.5,0.1l-0.1-0.1c-1.5-2.1-4-3.4-6.6-3.4c-2.6-0.2-5.1,0.9-6.8,2.8
	c-1.8,2-2.7,4.7-2.5,7.3c-0.1,2.7,0.9,5.4,2.7,7.5c1.7,1.9,4.1,2.8,6.6,2.7c1.9,0,3.7-0.7,5.2-1.9v-5.6c0-0.4-0.3-0.7-0.9-1
	l-0.1-0.1l0.1-0.4l0.2,0c0.8,0.1,1.6,0.2,2.4,0.1c0.6,0,1.2,0,1.7-0.1l0.2,0v0.5l-0.1,0c-0.6,0.3-0.9,0.6-0.9,1v5.8l-0.1,0
	C156.3,119,153.5,120,150.7,120.1z" />
	<path id="Path_9_1_" class="st0" d="M44.7,100.2c-2.2-2.1-5.1-3.2-8.2-3.1c-3-0.1-6,1-8.2,3.1c-2.3,2.2-3.6,5.2-3.5,8.4
	c-0.1,3.2,1.2,6.2,3.5,8.4c2.2,2.1,5.1,3.2,8.2,3.1c3,0.1,5.9-1,8.2-3.1c2.3-2.2,3.6-5.2,3.5-8.4C48.3,105.4,47,102.4,44.7,100.2z
	 M42.9,116c-1.6,1.8-4,2.8-6.4,2.8c-2.4,0.1-4.7-0.9-6.4-2.7c-1.8-2-2.8-4.7-2.7-7.5c-0.1-2.7,0.8-5.4,2.7-7.5
	c1.6-1.8,3.9-2.8,6.4-2.7c2.4,0,4.7,0.9,6.4,2.7c1.8,2,2.8,4.7,2.7,7.5C45.7,111.3,44.7,114,42.9,116L42.9,116z" />
	<path id="Path_10_1_" class="st0" d="M101.8,119.1c-0.7-0.4-1.2-1.1-1.5-1.8c-0.6-1.5-1.7-4.3-3.3-8.4c-1.8-4.8-3.2-8.6-4.1-11.2
	l0-0.1h-0.6l0,0.1c-0.9,2.7-2.3,6.3-4.1,11.2c-1.6,4.2-2.7,7-3.4,8.7c-0.2,0.7-0.7,1.3-1.3,1.6l-0.1,0l0.1,0.4l0.2,0
	c0.5-0.1,1-0.1,1.5-0.1c0.5,0,1,0,1.4,0.1l0.2,0l0.1-0.4l-0.1-0.1c-0.5-0.3-0.7-0.5-0.7-0.8c0-0.1,0-0.3,0.1-0.4
	c0.7-2.1,1.3-3.8,1.8-5.3H96c1,2.7,1.7,4.4,1.9,5.3c0,0.1,0.1,0.2,0.1,0.4c0,0.3-0.2,0.5-0.7,0.8l-0.1,0.1l0.1,0.4l0.2,0
	c0.7-0.1,1.5-0.2,2.2-0.1c0.7,0,1.3,0,2,0.1l0.2,0l0.1-0.4L101.8,119.1z M95.5,111.4h-7.4c0.3-0.7,0.6-1.6,0.9-2.5
	c1.4-3.7,2.3-6.2,2.7-7.5l2.8,7.5L95.5,111.4z" />
	<path id="Path_11_1_" class="st0" d="M192.1,43.5c0-0.4-0.1-0.8-0.1-1.1c-0.3-1.5-0.9-2.9-1.8-4.2c-0.9-1.2-2-2.3-3.3-3
	c-1.3-0.7-2.7-1.2-4.2-1.4c-1.5-0.2-3,0-4.4,0.4c-0.4,0.1-0.8,0.3-1.2,0.4c0-0.1,0.1-0.3,0.1-0.4c0.1-0.6,0.2-1.3,0.2-1.9
	c0-1.3-0.2-2.6-0.6-3.9c-0.4-1.3-1.1-2.4-1.9-3.5c-0.8-1.1-1.7-2-2.8-2.8c-1.1-0.8-2.3-1.3-3.6-1.6c-1.3-0.3-2.6-0.4-3.9-0.3
	c-0.6,0.1-1.2,0.2-1.8,0.4c-0.1-0.2-0.1-0.5-0.2-0.7l-0.1-0.4l-0.1-0.4c-0.1-0.2-0.2-0.5-0.3-0.7c-0.2-0.5-0.5-0.9-0.8-1.4
	c-0.1-0.2-0.3-0.5-0.4-0.7l-0.5-0.6c-1.3-1.7-2.9-3.1-4.7-4.2c-0.5-0.3-0.9-0.5-1.4-0.7c-0.5-0.2-1-0.4-1.5-0.6s-1-0.3-1.5-0.5
	c-0.3-0.1-0.5-0.1-0.8-0.2l-0.8-0.1c-1-0.2-2.1-0.3-3.1-0.3l-0.4,0l-0.4,0l-0.8,0.1c-0.3,0-0.6,0.1-0.9,0.1
	c-0.2-0.4-0.3-0.8-0.5-1.2c-0.3-0.6-0.6-1.1-0.9-1.6c-0.7-1.1-1.6-2-2.6-2.8c-0.2-0.2-0.5-0.4-0.8-0.6l-0.8-0.5
	c-0.3-0.2-0.6-0.3-0.9-0.4c-0.1-0.1-0.3-0.1-0.4-0.2l-0.5-0.2c-1.2-0.4-2.5-0.6-3.8-0.6c-1.3,0-2.6,0.2-3.8,0.6l-0.5,0.2
	c-0.2,0.1-0.3,0.1-0.4,0.2c-0.3,0.1-0.6,0.3-0.9,0.4L126.5,3c-0.3,0.2-0.5,0.4-0.8,0.6c-1,0.8-1.8,1.7-2.6,2.8
	c-0.3,0.5-0.7,1.1-0.9,1.6c-0.2,0.4-0.4,0.8-0.5,1.2c-0.3,0-0.6-0.1-1-0.1L120,9.1l-0.4,0l-0.4,0c-1,0-2.1,0.1-3.1,0.3l-0.8,0.1
	c-0.3,0-0.5,0.1-0.8,0.2c-0.5,0.1-1,0.3-1.5,0.5c-0.5,0.2-1,0.4-1.5,0.6c-0.5,0.2-1,0.5-1.4,0.7c-1.8,1.1-3.5,2.5-4.7,4.2l-0.5,0.6
	c-0.1,0.2-0.3,0.5-0.4,0.7c-0.3,0.5-0.5,0.9-0.8,1.4c-0.1,0.2-0.2,0.5-0.3,0.7l-0.1,0.4l-0.1,0.4c-0.1,0.2-0.1,0.4-0.2,0.7
	c-0.6-0.2-1.2-0.3-1.8-0.4c-1.3-0.1-2.6,0-3.9,0.3c-1.3,0.3-2.5,0.9-3.6,1.6c-1.1,0.8-2,1.7-2.8,2.8c-0.8,1-1.5,2.2-1.9,3.5
	c-0.4,1.3-0.6,2.6-0.6,3.9c0,0.6,0.1,1.3,0.2,1.9c0,0.1,0.1,0.3,0.1,0.4c-0.4-0.2-0.8-0.3-1.2-0.4c-1.4-0.4-2.9-0.5-4.4-0.4
	c-1.5,0.2-2.9,0.6-4.2,1.4c-1.3,0.8-2.4,1.8-3.3,3c-0.9,1.2-1.5,2.7-1.8,4.2c-0.1,0.4-0.1,0.8-0.1,1.1c0,0.2,0,0.4,0,0.6
	c0,0.2,0,0.4,0,0.6c0.1,0.7,0.2,1.5,0.4,2.2c0.2,0.7,0.5,1.4,0.8,2.1c0.3,0.7,0.8,1.3,1.2,1.9c1.9,2.3,4.7,3.9,7.6,4.2
	c0.7,0.1,1.5,0.1,2.2,0.1l2.1-0.1l4.2-0.2c2.8-0.1,5.5-0.3,8.3-0.4s5.6-0.1,8.5-0.2c1.4,0,2.9,0,4.3-0.1l4.4-0.1
	c4.6-0.1,9.3-0.3,14.1-0.6c0,3.1,0,5.7,0,6.3c0,3.6-0.2,7.7-0.3,12.4c0,0.8-0.5,1.5-1.2,1.8l0,0.2c0.8-0.1,1.7-0.2,2.5-0.2
	c0.9,0,1.7,0.1,2.5,0.2l0-0.2c-0.7-0.3-1.2-1.1-1.2-1.8c-0.2-4.7-0.3-8.8-0.3-12.4c0-0.6,0-3.2,0-6.3c4.8,0.3,9.5,0.5,14.1,0.6
	l4.4,0.1c1.5,0,2.9,0.1,4.3,0.1c2.9,0,5.7,0.1,8.5,0.2s5.5,0.3,8.3,0.4l4.2,0.2l2.1,0.1c0.7,0,1.5,0,2.2-0.1c3-0.4,5.7-1.9,7.6-4.2
	c0.5-0.6,0.9-1.2,1.2-1.9c0.3-0.7,0.6-1.4,0.8-2.1c0.2-0.7,0.3-1.5,0.4-2.2c0-0.2,0-0.4,0-0.6C192.2,43.9,192.2,43.7,192.1,43.5z
	 M164.8,21.7c1.1,0,2.2,0.1,3.3,0.5c0.5,0.2,1,0.4,1.5,0.7c0.5,0.3,0.9,0.6,1.4,0.9c0.9,0.7,1.6,1.5,2.3,2.4
	c0.7,0.9,1.2,1.8,1.6,2.8c0.4,1,0.6,2.1,0.7,3.2c0,0.6,0,1.1,0,1.7c0,0.3,0,0.6-0.1,0.8l-0.1,0.4l0,0l-1,0.4l-3.9,1.5
	c-1.3,0.5-2.6,1-3.9,1.5l-3.9,1.5c-1.9,0.7-3.8,1.4-5.7,2.2l-3.1,1.2l-10.7,4.1l-5.4,2.1l-2.7,1c-0.4,0.2-0.9,0.3-1.3,0.5
	c0-0.7,0-1.4,0-2.1l0-10.4c4-2.4,8-4.7,12-7c4.2-2.4,8.4-4.8,12.6-7.2l3.2-1.8l0.8-0.4c0.1-0.1,0.2-0.1,0.4-0.2
	c0.1-0.1,0.2-0.1,0.4-0.1C163.7,21.9,164.3,21.8,164.8,21.7L164.8,21.7z M146.5,10.9c0.9,0.1,1.9,0.2,2.8,0.5l0.7,0.2
	c0.2,0,0.5,0.1,0.7,0.2c0.4,0.2,0.9,0.3,1.3,0.4c0.4,0.2,0.9,0.4,1.3,0.6c0.2,0.1,0.4,0.2,0.6,0.3l0.6,0.3c1.6,0.9,3.1,2.1,4.2,3.6
	l0.4,0.5c0.1,0.2,0.3,0.4,0.4,0.6c0.3,0.4,0.5,0.8,0.8,1.2c0.1,0.2,0.2,0.4,0.3,0.6l0.2,0.3l0.1,0.3c0.1,0.2,0.2,0.4,0.2,0.6
	l0.1,0.1l-0.4,0.2l-3.2,1.8c-4.2,2.4-8.4,4.8-12.7,7.1c-3.5,1.9-6.9,3.8-10.4,5.7l9.4-25.4C144.9,10.8,145.7,10.8,146.5,10.9
	L146.5,10.9z M124.7,7.4c0.7-0.9,1.4-1.6,2.3-2.3c0.4-0.3,0.9-0.6,1.3-0.9c0.2-0.1,0.5-0.2,0.7-0.3c0.1-0.1,0.2-0.1,0.4-0.2l0.4-0.1
	c1-0.3,2.1-0.5,3.1-0.5c1.1,0,2.1,0.2,3.1,0.5l0.4,0.1c0.1,0,0.2,0.1,0.4,0.2c0.2,0.1,0.5,0.2,0.7,0.3c0.5,0.3,0.9,0.5,1.3,0.9
	c0.9,0.6,1.6,1.4,2.3,2.3c0.3,0.4,0.7,0.9,0.9,1.4c0.1,0.2,0.3,0.5,0.4,0.7c0.1,0.2,0.2,0.3,0.2,0.5l-9.8,25.6L123.1,10
	C123.5,9.1,124,8.2,124.7,7.4L124.7,7.4z M104.5,21.1c0.1-0.2,0.2-0.4,0.2-0.6l0.1-0.3l0.2-0.3c0.1-0.2,0.2-0.4,0.3-0.6
	c0.2-0.4,0.5-0.8,0.8-1.2c0.1-0.2,0.3-0.4,0.4-0.6l0.4-0.5c1.2-1.4,2.6-2.7,4.2-3.6l0.6-0.3c0.2-0.1,0.4-0.2,0.6-0.3
	c0.4-0.2,0.8-0.4,1.3-0.6s0.9-0.3,1.3-0.4c0.2-0.1,0.5-0.1,0.7-0.2l0.7-0.2c0.9-0.2,1.9-0.4,2.8-0.5c0.8-0.1,1.6-0.1,2.4-0.1
	l9.4,25.4c-3.5-1.9-7-3.8-10.4-5.7c-4.2-2.3-8.4-4.7-12.7-7.1l-3.2-1.8l-0.4-0.2L104.5,21.1z M90.3,32.3c0.1-1.1,0.3-2.2,0.7-3.2
	c0.4-1,0.9-2,1.6-2.8c0.7-0.9,1.5-1.7,2.3-2.4c0.4-0.3,0.9-0.6,1.4-0.9c0.5-0.3,1-0.5,1.5-0.7c1-0.4,2.1-0.6,3.3-0.5
	c0.5,0,1.1,0.1,1.6,0.3c0.1,0,0.3,0.1,0.4,0.1c0.1,0.1,0.2,0.1,0.4,0.2l0.8,0.4l3.2,1.8c4.2,2.4,8.4,4.8,12.6,7.2c4,2.3,8,4.7,12,7
	l0,6.1c0,1.8,0,4.1,0,6.3c-0.4-0.2-0.8-0.3-1.2-0.5l-2.7-1l-5.4-2.1l-10.7-4.1l-3.1-1.2c-1.9-0.7-3.8-1.5-5.7-2.2l-3.9-1.5
	c-1.3-0.5-2.6-1-3.9-1.5l-3.9-1.5l-1-0.4l0,0l-0.1-0.4c0-0.3-0.1-0.6-0.1-0.8C90.3,33.4,90.3,32.8,90.3,32.3L90.3,32.3z M115.4,52.5
	l-3.8,0.2c-1.3,0.1-2.5,0.1-3.8,0.2c-2.6,0.1-5.2,0.3-7.8,0.3s-5.4,0.1-8,0.1l-4,0.1l-2,0c-0.6,0-1.2,0-1.9-0.1
	c-2.5-0.4-4.7-1.7-6.2-3.7c-0.7-1-1.3-2.1-1.6-3.3c-0.2-0.6-0.3-1.2-0.3-1.8c0-0.1,0-0.3,0-0.4c0-0.1,0-0.3,0-0.4
	c0-0.3,0.1-0.6,0.1-0.9c0.4-2.4,1.8-4.5,3.8-5.9c1-0.7,2.2-1.1,3.4-1.4c1.2-0.2,2.5-0.1,3.7,0.2c0.6,0.2,1.2,0.4,1.8,0.6l1.9,0.7
	l3.7,1.5c1.2,0.5,2.5,1,3.7,1.5l3.7,1.5c2,0.8,4.1,1.6,6.1,2.4l2.9,1.2l10.8,4.4l5.4,2.2l1.6,0.7C124.4,52.3,119.9,52.3,115.4,52.5
	L115.4,52.5z M189.8,44.5c-0.1,0.6-0.2,1.2-0.3,1.8c-0.3,1.2-0.8,2.3-1.6,3.3c-1.5,2-3.7,3.3-6.2,3.7c-0.6,0.1-1.2,0.1-1.9,0.1l-2,0
	l-4-0.1c-2.7-0.1-5.4,0-8-0.1s-5.3-0.2-7.8-0.3c-1.3-0.1-2.5-0.1-3.8-0.2l-3.8-0.2c-4.6-0.2-9-0.2-13.4-0.2l1.6-0.7l5.4-2.2
	l10.8-4.4l2.9-1.2c2-0.8,4-1.6,6.1-2.4l3.7-1.5c1.2-0.5,2.5-1,3.7-1.5l3.7-1.5l1.9-0.7c0.6-0.3,1.2-0.5,1.8-0.6
	c1.2-0.3,2.5-0.4,3.7-0.2c1.2,0.2,2.4,0.7,3.4,1.4c2,1.4,3.4,3.5,3.8,5.9c0,0.3,0.1,0.6,0.1,0.9c0,0.2,0,0.3,0,0.4
	C189.8,44.2,189.8,44.4,189.8,44.5L189.8,44.5z" />
</svg>