<?xml version="1.0" encoding="UTF-8"?>
<svg width="186px" height="83px" viewBox="0 0 186 83" version="1.1" xmlns="http://www.w3.org/2000/svg" xmlns:xlink="http://www.w3.org/1999/xlink">
    <title>Group</title>
    <g id="Page-1" stroke="none" stroke-width="1" fill="none" fill-rule="evenodd">
        <g id="A4" transform="translate(-133.000000, -246.000000)" fill="#FFFFFF" fill-rule="nonzero">
            <g id="Group" transform="translate(133.000000, 246.000000)">
                <path d="M3.9,63.1 L1.1,63.1 L1.1,64.1 L3.6,64.1 C3.9,64.1 4.1,64.1 4.4,64.3 C4.6,64.5 4.6,64.8 4.6,65 L4.6,65.5 C4.6,65.8 4.6,66 4.4,66.2 C4.2,66.4 3.9,66.4 3.6,66.4 L1.2,66.4 C0.9,66.4 0.7,66.4 0.4,66.2 C0.2,66 0.2,65.7 0.2,65.5 L0.2,65.2 L1,65.2 L1,65.8 L4,65.8 L4,64.7 L1.4,64.7 C1.1,64.7 0.9,64.7 0.6,64.5 C0.4,64.3 0.4,64 0.4,63.8 L0.4,63.4 C0.4,63.1 0.4,62.9 0.6,62.7 C0.8,62.5 1.1,62.5 1.4,62.5 L3.6,62.5 C3.9,62.5 4.1,62.5 4.3,62.7 C4.5,62.9 4.6,63.1 4.5,63.4 L4.5,63.6 L3.8,63.6 L3.9,63.1 L3.9,63.1 Z" id="Path_9"></path>
                <polygon id="Path_10" points="14.4 66.5 13.7 66.5 13.7 62.6 14.4 62.6"></polygon>
                <polygon id="Path_11" points="23 66.5 25 64.5 23 62.6 24 62.6 25.4 64 26.7 62.6 27.6 62.6 25.8 64.4 28 66.5 27 66.5 25.4 64.9 24 66.5"></polygon>
                <polygon id="Path_12" points="38.4 63.1 38.4 66.4 37.7 66.4 37.7 63.1 35.8 63.1 35.8 62.5 40.3 62.5 40.3 63.1"></polygon>
                <polygon id="Path_13" points="50.1 66.5 50.1 64.8 48 62.6 49 62.6 50.6 64.3 52.1 62.6 53 62.6 51 64.8 51 66.5"></polygon>
                <polygon id="Path_14" points="61.4 66.5 61.4 62.6 65.3 62.6 65.3 63.2 62.1 63.2 62.1 64.4 65.3 64.4 65.3 65 62.1 65 62.1 66.6"></polygon>
                <polygon id="Path_15" points="74.6 66.5 73.9 66.5 73.9 62.6 74.6 62.6"></polygon>
                <polygon id="Path_16" points="85.3 66.5 83 62.6 83.8 62.6 85.6 65.7 87.3 62.6 88 62.6 85.8 66.5"></polygon>
                <polygon id="Path_17" points="96.6 66.5 96.6 62.6 100.6 62.6 100.6 63.2 97.3 63.2 97.3 64.2 100.5 64.2 100.5 64.8 97.3 64.8 97.3 66 100.5 66 100.5 66.6"></polygon>
                <path d="M2.5,51.6 C1.9,51.6 1.2,51.4 0.8,50.9 C0.3,50.3 0.1,49.5 0.2,48.7 C0.2,47.8 0.4,46.8 0.7,46 C0.7,46 1.8,43.9 2.9,44.2 C3.8,44.5 3.7,44.7 4.4,44.7 C5.2,44.6 5.9,44.2 6.6,43.8 C7.7,42.9 8.8,41.9 9.8,40.9 C11.5,39.2 13,37.3 14.1,35.2 C14.8,34 16.4,30.3 19,24.3 C20.3,21.3 21.8,18.3 23.4,15.5 C24.9,12.8 25.9,10.9 26.4,10 C27.3,8.4 27.9,7.5 29.1,5.8 C29.9,4.5 30.9,3.2 31.9,2 C32.7,1.1 33.8,0.5 35,0.5 C36.9,0.5 37.8,1.9 37.8,4.5 C37.7,6.9 37.2,9.3 36.4,11.5 C34.9,15.4 33,19.2 30.7,22.8 C28.2,26.2 25.6,29.5 22.7,32.6 C19,36.7 17.3,40.3 17.3,43.4 C17.3,45.3 17.6,46.6 18.2,47.3 C18.9,48 19.8,48.4 20.8,48.4 C22.9,48.4 25,48 27,47.2 C29.7,46.1 38.1,42.1 38.1,42.1 L38.4,42.5 C37.1,43.9 35.6,45.2 34,46.4 C31.7,48.1 29.2,49.6 26.7,50.9 C24.8,51.9 22.8,52.4 20.7,52.5 C20,52.5 19.4,52.5 18.7,52.3 C16.7,52.1 15,50.6 14.6,48.6 C14.3,46.9 13.9,45.1 13.5,43.4 L12.4,44 C12.4,44 4.9,51.6 2.5,51.6 L2.5,51.6 Z M32.2,6.2 C31.7,6.7 31.3,7.3 31,7.9 C30.6,8.7 28.5,12.5 28.5,12.5 C28.1,13.4 27,15.4 25.4,18.4 C23.1,22.5 21.9,25.6 21.8,27.8 C23.4,26.7 24.8,25.3 25.9,23.7 C27.3,21.8 28.6,19.7 29.7,17.6 C31.3,14.2 34,10.5 34,6.8 C34,6.3 33.9,5.7 33.8,5.2 C33.8,5.2 33.2,5 32.2,6.2 L32.2,6.2 Z M69.4,6.2 C68.9,6.7 68.5,7.3 68.2,7.9 C67.8,8.7 65.7,12.5 65.7,12.5 C65.3,13.4 64.2,15.4 62.6,18.4 C60.3,22.5 59.1,25.6 59,27.8 C60.6,26.7 62,25.3 63.1,23.7 C64.5,21.8 65.8,19.7 66.9,17.6 C68.5,14.2 71.2,10.5 71.2,6.8 C71.2,6.3 71.1,5.7 71,5.2 C71,5.2 70.4,5 69.4,6.2 L69.4,6.2 Z M39.7,51.6 C39.1,51.6 38.4,51.4 38,50.9 C37.5,50.3 37.3,49.5 37.4,48.7 C37.4,47.8 37.6,46.8 37.9,46 C37.9,46 39,43.9 40.1,44.2 C41,44.5 40.9,44.7 41.6,44.7 C42.4,44.6 43.1,44.2 43.8,43.8 C44.9,42.9 46,41.9 47,40.9 C48.7,39.2 50.2,37.3 51.3,35.2 C52,34 53.6,30.3 56.2,24.3 C57.5,21.3 59,18.3 60.6,15.5 C62.1,12.8 63.1,10.9 63.6,10 C64.5,8.4 65.1,7.5 66.3,5.8 C67.1,4.5 68.1,3.2 69.1,2 C69.9,1.1 71,0.5 72.2,0.5 C74.1,0.5 75,1.9 75,4.5 C74.9,6.9 74.4,9.3 73.6,11.5 C72.1,15.4 70.2,19.2 67.9,22.8 C65.4,26.2 62.8,29.5 59.9,32.6 C56.2,36.7 54.5,40.3 54.5,43.4 C54.5,45.3 54.8,46.6 55.4,47.3 C56.1,48 57,48.4 58,48.4 C60.1,48.4 62.2,48 64.2,47.2 C66.9,46.1 75.3,42.1 75.3,42.1 L75.6,42.5 C74,43.7 72.6,45 71,46.1 C68.7,47.8 66.2,49.3 63.7,50.6 C61.8,51.6 59.8,52.1 57.7,52.2 C57,52.2 56.4,52.2 55.7,52 C53.7,51.8 52,50.3 51.6,48.3 C51.3,46.6 50.9,44.8 50.5,43.1 L49.6,44 C49.6,44 42.1,51.6 39.7,51.6 L39.7,51.6 Z M98.1,35.8 C98.3,36.7 98.9,37.6 99.7,38.1 C100.5,38.5 101.5,38.7 102.4,38.7 C103.4,38.6 104.2,38.6 104.7,38.6 C104.1,39.8 103.1,40.7 101.9,41.3 C100.5,42.1 99.3,42.8 98.1,43.5 C96.6,44.6 95,45.6 93.4,46.4 C91.7,47.2 90,47.9 88.2,48.6 C86,49.6 84.1,50.3 82.6,50.9 C81.5,51.4 80.3,51.6 79,51.7 C78.2,51.8 77.3,51.5 76.7,50.9 C76.1,50 75.8,49 75.9,48 C75.9,46.5 77,44.8 78.3,43.4 C79.5,42 84.3,37.7 88,35.9 C90.1,34.7 92.4,33.8 94.8,33.1 C95.3,33.4 95.9,33.7 96.5,33.7 C97.1,33.9 97.6,34.5 98.1,35.8 L98.1,35.8 Z M81,46.9 C81.8,47.1 82.6,47.2 83.4,47.2 C84.5,47.2 85.6,46.9 86.5,46.4 C87,46.2 87.7,45.8 88.7,45.2 C89.3,44.9 89.9,44.6 90.5,44.2 C91,43.9 91.5,43.5 91.9,43 C92.2,42.6 92.4,42.1 92.4,41.5 C92.3,40.4 92.1,39.2 91.8,38.1 C91.6,37.5 91.5,36.9 91.5,36.2 C88.8,38.1 86.8,39.6 85.4,40.7 C82.7,43 81.3,45 81,46.9 L81,46.9 Z M146.2,34.7 C146.3,35.7 146.1,36.6 145.6,37.5 C144.9,39.2 144.5,40.2 144.5,40.3 L152.2,42 C152.1,42.3 152,42.7 151.9,43 C151.8,43.4 151.7,43.7 151.6,44.1 C151.2,44.1 150.5,44.1 149.7,44 C148.8,43.9 148.2,43.9 147.8,43.9 C146.7,43.9 145.6,44 144.6,44.4 C143.7,44.8 142.9,45.4 142.3,46.3 C140.1,49.8 137.9,53.3 135.7,56.7 C135.1,57.4 134,59.2 131.9,61.6 C128.9,65.2 127.2,67.2 125.1,69.3 C122.7,71.7 120.6,73.9 119.3,75.2 C114.9,79.5 111.2,81.8 108,82.6 C107.7,82.7 107.4,82.7 107.2,82.7 C106.9,82.8 106.6,82.8 106.2,82.8 C105.1,82.8 104.5,82.3 104.5,81.3 C104.5,80.1 105.4,78.1 107.1,75.5 C108,74.1 109.3,72.3 110.8,70.4 C113.7,66.6 116.7,62.9 119.6,59.2 C122.6,55.5 125.9,52.1 129.6,49 C130.7,48.1 131.8,47.3 133,46.6 C134.2,45.9 135.4,45.2 136.6,44.7 C137.4,44.4 138.2,43.9 138.8,43.3 C139.2,42.9 139.4,42.3 139.4,41.7 C139.4,41 139.2,40.3 139.1,39.6 C136.3,42.2 133.4,44.6 130.4,46.8 C126.4,49.7 123,51.3 120.3,51.6 C119.9,51.7 119.5,51.7 119.1,51.7 C117.1,51.7 116,51 116,49.5 C116,48.9 116.2,48.3 116.5,47.8 C116.8,47.1 118.1,45.6 120.3,43.5 C121.2,42.7 121.9,41.7 122.5,40.7 C122.2,40.6 121.8,40.6 121.5,40.6 C119.1,40.7 116.8,41.4 114.7,42.6 C112.5,43.8 110.3,45 108.2,46.2 C105.8,47.7 103.4,49.2 101,50.7 C100.4,50.7 99.8,50.6 99.3,50.4 C99,50.1 98.8,49.8 98.8,49.4 C98.8,48.9 99,48.4 99.4,48 C99.7,47.6 100.1,47.2 100.5,46.9 C105.1,43.9 109.9,41.2 114.9,38.9 C118.1,37.5 121.4,36.5 124.8,35.8 C125,35.7 125.4,35.7 126,35.5 C126.5,35.4 126.9,35.3 127.4,35.3 C128.1,35.3 128.8,35.6 129.1,36.2 C129.4,36.7 129.6,37.3 129.7,37.9 C129.6,38.7 129.4,39.5 128.9,40.2 C128.1,41.4 127.4,42.7 127,44.1 C129.2,42.8 131.4,41.5 133.5,40 C134.1,39.6 137.5,36.9 143.6,32 C144.3,32.3 144.9,32.8 145.5,33.2 C145.9,33.6 146.2,34.2 146.2,34.7 L146.2,34.7 Z M112.7,71.4 C110.1,74.5 108.9,76.9 109.1,78.9002922 C109.6,78.9002922 111.5,79 115.3,75.5 C116.7,74.2 124.1,66.3 125.6,64.5 C127.2,62.7 128.1,61.6 130.9,58.5 C134.9,54 135.7,51.1 135.7,48 C132.5,50.2 129.4,52.7 126.4,55.3 C123.2,58.4 114.1,69.8 112.7,71.4 L112.7,71.4 Z M174.5,50.1 C173.6,50 172.7,49.6 172,49 C171.2,48.3 169.2,46 169.1,45.9 C168.4,46.3 164.5,48.1 162.6,49 C160.3,50.1 157.8,51.1 155.3,51.7 C154.7,51.9 154,52 153.4,52 C152,52 151.3,51.4 151.3,50.2 C151.3,49 152,47.4 153.3,45.5 C154.3,44 155.5,42.6 156.9,41.4 C158.8,40 160.9,39.1 163.2,38.6 C164,38.4 166.1,38.1 169.4,37.6 C172.8,37.1 175.6,34.2 177.7,29 C179.8,23.7 181.9,20.8 184,20.4 C184.7,22.3 185.3,24.3 185.7,26.3 C186,28.2 186,30.2 185.5,32.1 C185.3,32.9 184.9,33.7 184.5,34.5 C183.8,35.6 182.9,36.6 181.9,37.4 C180.2,38.8 178.5,40.2 176.8,41.5 C176,42.1 175.5,43.1 175.4,44.2 C175.4,45 176.2,45.5 177.8,45.7 C179.4,45.8 181,45.9 182.4,46 C182.1,47.4 181.4,48.6 180.2,49.5 C179,50.1 177.7,50.5 176.4,50.5 C175.8,50.2 175.1,50.2 174.5,50.1 L174.5,50.1 Z M178.2,37.7 C179.8,36.5 181.1,35 182.1,33.3 C183.3,31.6 183.9,29.7 184.1,27.7 C184.1,26.9 184,26.1 183.6,25.4 C183.3,24.7 182.7,24.1 182,23.7 C180.9,26.4 180.1,28.4 179.6,29.7 C178.7,31.6 178.2,33.7 178.1,35.9 C178,36.4 178,37.1 178.2,37.7 L178.2,37.7 Z M154.1,48.5 C156.1,48.5 158,48.2 159.8,47.5 C162.9,46.5 165.7,45 168.3,43.1 C169.9,42 170.8,40.3 170.9,38.3 C167.4,38.6 164.1,39.6 161,41.3 C157.5,43.3 155.2,45.7 154.1,48.5 L154.1,48.5 Z" id="Path_18"></path>
            </g>
        </g>
    </g>
</svg>