<?xml version="1.0" encoding="utf-8"?>
<!-- Generator: Adobe Illustrator 22.1.0, SVG Export Plug-In . SVG Version: 6.00 Build 0)  -->
<svg version="1.1" id="Layer_1" xmlns="http://www.w3.org/2000/svg" xmlns:xlink="http://www.w3.org/1999/xlink" x="0px" y="0px"
	 viewBox="0 0 2652 968.6" style="enable-background:new 0 0 2652 968.6;" xml:space="preserve">
<style type="text/css">
	.st0{opacity:0.1;}
	.st1{fill:none;}
	.st2{fill:none;stroke:#232323;stroke-width:1.34;stroke-linejoin:round;}
</style>
<g class="st0">
	<polyline class="st1" points="-148.5,951.6 -148.5,10.4 3194.3,10.4 3194.3,951.6 	"/>
	<path class="st2" d="M834.3,981.5c2.4-21.3,7.5-35.6,17-54.5c17.4-34.7,36.6-76,73.2-93.7c18-8.7,40.2-8.2,59.4-13.5
		c19.8-5.8,32.7-23.7,47-37.7c13.8-13.8,29.7-25.1,47.4-33.2c9.2-4.6,15.5-9.4,10.5-20.8c-3.1-6.8-12.7-16.2-19-20.5
		c-14.6-10-34.2-12.9-49.3-22.2c-20-12.2-37.9-28.7-58.7-39.7c-17.8-9.4-39.5-13-58.3-20.4c-12.7-5.1-28.4-22.6-39.9-11
		c-15.8,16.2-25.5,38.9-41.8,54.7c-13.9,13.5-34.7,20.1-48.4,33.8S761,738,759.8,755.4c-1.3,19-5.2,40.6,0.4,59.4
		c6.3,20.8,25.1,32.3,38.3,48.1c4.4,5.1,11.8,14.9,12.6,21.3c1.1,9.4-7,16.3-12.3,22.2c-15.1,16.2-28.9,29.1-31.9,52.1
		 M1243.7,803.5c24.3-6-2.8-33-12.2-39.1c-13.5-9.1-33.9-22.6-50.7-25.1c-12.1-1.7-44.8,8.6-43.5,24c1.2,15.8,27.5,23.7,40.1,27.2
		c22.8,6.3,42.7,11.5,66.3,13.1 M1844.3-88.1c-14.5,13.5-28,28.9-35.6,47.2s-10.5,40.1-22,56.9c-11.8,17.4-37,33.5-39.9,55.7
		c-1.3,9.9,9.8,17.4,18,20.4c11.1,4,21.4,1.1,32.6-0.8 M1797.3,91.3c18.1-10.5,35.5-20.5,54.7-28.5c16.2-6.6,32-12.9,40.1-29.6
		c11.7-24,22.1-48.8,33.1-73 M2631.7-44.4c-2.1,22.6,12.3,31.5,28.3,44.6c13.8,11.1,25.5,22.6,33.1,39.3
		c7.1,15.5,7.6,35.4,16.2,49.8c4.6,7.9,10.9,7.9,19,8.8 M2728.4,98.1c33.6-10.3,67.1-19.7,101.4-28c18.1-4.6,38.2-7.4,55.7-13.9
		c15.7-5.8,27.1-15.5,14.1-30.3s-29.1-25.7-36.7-44.4 M90.2,978c-8-15.3-26.8-42.2-37.3-13.4c-2.3,6.2-1.9,13.8-2.5,20.4"/>
	<path class="st2" d="M240.1,998.3c-7.8-16.5-23.9-17.8-37.3-28.5c-9.2-7.4-15.7-19.2-20.4-30c-12.6-29.1-32.4-60.6-24.4-93.5
		c7.6-32.2,34.7-50.7,56.7-72.6c9.2-9.2,17-20,17.8-33.5c0.9-14.6-7.6-23.4-16.7-33.9c-17.6-20.5-51.6-50.1-46.1-81.2
		c2.9-17,20.2-26.7,29.7-39.7c8.3-11.3,4.8-20.5-3.5-31.2c-21-26.5-45.4-50-65.7-77.3c-8.6-11.5-15-22.6-18.5-36.4
		c-3.9-15-0.5-31.9-4.7-46.6c-3.9-13.8-15.5-25.5-20.9-38.7c-5.4-13.3-5.9-26.1-3.3-39.9c3.3-17.3,11.4-32.6,8.3-50.5
		c-2.3-13.9-12.3-28-23.7-36.7c-11.7-9.1-27.2-16.2-41.4-9.4c-12.7,6.2-21.7,20.9-30.8,31.2c-18.5,21.4-45.2,48.8-41.8,79.5
		c1.6,14.9,11,28,17.8,41c7.6,14.9,14.9,28.3,18,44.9c5.1,28.4-11,58.7-15.5,86.3c-5.4,34.3,7.6,64.5,13.9,97.7
		c5.6,28.9,2.1,51.6-8,78.8c-10.5,28.3-29.5,61.4-24.5,92.7c4.6,28.8,16.3,54.1,15.8,83.6c-0.5,37-5.6,74.4-8.2,111.4 M-148.7,64.4
		c21.8-0.4,38.9-1.3,58.8,7.4L-58.7,85 M-58.7,85c34-3.6,11.5-98.4,11.5-117.4 M2514.6,663.7c20.5-3.6,39-6.8,59.8-7
		c18.4-0.1,48.1,5.8,63.1-8.7c15.7-15.1,7.4-48.1,7-66.7c-0.1-19.7,6.8-38.7,5.1-58.3c-3.4-38.2-36.7-71.6-33.9-110.3
		c1.6-22,3.5-44.2,9.8-65.3c5.9-20.4,12.9-39.4,10.9-60.6c-1.7-17.8,0.4-52.9-26.9-46.4c-17.8,4.4-34.4,15.3-51.9,21.4
		c-23.9,8.3-49.6,13.1-72.8,23c-6.8,2.9-14.3,6.4-7.5,14.3c7.9,8.8,20.8,14.3,29.7,22.1c16.6,14.3,24.8,29.5,22,51.1
		c-2.4,19.2-15.5,34.3-26.5,49.7c-12.1,16.7-22.5,34-37.9,47.6c-17,14.9-37.3,29.1-50.1,48.1c-11.3,16.7-19.7,38.9-27.7,57.5
		c-6.6,15.5-18.8,40.1-11.3,56.7c7.5,16.6,33.1,27.9,49.8,32.6c18.8,5.2,40.6,6.3,60.2,5.2c10.5-0.7,19.7-3.1,29.7-5.8 M2611.4-16.6
		c4.7,10,20.1,17.3,28.5,23c11.5,7.9,22.1,14.1,30.6,25.5c16.3,22.2,14.1,52.1,20.1,77.9c2.8,12.2,8.2,15.3,19.7,19.7 M2710.3,129.6
		c25.1-6.3,45.7-20.8,69.8-29.1c22.8-8,46.9-15.5,70.9-18.5c29.2-3.6,53.2-6.6,79.3-20.8c9.9-5.2,23.2-11.5,28.4-22.1
		c6.6-13.4-10.6-18-20.4-21.7c-25.7-10-50.9-21.3-59.6-50"/>
	<path class="st2" d="M-149.4,89.7c47-0.5,78,49.7,93,69c15.5,20.1,23.3,45.4,14.3,70.2S-70.6,274.2-80,299
		c-5.6,14.3-7.6,25.1-2.9,39.9c4,12.7,13.5,24.4,20.5,35.9c13.1,21.3,21.4,42.5,9.6,66.7c-6.4,13.1-15.7,25.6-20.9,39.3
		c-5.4,14.5-3.5,27.3,0.7,41.8c7.4,26.1,24.3,47.7,26.1,75.6c0.9,12.2-2.4,22.5-11.3,30.7c-10.3,9.4-24.3,18.1-26.5,33.1
		c-1.7,12.3,6.2,26.1,6.4,38.7c0.1,11.7-4.6,23.7-5.1,35.4c-0.8,27.5,15.7,52.1,22,78.4c6.6,27.2,2.7,52.3-3.9,79.1
		c-2.4,10.5-4,27.7-13.4,35c-9.9,7.6-59.2,22-70.7,23.2 M283.3,954.7c-0.4-9.9,1.6-26.3-8.7-32.2c-10.3-5.9-27.2,0.5-38.5,0
		c-16.1-0.7-23.9-9.2-32.4-21.7c-15.7-23.7-18-49.6-2.5-73.6c14.3-22.1,37.1-36.7,53.3-57.4c15.7-19.7,16.1-48.8-0.7-67.8
		c-11.3-12.9-23.9-25.2-34.3-38.9c-6.4-8.6-11.5-18.1-8.2-28.5c8.2-26,44.8-33,52.8-59.2c8.7-28.3-32.7-41.4-49.8-53.6
		c-21.6-15.5-39.7-38.3-54.4-60.3c-7.1-10.9-13-21.6-12.7-35c0.4-13,5.2-27.2,1.6-40.2c-4-13.9-16.2-25.2-24.3-36.7
		c-7.5-11-9.1-21-7.4-34.2c1.9-14.1,7.6-27.9,11.5-41.8c3.5-12.3-0.1-22.8-5.6-34.4c-10.9-22.8-30.4-43.1-50.5-58
		c-12.9-9.5-27.2-18-40.6-26.9C22.5,148,13.4,141.4,9.8,130c-4.3-13.9-4.6-29.7-7-44.2C1.1,75.5-11.8,21.4-14.1,11.3 M739-25.3
		c-15.7,9.8-32.7,16.6-48.2,26.8c-14.7,9.8-37.9,20.1-45.3,37.5c-6.8,16.2,12.2,33.2,21,44.8c12.1,15.3,24,30.1,33.2,47.6
		c8.2,15.3,10.9,35.2-9.4,40.7c-16.7,4.6-35.4-1.3-52.4,0c-20.9,1.6-35.5,11.8-41.9,32.4c-4.6,16.1-6.6,32.4-6,49.2
		c0.7,20.5,2.7,38.9,10.6,58c7.1,17,19.3,32.7,25.3,50.4c7.5,21.8-3.3,30.8-12.7,49.2c-7.5,14.3-10.6,32-12.2,48
		c-0.8,9.4,0.5,19.8-1.6,28.9c-2.3,9.9-8.7,19.6-12.3,29.2c-5.6,15.3-4.3,32.4-9.1,48.2c-5.1,16.7-9.4,31.8-7.6,49.4
		c1.9,20.4,5.6,41.1,6.2,61.6c0.4,15.5,3.3,37.5-15.1,40.6c-11.5,1.9-23.3,2.9-35,4.6c-9.1,1.2-21.4,5.2-30.4,4
		c-19.7-2.5-15.1-29.7-32.4-35.5c-14.5-4.8-41.7,13.9-47.6-7.1c-5.1-18.1-1.1-37.4,3.6-55.1c2.4-9.1,5.9-18.2,6.2-27.9
		c0-10-4.3-16.3-9.8-24.5c-11-16.9-7.1-37.3-6.8-56.5c0.4-18.1-2.4-34.3-10.5-50.7c-7.6-14.7-18.8-27.7-32.4-37.3
		c-12.7-9.2-37.9-18-26.7-37.7c9.6-16.5,28.4-27.7,38.5-44.1c10.5-16.7,2.1-33.2-14.5-41.3c-16.1-7.8-38.7-12.9-36.4-34.7
		c1.7-16.2,17.6-36.7,6.6-52.7c-10.9-15.3-34.2-21.3-49.3-30.8c-14.3-9.2-26.5-20.5-35-35.4s-11.5-32.2-24.5-44.1
		c-14.5-12.9-30.4-25.2-43.4-39.5c-8.2-9.1-33.9-33.9-16.1-42.9c16.6-8.3,41.9-6,59.8-7.8c24.4-2.9,90.6-3.9,81.3-42.3
		c-4.3-18.2-17.6-32.4-29.2-46.1 M1620.9,1028.4c15-11.3,29.2-24.9,43.1-37.7c10.6-9.5,20.4-20.9,22-35.6
		c1.7-16.1-4.2-33.8-9.8-48.8c-5.9-16.1-14.6-26.1-28-36.6c-24.4-19.2-65-17.6-60.3-58.3c1.1-8.6,3.9-16.3,6.6-24.3
		c2.3-6,8-16.1,6.6-22.8c-2.9-13.8-31.4-14.3-41.8-12.7c-17.8,2.7-33,12.3-50.1,16.6c-14.1,3.5-26.3-1.3-38.2-8.7
		c-14.6-9.1-28.9-18-44.2-25.7c-6.4-3.3-14.7-6-20.4-10.6c-7-5.6-12.7-15.1-18.6-22.1c-15.5-18.5-60-44.1-37-70.1
		c20.9-23.4,58.7-26.8,84.8-42.9c31.4-19.2,56.9-43.5,84.1-68.1c8.8-8,25.6-18.5,27.9-31.8c2.8-17-17-29.2-29.6-35.9
		c-29.5-15.8-64.5-10.6-95.7-3.3c-31.2,7.2-60.6,23.9-91.1,34c-10.9,3.6-30.4,11.1-40.7,3.5c-12.3-9.2-4.6-33.8-13-46.9
		s-29.1-12.3-43-10c-16.7,2.7-31.8,9.8-46.6,17.4s-28.9,17.6-43.1,26.7c-11.7,7.5-26.5,18.4-35.4,1.7c-7.6-14.3-2.1-33.1,3.1-47.2
		c5.9-16.1,13.9-28.7,23-43.1c7-11.1,21.4-27.2,15-41.7c-7-15.7-25.6-21-40.7-24.4c-14.5-3.1-31.2,1.7-43.1-6.4
		c-0.4-3.3,16.2-12.9,20.2-15c7.9-4.2,15.7-7.8,23.9-11.1c18-7,36-11.3,54.9-15c8.7-1.7,18-2.5,26.3-5.2
		c11.4-3.5,16.7-8.3,10.5-19.3c-6.4-11.5-18.2-19.7-28.4-28c-31.2-25.6-65-49.6-94.2-77.4c-8.3-7.8-15.8-16.7-23.7-24.9
		c-4.2-4.3-13.8-11.5-14.7-18.2c-2.4-16.5,34.3-19.7,45.2-21c38.9-5.2,77.9,15,115.1,23.7c15.3,3.5,33.1,4.6,48.8,4.8
		c8.7,0.1,20.5,0.5,28.9-1.7c9.8-2.5,11.7-9.1,7.9-18.2c-6.4-15.3-24.3-30.3-35-42.2c-13.3-14.1-25.6-28.9-37.3-44.2 M2586-30.9
		c-2.8,5.9-7.5,13.3-5.1,20.2c2.3,6.6,10.3,11,16.1,13.9c17,9.2,39,16.7,52.8,30.8c12.2,12.7,16.2,28.5,17.4,45.8
		c1.2,17.8,2.4,38.7,0.4,56.4c-2.9,21-24,21-39.7,29.6c-18.1,9.8-29.7,29.1-42.9,44.5c-10.3,12.6-23.4,22.1-38.5,28
		c-35,13.5-74,12.2-110.8,13.3c-17.6,0.5-35,0.9-52.4,2.7c-14.7,1.6-40.1,2.4-50.9,14.1c-11.8,12.7,14.6,21,23,24.5l69.7,27.9
		c14.5,5.8,31.5,10,44.9,18c7,4.2,15,10.5,18.6,17.4c5.8,10.9,4.6,17.3,0,28.4c-7,17.3-22.1,33-32.7,48.1
		c-10,14.1-22.1,23.3-35.6,34.4c-11.8,9.8-25.7,19.8-33.8,33.1c-10.6,17.8-17.4,39.7-25.6,58.7c-6.6,15.1-12.3,30.8-21.3,44.8
		c-10.9,16.9-25.1,30-37,46c-3.3,4.6-9.4,13.5-5.9,19.2c4.6,7,20.1,4.4,26.5,4.4c16.9,0,31,1.6,46.2,9.1
		c18.1,9.1,33.8,18.4,53.6,21.4s37.1,4.8,49.3,22.8c9.9,14.6,14.1,34,18.5,51.1c4.8,19.8,6.6,36.2-13.5,47
		c-12.7,6.8-28.7,9.8-42.6,13.9l-74.2,22.8c-31.5,9.4-61.1,24.4-87.5,44.2c-40.6,30.7,45.3,50.5,63.6,56.3c15,4.7,33,9.9,44.1,21.4
		c12.1,12.6,14.5,35,0.7,47.2c-13.8,12.2-39.7,11.7-57.1,14.9 M2723.7,1017.1c1.3-16.5,7.6-33.2,8-49.8c0.4-18.2-4.2-36.6-21.3-44.8
		c-16.2-7.6-38.9,1.2-55.3,5.1c-16.5,3.9-30.8,4.7-37.9-13c-7-17.3-12.3-34.4-23.2-49.6c-12.1-16.5-26.5-28.5-20.2-50
		c5.6-19,8.3-35.5,3.1-55.1c-2.4-8.8-6-17.6-9.2-26.5c-2.8-7.8-8.7-16.2-3.6-23.9c8-11.8,32.6-5.1,44.8-2.1
		c19,4.6,37.9,13.4,57.4,7.9c9.1-2.5,15.7-8.3,25.3-8.8s14.1,5.6,21.6,11.4c14.5,11.1,28.4,24.3,47.7,24.5
		c17.8,0.5,34.7-6.3,44.9-20.5c14.6-20.2-4.3-32.2-17.4-46.9c-10.9-12.1-17.6-28-29.2-39c-15.3-14.5-35.2-16.5-52.7-26.9
		c-14.1-8.3-17-24.9-15.1-40.1c2.7-20.2,5.9-35.6-0.4-55.1c-5.6-17-15.1-33.1-19.7-50.5c-4.2-16.1-8-37.9-0.8-53.6
		c4-8.6,8.7-12.9,16.3-17.6c5.8-3.5,23.3-10.5,26.3-16.3c3.3-6.8-8.7-17.6-12.1-22c-5.4-6.8-9.5-14.3-12.6-22.2
		c-6-16.1-11.8-33.2-13.4-50.5c-1.7-17.4,0.4-36,3.5-53.3s2.9-39.7,14.5-54s33.5-22.6,48.9-31.9c15.4-9.2,30.7-18.1,47.2-25.5
		c36-15.8,72.6-16.9,110.8-22c15.1-1.9,31.2-9.4,44.9-16.2c16.3-8.2,31.8-17.6,44.1-31.2c8.2-8.8,28.4-30.8,8.8-39
		c-16.7-7-38.3-4.6-55.9-9.2c-20.2-5.6-34.4-13.8-43.4-33 M3238.5,813.7c-18.6-0.4-37.3,7.4-56.1,4.4c-17.4-2.8-33.8-13.5-51.1-17.8
		c-16.7-4-35.5-2.8-52.1,0.5c-16.6,3.3-39.1,8.7-51.1,22.1c-27.7,31.5,6.8,77.3,21.8,106.7c6.4,12.7,14.1,30,7,44.1
		c-8,15.3-35.9,13.4-50,16.6c-17,3.6-33.9,9.2-50.9,13.9c-16.2,4.6-34.2,7.4-49.4,14.9 M2313.3-87.4c-21.7,12.7-65.5,22.5-61.5,55.1
		c3.6,29.1,15.8,59.2,34.8,81.9c4.2,5.1,9.6,9.4,14.3,14.1c5.8,5.6,14.5,9.9,4.7,16.2c-5.2,3.5-13.9,3.3-19.7,4.6
		c-6.6,1.2-12.9,3.1-19.6,2.7c-14.5-1.2-26.7-5.9-39.7-11.3c-14.3-5.9-30.3-15.8-45.4-18.8c-29.5-5.8-55.1,34.4-71.8,52.1
		c-19.3,20.4-40.6,38.2-59.6,59.2c-19,21-34.3,45.4-42.3,73.2c-7.8,26.8-13.9,58.8-1.2,85c4.8,9.9,23.2,31.9,3.9,35
		c-11.3,1.9-27.7-1.3-38.5-4.7c-13.5-4.2-25.1-9.1-25.5-24.4c-0.5-17.8,0.1-31.2-4.8-48.1c-3.9-12.9-8.3-26.1-21-33
		c-5.6-2.9-17-3.3-21-8c-5.9-7.1,5.1-13.5,9.4-18.2c10.3-10.9,16.6-21.3,18.5-36.2c1.7-13.8-1.2-27.5,1.7-41.3
		c6.2-28.4,24.5-53.5,36-80c6.2-14.1,9.9-29.2,16.2-43.1c6.3-13.9,14.9-26.9,21.6-40.6 M-200.6-4c-8,14.1-0.7,26.8,10,37.5
		c25.3,24.8,64.5,15,96.9,18.8c7.6,0.9,15.3,0.7,22.8-0.5 M-70.9,51.8c22.8-24.4,6.3-64.1,10.5-94.2 M-148.9,79.1
		c47-3.5,66.3,23.6,87,39.5c9.6,7.5,16.9,8.8,28.9,7.9 M-33,126.6c18.5-14.1,14.6-38.7,12.1-59.2c-3.6-28.7-10-58.6-11.3-87.6
		 M866.8,588.2c12.7-14.6,18.1-35,25.6-52.7c6.6-15.5,13.8-30.1,15.7-47c4.4-36.4,1.2-74.8-12.1-108.7L882,343.4
		c-2.3-5.8-5.4-15.5-12.1-16.3c-11.7-1.6-25.2,40.5-28.9,48.9c-7.6,18.1-10.6,36.7-14.6,56.1c-3.6,17.3-10.5,33.8-13.5,51.1
		c-3.9,20.4,6.2,41.3,16.1,58.4C838.9,559,851,575.6,866.8,588.2 M879.4,263.5c13.9-16.3,37.8-35.9,33.6-59.9
		c-1.9-11.1-7.6-21.7-14.1-31.2c-5.8-8.3-18.6-17.6-19.6-28c-2.4-0.4-13.5,58.6-14.7,68.3c-1.2,11.7-2.8,21.8-1.1,33.5
		c1.9,11.5,1.2,29.5,15.8,17.4"/>
	<path class="st2" d="M2545.9,795.6c6.3-14.6,5.2-22.6-1.3-36.7l-14.5-31.4c-2.8-6-7.6-13.3-9.2-19.8c-3.5-15.8,11.5-27.5,25.3-31.2
		c14.6-3.9,29.1-0.1,43.5,2.1c16.2,2.7,33,6.8,49.3,7c18.6,0,25.1-13.3,38.9-23.2c7.4-5.4,12.2-7.5,20.5-4.6
		c7.5,2.7,14.1,6.6,21,10.5c4.8,2.8,13.4,9.1,16.9,1.3c2.7-5.8-3.1-16.5-7.5-20c-12.9-10.5-31-2.1-42.5-13.9
		c-9.8-10-16.5-27.3-19.6-41.1c-3.5-16.5,0.4-32,3.1-48.4c2.1-13.4,1.1-27.2-3.3-40.2c-9.1-28.9-26.9-58.3-27.5-89.5
		c-0.5-33.1,18.1-63.2,19.3-96.2c0.5-13.8-1.1-27.9-1.9-41.7c-1.1-19.8-1.1-40.1-3.3-59.9c-1.2-10.9-4.7-27.9-19.2-25.1
		c-14.7,2.8-27.9,19.2-38.5,28.5c-51.1,44.9-118.5,37.8-181.2,48.8c-4.7,0.9-15.1,3.3-15.5,9.2c-0.1,5.2,9.4,10.6,13.1,12.6
		c16.9,9.6,35.9,16.7,53.5,25.1c24.8,11.5,56.1,30.1,44.2,62.6c-5.1,13.8-15.8,25.7-24.3,37.5c-9.2,12.9-17.8,26.5-28.5,37.9
		c-19.6,20.5-46.1,33.5-60.3,58.8c-18.1,33-31.2,69.7-46.5,104c-4.8,10.6-11.8,23.3-0.1,31.9c13.4,9.9,31.9,16.1,46.9,23.6
		c10.9,5.6,22.5,9.4,34.7,11c18.4,2.4,34.8,2.8,50.9,12.9c11.5,7.1,13.9,18.4,18.4,30.3c6.6,18.4,12.2,37.5,19.8,55.2
		c5.6,12.9,12.6,21.4,25.7,12.2 M165.7,981.7c-11.1-20.2-18.8-43.1-28-64.3c-7.6-17.8-18-36.4-15.5-56.4
		c2.7-21.6,13.4-43.1,25.1-61.4c10.5-16.5,30.8-27.7,38.9-45.3c5.9-12.9,4.7-20.8-1.7-33.2c-4.8-9.4-12.6-18-18.6-26.5
		c-11.8-16.5-27.3-36.4-32.4-56.3c-6.3-24,7-37.8,12.9-59.6c4.8-18-6.6-33.1-17.3-46.6c-15-19-32.2-36.6-48.1-54.7
		c-12.1-13.5-22.1-29.1-33-43.7c-2.8-3.1-17.3,30-17.4,30.6c-4.3,9.2-7.8,18.6-10.5,28.4c-5.8,22.8-11,42.5-8,66.2
		c5.8,46.9,24.8,91.1,4.8,137.6c-9.2,22-25.2,44.2-28.4,68.3c-2.9,22.6,6.4,45.4,7.9,67.9c2.8,48-3.5,95.8-3.9,143.8"/>
	<path class="st2" d="M260.1,977.2c-3.6-14.7-10.3-22.6-25.5-25.5c-17.8-3.3-26.7-7.4-35.6-23.2c-13.5-23.4-33.6-55.6-23.3-83.2
		c5.6-15,11.1-26,22.2-37.9c11.8-12.7,26.3-23,37.9-36c20.1-22.6,17.3-47.6-1.9-68.7c-16.2-18.1-57.6-51.1-41.7-80.1
		c10.9-19.3,63.9-37.9,38.7-66.1c-9.4-10.5-23.3-17.4-33.6-26.8c-10.9-9.9-20.8-20.9-29.7-32.4c-10-12.6-20.4-24.5-28.7-38.3
		c-8.3-13.8-10.3-26.8-9.8-42.6s-0.1-26.5-8.6-39.9c-7.6-12.2-19.2-25.7-21.4-40.6c-2.4-16.2,4.6-33.2,8.7-48.4
		c4.4-15.8,5.2-28.5-2.4-43.7c-11.8-23.7-37.9-47.6-62.8-56.9c-13-4.8-28.5-7.6-39,2.9c-11.3,11.7-15.8,30.1-23.7,44.6
		C-34.4,260.4-54,282-63.5,310.4c-10.5,31,18.8,56.1,29.6,82.8c13.1,32-1.2,56.4-9.9,87.5c-4.3,14.1-5.9,28.9-4.7,43.5
		c1.2,15,7.5,29.5,11.8,43.7c8,25.6,15.3,54.7,1.1,79.5c-4,7-10.5,14.9-13,22.6c-2.5,7.8-2.3,17.6-3.1,25.6
		c-1.9,15.5-7.6,30-10.6,45.3c-5.4,27.9,12.6,55.3,17.3,82.3c5.8,33.6-1.7,68.1-5.2,101.7c-1.2,11.8-2.1,24.9-6.8,35.9
		c-8.7,20.1-26.5,5.8-41.1,1.6c-13.4-3.9-24.8-1.7-35.6,7.1 M578.1-8.8c-12.9,16.3-17.6,34.7-7.8,54.4c7.1,14.3,16.3,27.5,23.2,41.8
		c4.8,10.3,6.8,17.4-1.7,25.6c-10.3,9.8-21.7,14.9-29.1,27.3c-7.6,13.4-10.6,23-13.9,38.2c-5.4,24.3-7.5,50.7-8.7,75.4
		c-1.3,25.5,5.1,49.8,5.1,74.9c0,13.4-7.6,22.8-14.1,34.2c-6.8,11.8-10.3,18.8-12.7,32c-4.8,26-13.9,46.2-29.1,68.1
		c-2.4,3.5-7.1,11-12.6,9.8c-4.6-0.8-8-9.8-9.8-13.3c-5.4-11-10-22.1-13.9-33.8c-4-12.2-10.3-25.1-10.9-37.9
		c-0.5-13.5,6.3-26.9,10-40.1c7.1-24.9,3.6-45.2-4.6-69c-4.8-13.8-2.5-22.5-0.4-37.1c1.9-13.5,1.1-23.9-0.5-37.7
		c-3.3-27.9-31.9-33.2-53.9-42.9c-22.2-9.8-44-21-54.4-44.2c-8.6-18.6-20-45.2-2.8-61c18.4-17,42.5-31,41-59.8 M1820.1,1002.5
		c11.5-8,18.6-20.9,6.4-31.5c-8.7-7.6-23.2-7.8-33.2-13.5c-11.1-6.4-17.8-15.5-19.8-28c-2.3-13.5,5.2-26.8,8-40.1
		c2.1-9.8-1.9-19.7-7.4-28c-7-11-15.1-24.4-26-31.8c-18.2-12.6-53.9-16.2-44-46.1c5.9-17.8,34.3-48.9,20.5-69.3
		c-6.8-10-23.7-13.3-33.9-16.7c-11.7-3.6-23-8.7-33.5-15c-20.9-12.3-40.9-18.2-65.7-17.8c-26.8,0.7-50.4,5.9-75.3-6.4
		c-10.5-5.2-25.7-10-32.7-20.4c-6.6-9.8,1.2-19.8,8.7-26.5c20.1-17.8,44.5-35.5,68.6-47.2c20.2-9.8,43.5-14.1,62.3-26.5
		c14.3-9.4,28.3-19,42.5-28.5c9.2-6,16.6-10.6,21-21.3c4.4-10,1.6-24.8-6.3-33c-9.5-9.8-24.5-6.6-37.3-7
		c-27.9-0.7-42.2-22-59.1-41.4c-7.6-8.8-13.5-16.5-24.4-21.6c-12.6-5.9-27.5-5.8-41.1-6c-21-0.7-43.5,2.1-64.3,6.3l-50.1,9.4
		c-10.9,2.1-23.7,6.8-34.7,7c-22.2,0-40.2-19.2-61.1-23.9c-19.8-4.6-64.9-4.6-67.9-31c-3.6-32.2,32.3-34.4,55.1-42.3
		c20.1-6.8,49.3-19.8,29.5-43.7c-14.5-17.4-36.4-33-56.1-44c-22.1-12.3-49.3-23.7-66.1-43.5c-3.6-4.3-8-10-6.3-14.6
		c2.3-5.6,8.2-5.2,13.1-5.8c11-1.3,22.5-2.5,33.6-1.2c25.1,3.1,50,8,75.3,10.3c25.3,2.3,50.5,3.3,75.4,7.6
		c27.5,4.8,55.2,12.6,83.2,11.8c11.4-0.4,22.2-3.3,32-8.8c8.2-4.3,22.2-14.1,18.5-25.1c-7-20.2-43.7-31.5-60.8-39.9
		c-22.1-10.9-44.1-21.6-66.7-31.5c-24.3-10.6-54-18.5-70.1-41.3c-14.7-20.9,41-20.9,52.8-21c28.3-0.5,55.1-1.7,83.1-5.1
		c27.1-3.1,53.5-2.9,80.7-3.1c12.1-0.1,19.7-2.1,31.4-5.9c10.5-3.5,24.5-6.8,28.9-18.5 M2464.3-6.8c-10.3,6.2-18.6,14.5-7.1,24.8
		c8.6,7.6,21.6,11.1,32.6,14.3c33.5,9.4,141.2,13.5,104,74.1c-7.4,12.1-18,21.8-26.5,32.7c-7.8,10-13.9,21.8-20.5,32.7
		c-13.8,22.5-35.9,27.7-60.8,30.1c-58.6,5.9-117.8,5.2-176.5,7.1c-17,0.5-42.5-1.6-53.3,14.9c-2.8,4.2-3.5,12.1-4.8,16.6l-8.6,28.9
		c-3.1,10.6-8,21-1.9,31.4c5.6,9.6,19.7,15.1,29.6,19.7c11,4.8,22,10.5,33.5,13.4c28.3,6.8,58.7,9.1,85.4,21.3
		c8.7,4,21.6,11,24.5,20.8c3.9,12.7-5.1,27.2-13.9,35.5c-16.7,15.8-44,16.2-56.3,37.7c-8.3,14.3-13.5,31.5-20,46.6
		c-4.3,10.3-7.5,18-9.2,28.9c-4,26.1-7,51.1-26.5,70.6c-17.8,17.8-37.8,36-58.7,50c-22.5,14.9-46.1,28.3-56.5,54.5
		c-4.6,11.5-9.8,28-4.6,40.5c5.8,13.5,20.8,7.9,31.2,5.8c12.2-2.4,23.6-5.2,36-5.1c13.1,0.1,27.5,2.1,40.2,0
		c14.9-2.4,28.8-10.5,43.7-12.7c13.4-1.9,20.2,1.3,31.2,8c11,7,22.5,13.3,34.3,19c8.7,3.9,30.1,8.8,27.7,22.5
		c-3.4,18.8-51.2,28.3-64.6,33c-24.3,8.6-48.1,16.9-71.6,27.3c-23.4,10.5-51.3,19.8-71.4,36.7c-20.8,17.4-28.9,46.4-14.3,70.7
		c14.6,24.4,44.2,30.6,66.9,44.1c3.1,1.9,9.1,4.4,10,8.2c2.3,7.6-6.8,10.6-11.8,13.8c-11.3,6.8-25.1,9.2-37.7,13.1 M3265.3,704.2
		c-23.9,13.1-48.6,32.4-77.3,25.1c-12.9-3.3-24.5-11.8-37.4-14.6c-11-2.3-22.5-1.9-33.5,0.7c-25.5,6.4-49.2,17.3-72.6,29.1
		c-25.5,12.9-46.9,25.6-66.1,46.9c-16.5,18.4-22.2,43.1-22.5,67.3c0,14.6,1.9,28.8-3.9,42.3c-4.8,11.4-14.1,17.3-25.5,22.2
		c-14.6,6.6-30.7,10-45.2,17c-10.5,5.1-19.7,13.8-28.9,20.8c-10,7.6-20.4,17.8-32.6,22.1c-12.2,4.3-15.5-5.2-16.9-16.2
		c-3.3-26.8,2.1-56.9-8.3-82.4c-9.5-23.2-34.4-38.7-56.1-49.2c-13.5-6.6-27.9-6-41.4-11.3c-14.7-5.9,2.7-18.1,11.4-21
		c10.9-3.6,23.7-4,34.8-5.9c16.6-2.8,33.5-4.8,50-8.2c23-4.6,40.7-15,58.8-29.5c20.1-16.1,40.7-31.8,58.7-50.5
		c10.6-11.1,20.4-23.3,30.7-35c5.9-6.8,18.1-18.1,16.9-27.9c-1.6-13-22-8.8-30.3-8.7c-13.9,0.1-29.1,2.3-43,0.7
		c-11.7-1.3-22.8-5.9-29.6-15.5c-7.5-10.5-13.9-21.7-22.2-31.8c-8.7-10.3-20.8-19.6-26-32.2c-5.2-12.6-2.3-26.1-5.9-38.7
		c-3.3-11-9.9-20.5-19.2-27.3c-10.9-8-24.5-12.6-32.4-24c-20.2-29.2,31.4-35.2,48.8-38.7c22.2-4.6,50.1-12.1,61.9-33.1
		c6.8-12.2,8.2-21.3-3.6-30c-13-9.8-29.6-15.5-43.4-24.3c-20.8-13.3-36-33.8-51.6-52.4c-7.8-9.5-17.8-18.5-21.4-30.4
		c-3.9-12.6-2.1-26.1,5.1-37.3c12.6-20.4,44-30,65.8-36.7c15.3-4.7,22-9.5,34.8-19.2c9.1-6.6,18-10.3,29.2-9.9
		c15,0.5,28.5,4.8,43.7,3.3c11-1.1,22-4.7,32-8.8c12.3-5.1,26.7-9.5,37.5-17.4c10.5-7.5,18.6-16.9,27.3-26.3
		c19.3-21.4,37-44.2,52.9-68.3c14.1-20.8,30.7-39.7,49.3-56.3"/>
	<path class="st2" d="M555-70.4c-6.4,18.5-21.3,33.5-33.1,48.6c-9.9,12.6-16.2,32-19.3,47.6c-4.6,23.2-3.9,44.8-3.3,68.3
		c0.1,9.1,1.2,17.8-1.2,26.5c-4.2,14.5-13.4,8-23.4,2.3c-17.6-9.5-31.4-24.8-39.1-43.1c-9.1-20.9-6.4-37.4-3.6-60
		c2.3-18.6,0.5-33.9-4.7-51.9 M1890.4,1002.1c5.4-8,11.8-15.8,16.3-24.3c5.8-10.5,9.1-22,14.5-32.6c3.5-6.8,8-10,13.9-15.3
		c16.3-14.5,37.5-28.4,48.6-47.8c8.6-15,9.8-34.3,7.6-51.2c-2.5-20.2-9.8-39.7-11.1-59.9s-1.3-41.1-5.1-61.1
		c-2.3-12.3-5.9-25.2-6.8-37.8c-0.7-9.5,1.2-20,1.9-29.7c1.6-20.4-12.6-37.7-33.2-41.8c-20.6-4.2-18.5,39-20.4,51.2
		c-3.1,20.9-13.3,36.6-21.6,56.1c-7.1,16.6-8.8,38.3-22.1,51.7c-13.5,13.5-40.7,5.6-55.2-2.3c-21.4-11.8,6.4-36.2,11.1-50.9
		c6.6-20.2-2.5-38.9-21-48.8c-8-4.3-16.9-7.5-26-9.2c-11-2.4-25.7-2.9-35.9-7.8c-9.2-4.3-10.9-13.5-16.9-20.8
		c-5.2-5.9-11.1-7.8-18.8-8.3c-23.2-1.6-47-0.1-70.2-2.9c-8.3-1.1-18.5-6.4-11.5-15c6.4-7.8,20.2-10,28.9-14.1
		c18.1-8.3,30.6-22.2,44.2-36.2c13.7-13.9,31.5-28.4,37.5-47.8c5.8-19-2.3-43-6.6-61.5c-5.1-21.3-12.1-36-34.7-41.8
		c-18-4.6-39.5,4-54.4-9.8c-14.5-13.4-17.6-36-36.6-44.6c-16.3-7.5-39.5-9.5-57.1-10.3c-23-0.8-45.3,7.6-67.4,13.4
		c-18.6,4.8-37.1,7.6-56.1,10.9c-19.6,3.1-38.5,8.6-57.5,0c-7.8-3.5-22-10.6-15.5-20.9c4.8-7.8,17.3-14.5,24.3-19.7
		c15.3-11.7,33.1-27.9,21.8-48.8c-3.9-7-10-13-15.8-18.5c-7.6-7.1-23-16.5-27.9-26c-8.8-16.9,30.8-11.8,39.4-10
		c38.9,8,86.3,24.5,125.6,11c18.4-6.3,34.8-16.5,53.3-22.5c12.6-4,52.7-10.6,55.3-28c2.4-16.1-17.3-31-29.1-39.1
		c-19-13.4-37.4-28.7-57.5-40.5c-8.6-5.1-18.2-8.6-27.3-12.7c-6.6-3.1-21.7-7-25.2-14.7c-8.2-18.6,46.6-10.9,52.9-10.6
		c34.7,0.7,115.5-31.2,142-54.8 M2453.3-40.5c-15.3,6.6-31.8,12.3-46.1,21c-13.5,8-35,18.6-20.2,35.2c21.4,23.9,59.6,35,89.4,44
		c16.3,4.8,37.5,7.9,51.9,17.8c18.1,12.3,3.6,30.7-3.9,45.2c-7,13.4-13.8,26.8-27.7,34c-15.8,8.2-35.6,8-52.9,10.3
		c-36.4,4.8-73,4.2-109.6,4.8c-13,0.4-25.6,0.1-38.5-0.5c-18-1.1-37.9-4.7-55.9-1.6c-39.4,7-23.7,56.8-40.5,83.1
		c-13.4,20.9-65.8,54.4-33.6,80c26.1,20.8,66.9,13.5,98,22.8c18,5.2,35.5,11.5,52.7,19c4.8,2.3,14.5,6.2,13.5,13.1
		c-1.1,8-13.3,19-17.4,26.1c-7.8,13.3-11.5,29.5-20.2,41.8c-9.9,14.3-30,18.4-30.7,37.8c-0.5,17.6,8.6,33.8,9.4,51.2
		c0.9,16.1-9.9,27.9-21.6,37.1c-13.9,11-27.7,22-42.3,32c-15.3,10.3-29.7,18.5-39.9,34.4c-18.8,29.7-31,63.4-35.2,98.5
		c-1.7,15.5,0.7,34.7,12.2,46.5c11,11.4,31,5.8,44,2.1c15.8-4.6,32.6-11.5,48.9-12.6c18-1.2,36.4-1.7,54.1,1.2
		c1.7,1.7-27.9,13.1-28.4,13.1c-14.3,5.2-28.9,9.8-43,15.5c-20,8-41.7,18.6-58.6,32.3c-16.9,13.7-28.5,34.8-30.1,56.7
		c-0.8,13.5,1.7,26.3,3.5,39.7c1.6,11.8-0.4,18.1-10,24.8 M3264.8,625.7c-21.6,15-42.9,36.2-70.9,34.7c-14.6-0.8-29.1-7.4-43.5-7.8
		c-12.3-0.1-24.8,1.2-36.7,4.2c-24.5,6.6-48.4,20.8-70.5,33c-14.3,7.9-28.4,16.3-43,23.7c-6.8,3.3-24.5,13.8-27.9,5.1
		c-3.3-8.7,11.1-20.2,16.1-26l36.6-41.4c13.4-15.1,31.8-42.6,7.4-57.5c-9.4-5.8-73.6-15.1-54.4-37.1c8.7-9.9,24.8-6.6,36-6.4
		c13.4,0.4,26.1,1.3,39.3-1.1c27.1-5.1,50.5-18.8,74.5-31.9c4.6-2.4,30.3-12.9,26.1-21.6c-3.9-7.8-30-1.3-36.4-0.4
		c-26,4.2-47.4-0.8-69.1-16.3c-11.7-8.3-22.1-20.2-35.5-25.1c-10-3.6-20.8-1.9-30.8,1.2c-27.9,8.8-54.8,23.6-83.2,30.3
		c-13.8,3.3-24.9-1.2-30.4-15.3c-4.6-11.3,4.7-19,12.7-25.6c9.1-7.5,18-16.1,28.3-22c15.1-8.7,31-16.3,46.5-24.5
		c8.6-4.6,20.5-9.2,26.1-17.6c8-11.7-7.1-17.8-16.2-21c-26-9.2-56.9-15.8-78.5-34.4c-10-8.7-14.5-20.8-19.8-32.6
		c-5.4-11.8-15.7-19.2-22.5-30.1c-8.8-14.5,17.3-13.5,25.6-14.5c14.9-1.6,24.8-5.6,38.9-11c12.1-4.7,25.1-3.9,37.3-7.6
		c11.4-3.6,20.9-12.7,32.3-16.3c13.3-4.3,24.8-2.3,38.5-1.1c14.1,1.3,27.9,0.9,40.7,6.8c24.9,11.7,44.2,34,72.4,39
		c10.3,1.9,24.4,0.1,34.8-1.7c9.9-1.7,28.8-5.8,35.9-13.8c8-9.1-3.1-24.5-7.6-33c-6-11.5-11.3-25.7-19.7-35.6
		c-10-11.8-23.3-15.8-37-22.6c-11-5.6-18.5-12.7-26.8-21.6c-9.9-10.5-18.6-18.6-17.3-33.6c1.3-12.7,6.3-24.9,13.9-35.2
		c7.6-9.8,18.5-17,29.5-22.2c13.5-6.4,19.3-8.7,34.2-8.7c26.3,0,56.4-3.6,80.8,8.6 M2131.1-52.1c-6.8,9.6-16.9,17.8-24.9,26.3
		c-6.6,7-13.5,12.9-22.8,16.6c-12.3,4.8-13.9-2.8-13.5-14.3s3.1-23.3,4.7-34.8 M853.3,1014.1c11.5-17.8,6.4-40.7,14.1-60.3
		c9.6-24.4,23.6-49.2,36.2-72c10.9-19.3,25.6-32.4,48-36c10.3-1.6,20.9-1.2,31.2,0.7c10,1.7,25.7,7.1,35.5,1.2
		c9.2-5.4,14.9-23.2,19.6-31.8c5.2-9.5,9.8-17.3,18.5-24.4c20.9-16.9,42.7-9.5,65-1.1c20.2,8,40.7,14.6,61.9,20.1
		c24.8,6.2,49.8,14.9,74.9,18.8c8,1.2,27.1,4.8,27.9-7.6c0.5-8.7-5.4-24.4-9.1-32.6c-11.1-24.5-31.5-35.4-53.3-49.2
		c-9.1-5.8-15.8-12.2-23.7-19.6c-8.3-8-16.9-20.8-30.1-19.6c-11,1.1-20.5,12.9-31.5,14.9c-7.8,1.3-18.5-2.5-25.5-6.4
		c-23.2-13-47-24.8-71.8-34.8c-21.6-9.1-40.6-24.8-60-37.7c-18.1-12.1-40.5-16.7-58.7-28.4c-21.3-13.8-21-37.1-12.3-58.7
		c7.6-18.8,25.5-36.2,25.3-57.1c-0.1-26.9-6-56.3-10.3-82.9c-3.5-22.5-9.5-44.6-14.5-66.7c-4.6-20.4-12.9-43.1-6.6-63.8
		c4-13.3,9.1-19.8,17.6-31c8.2-10.6,14.3-17.6,17.3-30.7c2.3-9.4-1.1-17.3-4.8-26l-20-44c-9.4-20.8-12.3-44.2-17.4-66.2
		c-1.9-8.6-3.1-21-9.4-28c-8-8.8-19.6,1.9-26.1,8.3c-16.2,16.1-20.9,35.2-18.5,57.9c2.4,22.6,10.6,43.1,8.2,65.8
		c-2.9,25.7-8.7,51.2-11.7,77c-2.3,20.9-0.5,42.9-5.6,63.2c-6,23.9-13.3,47.7-18.1,71.8c-5.1,25.7-9.1,49.7-17,74.5
		c-3.5,10.6-7,18.8-4.7,30.1c1.9,9.8,7.1,18.8,11.4,27.7l21,44.8c4.2,8.8,8.6,16.9,9.6,26.7c2.4,21.8-12.3,46-28.9,59.1
		c-9.8,7.6-18.5,12.2-29.7,17.4c-11,5.2-22.8,8-29.5,18.6c-11.3,18.5-4.7,44-5.8,64.5c-1.2,24.5-6.3,47.4,4.7,70.6
		c8.7,18.5,37.5,33.8,35.2,56.1c-1.3,12.2-11.8,22.6-17.8,32.6c-5.1,8.2-16.7,54.7-18.5,64.1 M2521.9,589.8c9.8-2.4,23.2-3.1,31.9-8
		c9.1-5.1,14.6-15.5,17.3-25.1c5.8-20.4,5.9-48.1-14.5-60.3c-17.6-10.6-44.9,16.1-57.9,26.5c-14.5,11.8-31.9,28.3-33.1,48
		c-0.5,7.4-2.4,12.9,4.2,17.4c4.4,3.1,11,4,16.7,4.4c11.5,0.5,23.9-1.9,35.4-2.8"/>
	<path class="st2" d="M2476.8,632c20.1-3.3,39.7-7,59.9-8.7c20.5-1.9,48.2,1.2,61.4-17.6c5.6-7.8,5.4-16.2,6.8-25.7
		c1.9-13,4.6-26.1,5.8-39.4c1.6-17.8-1.6-35.6-9.4-51.9c-8.7-19.2-19-37.8-30.7-55.3c-7.1-10.5-13.4-12.2-25.1-5.8
		c-8.2,4.4-14.1,12.1-19.8,19.2c-14.1,17.3-26.9,33.5-43.7,48.2c-17.4,15.3-34.8,28.8-47,48.8c-9.8,16.1-24,44.5-17.8,63.6
		c8.3,25.5,38.5,23.7,59.8,24.8"/>
	<path class="st2" d="M2508.1,644.5l57.1-5.6c15.3-1.6,35.9,0.4,48.2-10.9c11.8-10.9,10.5-30,11.8-44.6c1.7-19,4.6-37.9,4.2-56.9
		c-0.5-35.6-27.3-65.1-34.4-99.3c-3.9-18.5,0.4-38.2,2.1-56.8c1.3-16.9,6.2-31.5,11-47.8c4.2-13.8,13.8-36.7,1.3-49.4
		c-10.3-10.6-34.3-2.4-45.8,1.6c-11,3.9-42.5,12.7-39,29.5c1.7,7.9,10,17.3,14.3,24.3c4.3,7,8.6,14.9,9.9,23
		c6.3,37-27.5,70.1-46.9,97c-9.1,12.7-16.3,22-28,32c-14.5,12.7-29.2,24.9-41.9,39.4c-9.9,11.4-17,26.7-23,40.7
		c-6.6,15.8-16.3,34.3-13.5,51.9c5.8,36.4,58,40.5,86.4,37.1C2491,648.3,2499.7,646.1,2508.1,644.5 M2732.7-52.5
		c-6.4,3.5-16.3,9.1-18,17c-1.3,7.1,3.1,17.8,6.6,24.4c5.8,10.5,11.8,24.3,19.7,33.2c8.7,10,19,10.6,31.4,12.6 M2772.4,34.8
		c25.1-5.4,36.4-16.3,33.6-42.6c-1.1-10.3-3.6-20.5-5.6-30.7 M-172.2,137c11.1-3.3,22.5-8.3,34.3-8.2c23.9,0.7,32.3,22,41.4,40.5
		c9.1,18.1,20.5,38.7,14.6,59.8c-2.5,9.4-10,19.2-14.6,27.9c-5.9,11.4-12.6,22.5-18,34.2c-8.2,17.6-14.1,37.1-6.6,55.9
		c7.4,18.5,28.5,33.1,29.6,53.3c1.2,24.4-22,35.4-39.7,47.7c-7.1,4.8-16.5,10.6-18.2,20.2c-1.2,7.1,3.9,17.6,7.5,23.7
		c11.5,19.3,27.2,37.5,35.9,58.2c4,9.6,10,19.3,7.5,30.1c-2.9,11.4-15.3,16.3-22.8,24.4c-12.2,13.3-16.7,33.6-13.4,51.1
		c4.4,22.8,10.3,44.1,12.6,67.3c0.9,8.6,0.7,17.3,3.5,25.1c4.4,13.1,11.4,25.7,16.9,38.3c7.5,17,17,35.8,13.3,54.9
		c-1.9,9.6-6.4,19.7-14.7,25.3c-10,7-24.9,8.3-36,13.4c-9.1,4.2-16.7,10.9-24.9,16.6c-7.5,5.2-16.3,14.5-26.3,14.1 M681.9,983.1
		c-8.6-6.6-47-47-66.3-49.2c-10.5,1.7-16.1,8.7-23.2,15.8c-11.1,11.4-34.2,41.9-50.7,22.1c-7.1-8.7-11.5-20.5-16.5-30.4
		c-3.5-6.8-9.8-18.5-17.6-20.8c-9.5-2.8-15.8,8-20.9,13.9c-8.8,10.6-17.3,21.8-26.5,32c-5.2,5.8-12.2,14.3-20.4,15
		c-11.3,0.9-16.3-14.5-24.8-19.7c-8.7-5.6-18.6,2.7-27.5,5.8c-9.1,3.3-19.3,4.8-28.4,1.7c-24.4-8.3-22.6-32.7-22.6-53.6
		c0.1-22.2-9.4-37.9-33.1-41.1c-10.3-1.3-21-0.1-31.4,0.1c-9.4,0.1-21.7,2.8-30.3-0.5c-20.8-7.8-15.1-33.6-3.5-46.5
		c15.8-17.4,34.3-33.9,46.9-53.9c12.2-19.3,14.3-40.2,8.7-62.2c-5.2-21-22.2-35.2-30.7-54.5c-9.5-22.2,14.3-39.4,26.1-55.1
		c11.8-15.7,24.3-36.4,18.5-56.9c-5.9-20.9-33.2-29.6-50.1-38.7c-19.3-10.3-35.4-22.5-49.8-39.1c-12.9-15-24.8-31-17.8-51.2
		c3.3-9.9,9.9-22.5,8.8-33.5c-0.8-9.1-7.1-15.8-13.5-22c-17.8-16.7-35.4-29.2-27.7-56.1c5.9-20.9,21.3-34.8,13.1-57.5
		c-7.5-20.4-24.4-40.9-36.7-58.7c-12.2-17.4-27.3-29.6-44.4-41.9c-16.1-11.7-28.5-22.1-36.4-40.5c-16.9-39-43-84.7-39.1-129.3
		 M867.4-19.5c-9.8,16.3-19.6,31.4-30.8,46.6C825,42.8,807.6,60.6,805.2,81c-2.8,23.7,5.2,47.2,10,70.1c4.4,20.2,5.9,39.4,1.7,59.8
		c-4,19.3-13.5,37.7-17,56.9c-4,22.2-2.1,45.8-5.2,68.3c-3.3,23.3-9.4,46.6-14.1,69.8c-3.9,19-7.5,35.4-18.8,51.6
		c-12.9,18.5-20.4,33.2-6.6,54.4c18.4,28,64.5,85.4,30.6,116.8c-27.5,25.6-93.5,5.1-89,59.4c1.7,21.6,5.4,43.5,4.2,65.1
		c-1.2,22-4.3,45.4-0.1,67.3c1.7,9.8,5.1,19.3,9.6,28.3c5.2,9.8,13.8,18.6,17.8,28.9c3.6,9.4,2.4,15.3,0.7,24.5l-15.1,80.7
		 M914.1,997.5c0.7-11.8-0.1-22.8,2.9-34.2c2.9-10.3,7-18.6,11.8-28.3c8.6-16.9,18.6-44.6,41.8-39.9c20.1,4,36.6,23.7,53.6,33.8
		c17.8,10.5,36.7,17.4,56.3,24c20.8,7.1,44.1,18.1,66.7,15.8c24.9-2.4,13.8-29.7,3.3-41.4c-15.3-17.3-33.6-34.7-43.1-55.9
		c-3.1-7-7-20.2-3.1-27.7c5.2-9.9,18.5-9.4,27.9-9.4c42.7-0.5,84.7,10,122.3,28.9c17,8.6,39.4,24,59.2,16.3
		c9.4-3.6,17.6-11,25.3-17.4c7-5.9,19-14.3,20.8-23.9c1.7-9.5-9.2-16.5-15-22c-8.7-8.2-19.2-15.8-26.8-24.9
		c-12.2-14.5-16.9-36-32.7-47c-17.4-12.2-39.5-23.4-50.9-41.9c-10.9-17.4-13.4-39.5-24.3-56.5c-8.8-13.9-33.1-36.6-51.1-30.3
		c-20.2,7.1-25.1,35-47.8,38.9c-19,3.3-41.4-5.1-58.2-13.9c-20.2-10.9-39-23-58.3-35.5c-14.3-9.2-39.9-20.8-41.8-39.7
		c-2.1-21.6,29.2-30.1,42.9-40.7c17.4-13.5,21.6-36.7,10-56.1c-5.2-9.1-15.1-14.1-23.4-19.8c-8.8-6.3-15.7-15-19.2-25.2
		c-7.6-20.2-10.3-44.8-14.3-66.1c-3.6-18.6-8.2-38.9-8-57.9c0-11.7,2.3-22.8,10.5-32c6.4-7.4,18.6-12.7,26.8-18.1
		c8.2-5.4,19-10.3,23.6-19.3c3.6-7.5-1.3-19.6-5.6-26.1c-11.1-17.6-30.1-29.6-40.5-48.1c-11-19.7-20.2-37.1-23.9-59.8
		c-3.6-22.8-4.7-43,7-63.5c12.1-21.3,25.3-35,49.4-41.4c19.7-5.2,41.4,0.5,60.6-5.8c9.8-3.3,18.6-8.6,23.2-17.8"/>
	<path class="st2" d="M678-23.1c-11.1,6.8-21.4,15.7-32,23.6c-10.6,7.9-23,15-28.9,27.5c-4.7,10-0.4,21,5.8,29.6
		c10.9,14.9,23,28.5,34.4,42.9c6.8,8.3,15.7,17.3,19,28c9.9,32.6-38.7,23.2-57.4,26.7c-32.6,6.2-37.8,31.5-41.8,60.3
		c-3.9,27.9-5.1,54.4,1.1,82c5.2,23.7,26.3,49.2,20.5,73.8c-2.9,12.9-10,24.5-12.9,37.5c-3.3,15.7-3.9,33.2-9.1,48.4
		c-4.2,12.2-13.5,22.8-19.2,34.4c-5.4,11.4-5.6,20.8-5.9,33.1c-0.1,13.3,0,26.7-1.6,39.9c-1.6,13.3-3.5,26.1-2.1,39.5
		c2.4,22.8,13.8,62.8-7.6,80c-9.9,8-26.7,10-36.2,1.2c-9.9-9.2-14.3-24.8-26.9-30.1c-11-4.6-29.6,3.6-34.8-9.4
		c-5.4-13.4,5.2-31.4,6.8-44.2c1.7-13.9-1.3-22.1-7.5-33.9c-5.9-11.3-13.3-21.6-14.5-34.3c-2.8-29.6-4.3-55.9-18.2-82.5
		c-6.8-12.9-14.7-25.1-23.7-36.6c-8.6-11.1-13.5-19.8-6.4-33.8c10.5-20.8,40.5-44.2,21.6-69.3c-13.4-17.8-55.2-29.7-38.3-57.4
		c5.2-8.6,20.8-26,16.9-37.7c-3.5-10.3-18.8-15.7-27.3-19.6c-25.6-11.8-55.6-21.3-73.3-44.2c-9.1-11.8-11.8-26.8-19.6-39.4
		c-6.4-10.6-19.6-18.6-28.9-26.7c-10.6-9.1-19.2-15.1-24.4-28.4c-4.7-12.1,4.2-17.4,15.5-20.2c28.5-6.8,62-5.6,89-18.2
		c10.9-5.1,20.9-13.5,21-26.1c0.1-16.1-6.4-27.7-13.8-41.1 M1661.3,1021.9c10.6-10.9,24-19.8,33.6-31.5
		c18.8-22.8,13.1-49.8,8.2-76.2c-4.7-25.1-13.5-46.6-36.7-60.3c-12.6-7.4-26.9-13.5-37.8-23.3c-11.1-10-13.5-20.5-5.1-33.5
		c10.5-16.1,51.2-40.9,24.9-60.8c-24.3-18.2-51.9-24.8-81.2-17.8c-24,5.8-48.6,28-74.2,18.6c-13.3-4.8-22.1-17.6-33.8-25.1
		c-10-6.4-23-8.3-33.8-13.5c-16.9-8-53.6-39-42.9-60.8c5.2-10.5,19.3-16.2,28.8-21.4c15-8.2,30.7-15.7,45.3-24.8
		c22.6-14.1,41.7-34.3,63.2-50.1c11.1-8,23.2-15,34.7-22.5c10.6-6.8,22.2-11.8,27.2-24.3c8.8-23.2-25.1-51.7-42.5-61.8
		c-49.6-28.4-109.2-7.6-158.7,8.3c-15,4.8-30.3,11.5-45.8,15c-12.6,2.8-18.1-2.9-22.8-13.9c-5.2-12.6-10.9-25.7-24.5-31.2
		c-12.6-5.1-28-4.2-41.1-2.8c-27.5,2.8-51.9,15.5-76.8,26.7c-7.1,3.1-25.7,16.1-33.9,10.9c-10.3-6.6-1.3-24.8,3.3-32.6
		c8.8-14.7,20.5-28.3,28.5-43.5c6.3-12.1,8.2-21.3,4.8-34.3c-3.3-12.7-17.8-18.8-21.7-30.7c-4.2-12.2,17.8-15.7,26-17.4
		c16.2-3.6,33-5.9,49.3-8.7c8.3-1.6,26.5-1.7,28.4-12.9c1.7-9.2-11.1-18.1-18-23l-42.3-30.4c-22.6-16.3-44.1-32.6-65.3-50.7
		c-9.5-7.8-18.2-16.5-26.5-25.7c-5.9-7.1-24.9-22.6-17.8-34.2c11.8-19.6,64.6,1.1,79.1,4.4c26.1,5.8,50.9,9.9,77.3,13.3
		c27.1,3.5,56.1,9.8,83.5,8c7.1-0.5,33.2-1.9,32.3-12.6c-0.5-4.3-7.1-8.7-10-11.1l-22.1-18.8c-16.1-13.5-120.7-100-90.7-119.5
		c9.1-5.9,29.2-3.3,39.5-2.4c13.8,1.1,26.7,4.8,39.9,8.6c14.9,4.2,26.5,7.1,41.8,7.6 M2553.7-25.3c-7.8,8.2-21,21-7.8,30
		c11.4,7.6,28.4,10.5,41.1,14.9c24.5,8.3,50,17.6,57.6,44.6c6.6,23.3,2.1,55.6-16.7,71.8c-10,8.8-22.1,17-31,27.3
		c-10.9,12.3-18.2,27.7-28.9,40.5c-34.7,41.9-110.1,31.4-157.8,32.3c-24.4,0.4-50,0-73.8,4c-13.3,2.3-26.5,5.2-36.6,13.8
		c-10.9,9.2-11.7,23.7-2.3,34.7c16.9,20.1,55.6,23.9,78.9,30.1c23.3,6.3,47.6,13.9,69,24.9c11.8,6.2,27.3,15.1,25.3,30.8
		c-1.6,11.7-12.7,23.3-19,32.4c-7.6,11-14.5,23.3-24.4,32.6c-10.9,10.3-22.6,18-34.8,26.3c-22.8,15.5-29.7,40.1-38.7,65
		c-9.4,26.5-17.8,54.1-35.6,76.2c-16.5,20.2-39,34-52.7,56.9c-6.8,11.5-14.1,24.5-2.1,34c11.7,9.2,26.3,2.4,38.9-1.1
		c13.3-3.6,27.3-7.8,41.3-6.3c12.1,1.2,22.6,7.5,33,13.5c11.5,7,20.2,12.9,33.1,15.8c13.9,3.1,31.4,3.6,42.2,13.8
		c15.8,14.9,26.5,51.7,10.5,69.5c-17.3,19-51.6,24.3-74.9,31c-24.4,7.1-49.2,13.5-72,24.8c-26.5,12.9-56.5,25.3-77.2,47
		c-40.6,43.1,93,64.6,113.2,75c10.9,5.6,22.5,16.2,17.6,29.6c-3.9,10.3-18.1,12.7-27.2,15c-28.7,7-59.6,11.7-86.2,25.3
		 M2753.1,957.6c-0.5-26.1-6.6-62.6-39.1-64.3c-15.3-0.8-27.9,2.4-42.9,5.9c-12.1,2.8-26.1,8-35.5-3.5c-8.3-10.3-13.5-26-19.7-37.7
		c-5.1-9.5-13.8-20.9-15.8-31.5c-2.9-15,1.6-35,2.3-50.4c0.4-8.7-1.7-26.3,4.8-33.5c8.8-9.5,31.5,0.4,42.3,0.9
		c13.3,0.7,26.1-5.4,39.4-6c25.7-1.3,46.9,20.9,73.3,20.8c28.8-0.1,54.7-13.9,73-35.9c7.4-8.7,15.8-21.6,8.8-33
		c-2.8-4.6-10.5-8.8-14.5-12.2c-6.8-5.8-14.3-11.1-20.5-17.4c-18-17.3-26.8-40.2-48.9-53.3c-12.1-7.1-29.1-11.8-35.2-25.1
		c-5.4-11.5,0-24.9-0.4-37.4c-0.7-26.8-21.7-50.1-29.2-75.3c-3.5-11.8-5.1-27.9-0.8-39.5c4.7-12.9,16.3-17,28.4-20.9
		c12.1-3.9,27.9-6.8,38.2-14.6c11.4-8.7,3.3-22.5-4-31.5c-9.8-12.1-24.5-22-36.2-32.4c-9.5-8.6-14.7-19.2-19.6-31
		c-9.8-25.1-8-52.8-1.6-78.5c6.6-26.5,22.6-40.5,44.6-54.8c23.7-15.5,46.2-30.8,73.2-39.5c11.4-3.6,23-8.7,34.8-10.3
		c17.4-2.3,35.5-2.4,53.2-3.5c22-1.3,47.7-15.5,66.1-26.8c26.3-16.2,44.6-35.6,61.5-61.1c5.6-8.6,16.2-22.5,15-33
		c-1.7-14.5-21.7-9.2-31.2-8.6c-27.5,2.1-58,7.5-83.2-6.3 M3256,780.2c-14.5,2.3-28,9.8-42.3,12.6c-29.7,5.9-50.9-10.9-78.8-16.3
		c-25.5-5.1-54.4,2.7-78.5,10.5c-24.9,8-52.1,22.8-56.3,51.5c-4.2,29.5,14.9,59.2,25.7,85.4c3.6,8.7,9.9,22,1.7,30.1
		c-6.4,6.6-18.6,8.8-26.8,11.5c-31.2,9.9-64.3,18-94.6,30.1"/>
	<path class="st2" d="M2377.6-27.4c-10.9,4.6-41.3,13.1-38.9,29.1c2.7,17,30.3,26.8,44,33.6c18.8,9.2,37.3,18.4,56.7,26.3l42.2,17.6
		c7.4,2.9,15.3,5.2,19.6,12.6c11,19.7-13.9,41.9-30,48.1c-39.7,15.3-88.4,12.2-130.2,12.7c-18.2,0.1-37,0.4-55.2-0.4
		c-21.6-0.8-47-7.8-67.8-1.2c-24.4,7.9-26.7,26.8-28.7,49.7c-1.9,21.3-6,37.7-20.5,54c-8.2,9.4-18.5,17.6-27.5,26.1
		c-7,6.6-15.5,12.9-17,23.3c-3.9,23.6,15.8,38.9,34.4,48c37.7,18.1,82.3,5.2,117.9,30.3c8.7,6.3,14.5,11.7,11.7,23.6
		c-2.4,9.4-8.2,21-15.3,27.9c-8,7.6-18.6,9.9-28.5,13.8c-11.1,4.6-13.4,10-13.3,22.1c0.1,20.9,12.9,40.7,14.1,61.5
		c1.2,22.2-15.8,33-31.4,45.2c-18,13.9-39.4,26.7-52.8,45.3c-11.8,16.3-18.2,37.5-25.7,56.3c-8.6,21.3-15.8,42.9-22,65
		c-5.8,21.8-3.6,41.4-0.7,63.4c1.1,7.5,1.7,15.8-1.7,22.6c-4.7,9.2-14.7,18.1-21.4,26c-13.5,16.6-26.5,37.1-43,50.9
		c-5.2,4.4-19.6,17.4-27.3,12.3c-7.1-4.6,1.2-24.9,2.4-31c3.6-19.6,1.6-40.9-2.1-60.3c-4-20.8-11.3-40.5-13.4-61.5
		c-2.3-23.4-0.1-47,0.5-70.7c0.7-20.8,5.8-40.2,7.5-61c1.7-20.8-6.3-34.3-21.4-47.4c-18.2-15.7-34.3-28.9-48.4-48.4
		c-5.4-7.5-11.5-20.2-20-24.8c-10-5.2-12.2,5.6-15.3,13.4c-8,19.7-18.1,40.5-20.2,61.9c-2.1,21.4,7.4,47.6-2.8,67.8
		c-13.3,26.5-33.6-13.8-41.8-24.8c-13-17.6-30.8-31.4-46.9-46.1c-15.5-14.3-35-12.2-53.6-19.2c-24.4-9.2,7.9-39.9,14.1-51.3
		c10.9-19.7,3.9-42.2,1.2-63.2c-2.4-19.2,3.6-39.7,0.4-58.6c-3.6-20.5-30.3-27.9-47-34.3c-9.9-3.9-20.9-6.4-29.2-13
		c-9.2-7.1-11-20.2-19.6-27.5c-13.4-11.7-39.5-11.1-55.9-12.9c-21.7-2.4-46.1-8.6-67.9-6.3c-23.3,2.4-45.8,10-68.3,16.2
		c-11,2.9-46.1,14.5-44.2-6.4c1.1-10.3,7.9-20.4,9.6-30.7c1.7-9.4-1.6-24.5,8.3-30.3c8.8-5.1,24.4-1.9,33.8-1.3
		c10.9,0.5,20.8,1.2,31.5-0.1c22.5-3.1,44-17.4,64.3-26.9c19.2-9.1,41.3-11.7,61.6-16.3c14.9-3.5,45.7-7.5,38.7-29.1
		c-5.8-17.8-19.6-35.9-33.6-47.7c-9.1-7.6-52.8-29.2-45.2-45.4c3.5-7.4,15.1-9.1,22.5-10.6c13.9-2.9,28-5.4,41.8-8.8
		c8.3-2.1,18.1-5.2,23.9-11.5c6.2-6.8,7.9-17.4,9.1-26.3c3.1-23.4,6.3-44-1.3-67 M3268.7,471.9c-18.6,0.9-37.3-13.9-55.2-19
		c-22-6-40.1-4.2-62.2-1.3c-19.7,2.4-45.3,9.9-65,2.8c-8.7-3.1-16.3-10.6-23.4-16.5l-18-14.6c-3.4-2.5-10.6-6.6-12.7-10.3
		c-8.7-16.1,35.4-25.7,22.5-46.6c-8.7-14.1-30.7-22.1-46.1-26.7c-13.3-3.9-26.7-7.1-40.1-10.6c-9.9-2.5-22.2-3.9-31.5-8.6
		c-29.1-14.3,5.2-30.1,17.8-39.9c14.6-11.7,28.3-35.2,47.4-39.1c10-2.1,21.4,1.3,31.9,3.1c9.1,1.3,20.2,1.3,28.8,4.7
		c11.7,4.6,22.8,13.3,33.6,19.6c8.6,4.8,17.6,7.4,27.1,10.5c16.9,5.6,35.9,4,53.5,4.8l86,4c6.3,0.4,12.7,0,19-0.7
		c13.9-1.7,18.1-4,14.6-19.2c-4.6-19.3-13.9-41.3-31.8-51.9c-19.7-11.7-39.7-12.7-51.2-34.7c-10-19.3-7.6-35.9-30-45.8
		c-14.7-6.6-52.9-13-43.1-38.5c3.3-8.6,18.6-12.6,25.7-16.1c9.6-4.7,19.2-10.5,29.1-14.1c21.4-8.2,39.7-0.8,56.8,12.1 M3268.7,575.2
		c-17.6,9.9-31.5,28.3-52.4,31.4c-22.5,3.5-43.7,2.4-65.8,8.3c-12.7,3.5-51.7,20.1-62.3,6.8c-4.7-5.9-6-19.7-5.9-27.5
		c0.1-9.8,5.4-18.6,13.8-23.4c8.2-5.2,20.4-7.6,29.5-11l41-15.3c16.9-6.3,31.4-17.6,46.6-27.3l37.9-24.4c5.1-3.3,9.8-7.4,15.5-8.7
		 M-121-61c-3.5,17.4-19.2,32.6-24.9,49.7c-9.4,27.2,19.8,26.1,37.9,22.8 M861.1,528.1c17-13.4,24.5-30.1,25.7-51.9
		c0.9-18,0.9-40.9-3.1-58.3c-1.7-7.4-7.4-21-16.7-20.2c-7.6,0.9-12.1,11.4-14.5,17.6c-4.2,10.9-6.6,22.8-9.8,34
		c-3.3,11.7-8.2,23.7-10,35.5c-2.8,15.7,7.6,47,28.4,43.4 M848.3,866.2c24-9.5,40.1-30.1,61.9-44c18.8-11.8,41.9-12.7,62.2-21.3
		c23.2-9.9,38.2-29.2,53.3-48.6c6.2-7.8,15-18.2,8.3-28.4c-5.6-8.3-19.3-15.5-27.2-21.7c-20-16.1-38.2-31.2-62.2-41.3
		c-18.2-7.6-49.3-13.5-68.6-8.3c-20.8,5.6-35.2,26.5-52.1,38.9c-20,14.6-37.3,26-43,51.6c-2.9,13.5-4.7,27.3-4.7,41.1
		c0,15.7,3.1,26.3,10.9,39.7c5.8,10,15.1,17.6,24.5,24.5c5.6,4,11.7,10,18,13.1C835.2,864.2,842.4,864.9,848.3,866.2"/>
	<path class="st2" d="M1847.5,40.9c10-4.8,19.6-9.1,26.1-18.6c6.6-9.5,10.9-23,15.8-33.8c6.8-14.5,27.1-46.5,15.5-62.3
		c-6.3-8.6-20.5-7.5-29.5-4.7c-12.7,4-23,12.3-32.4,21.6c-17.3,17-21.6,40.5-27.5,62.8c-2.3,8.6-7.5,26-3.5,33.5
		c5.6,10.5,26.7,2.9,35.4,1.6 M97.8,950.9c-10-20-22.8-40.1-30.8-61c-8.3-22,3.3-43.7,10.9-63.9c4.6-12.1,8-25.1,13.5-36.6
		c4.7-9.9,11.7-19.3,17.6-28.7c5.6-8.8,12.3-19.3,9.1-30.3c-2.5-8.7-11.1-19.2-21-18.2c-18.6,1.7-33.2,41.9-39.9,56.1
		c-8.7,18.4-14.5,38.5-14.6,58.8c-0.1,21.4,4.8,41.8,1.7,63.1c-3.5,23.2-8.6,46.5-10.3,69.8 M-149.4,111.7
		c31.4-6.4,50.7,18.6,60.8,35.4s23.2,37.7,26.8,57.5c4.2,22.5-7.8,39.9-18.1,58.6c-10.3,18.6-22.6,38.2-25.6,59.9
		c-2.9,21,16.2,41.1,27.1,57.5c12.7,19.3,15.5,35.4,2.3,55.9c-10.3,15.8-33.5,27.1-36.4,46.6c-2.8,18.6,15,41.1,23.7,56.4
		c8.8,15.7,23,35.9,19,54.7c-2.5,12.9-8.3,15.5-18.6,23.7c-7.4,5.9-17.3,11.5-21.3,20.5c-9.4,20.9,4,41,7.5,61.1
		c2.9,16.9-3.3,35.2,2.7,51.6c14.3,39.5,41,82.3,20.1,124.8c-12.6,25.5-32.7,17-54.4,28c-18,9.1-27.9,32.4-49.4,34.8 M317.2,986.5
		c-14.3-18-8.2-42.6-5.6-63.4c2.8-22.6-14.3-30.7-34.3-28.5c-19.7,2.1-44.4,9.4-59.2-8.2c-13.8-16.5-12.7-40.9-0.7-57.6
		c23.7-32.7,69.8-56.8,64.5-103.2c-2.5-21.3-18.2-38.5-31.4-54.1c-6-7.5-15.1-15.7-16.2-26c-0.8-8.7,4.6-14.7,9.9-20.8
		c15.3-16.2,37.9-32.7,43.7-55.6c5.6-22.2-13.9-33.2-30-42.3c-16.5-9.4-35.5-18.1-48.6-32.2c-14.3-15.5-33.5-34.4-40.1-54.7
		c-3.6-11.5-1.2-19,1.2-31c1.7-8.8,5.2-19.8,1.6-28.7c-4-9.4-15.7-19.3-22.1-27.3c-6.6-8.2-11.7-15.1-14.1-26
		c-4.2-19.3,10.9-37.3,15-55.3c4.6-19.6-8.2-39.5-19.3-54.5c-12.6-17-24.3-32.7-40.7-46.1s-39.4-23.9-51.6-41.9
		c-11.3-16.7-15-39.7-20.8-58.6C12.3,50.3,6,30.9,2,10.1 M885-14.8c-8.6,15.7-18.1,30.8-28.7,45.3c-11.8,15.8-28.5,33.1-31.9,53.3
		c-3.9,23.6,2.7,45.7,7,68.9c2.9,16.6,4.6,33.8,1.6,50.4c-4,21.8-11,43.1-14.3,65.1c-3.1,20.8-2.1,41.9-5.6,62.7
		c-3.3,20.1-9.9,39.4-13.8,59.2c-3.9,20.5-5.1,42.3-13.5,61.6c-8.7,20.1-20.4,33.1-12.1,55.7c13.4,36.7,57.4,79.3,35.9,120.7
		c-9.1,17.6-25.7,26.3-44.1,31.8c-21,6.3-44.4,8.7-47,35.4c-1.7,19.7,3.5,40.1,2.7,59.8c-1.1,22.1-5.6,44-0.7,66.1
		c4.7,21.4,20.9,33,30.6,51.6c10.5,20.2-11,60.2-16.9,79.5 M886.6,994.7c1.6-20.2,5.2-36.4,13.9-54.7c9.1-19.2,16.2-45.2,31-60.3
		c37.5-38.9,72.4,16.1,104.5,33.1c9.4,5.1,52.9,19.2,50.1-3.6c-1.3-11-11.1-24.8-15.7-34.7c-4-9.2-6.6-19.2-7.8-29.1
		c-2.8-19.7,8.3-38.5,29.5-39.5c20.4-1.1,43.4,8.2,62.8,12.6c41.9,9.6,83.2,21.8,123.8,36.2c16.3,5.9,44.6,4,42.7-19.3
		c-0.7-8.8-6-15.5-10.6-23l-23.2-38.5c-9.9-16.5-23.4-26-39.1-37c-8-5.6-17.8-10.9-24.5-17.8c-6.7-7-11.1-15.7-15.5-24.5
		c-7.8-15.8-18.8-45.7-41.1-45.2c-20.9,0.4-26,32.4-48.6,30.8c-44.2-3.1-83.7-28.7-119.7-52.3c-27.5-18-94.1-38.2-65.7-82.3
		c11.7-18,32.4-22.1,46.6-36.6c20.5-20.9-10.9-32.6-21.7-45.7c-11.7-13.8-12.2-33.5-15.5-50.4l-16.7-88.2
		c-3.1-16.3-6.8-31.9-1.3-48.1c2.7-8.6,7.4-16.2,13.5-22.5c7.9-8.2,20.1-15.1,26.3-24.5c12.6-18.8-10.9-43.5-20.2-58.6
		c-9.8-15.7-17.8-31.9-21.7-50c-5.2-23.9-10.9-45.3-9.2-69.7c1.2-18.5,12.9-37.9,25.1-51.6c13.5-15.1,31-22.1,50.5-24.8
		c18.8-2.5,48.2-1.2,58.4-20.4"/>
	<path class="st2" d="M-148.9,189c24.9,13.9,3.6,45.4-5.2,62 M785.9,9.3c-16.1,17.3-37.8,29.6-49.4,50.5
		c-12.1,21.6,12.1,49.8,20.8,69c8.3,18.6,20.4,44.6,13.1,65.5c-7,20.2-30.3,39.4-50.7,44.5c-13.9,3.5-23.7-0.7-37.8-3.1
		c-10.3-1.9-21.7-2.3-29.2,6.8c-7.1,8.6-5.8,23.3-3.1,33.1c3.5,12.7,9.8,21.4,17,32.4c6.6,10.3,12.9,21,18.5,32
		c5.8,10.9,12.9,18.5,21,27.7c16.9,18.8,21.6,41.4,1.1,60.4c-8.3,7.6-20.9,12.7-28.3,21.4c-7.8,9.2-7,20.4-3.6,31.4
		c7.1,24,24,44.9,31.2,69c3.3,10.6,4.8,20.9-4,28.5c-9.2,7.9-21.7,12.3-31.5,19.6c-19,13.5-38.2,31.4-39.1,55.9
		c-1.2,27.5,3.9,53.2,8,80.3c3.5,22.6-1.9,45.2-1.6,67.8c0.1,12.7,2.7,25.6,3.5,38.3c0.9,11.1,1.2,21.3-11.3,24.8
		c-11.1,3.1-26.7,1.2-38.2,0.7c-9.2-0.4-17.6-1.3-23.9-8.6c-15-17.6-20.2-51.2-44.4-59.2c-25.1-8.3-45.2,19.8-62.2,33.5
		c-7.6,6.2-17.6,11.1-27.3,10.9c-12.9-0.4-26.3-7.4-38.2-11.3c-10.3-3.5-20.9-6.3-31.8-8.2c-9.1-1.7-28-2.1-32.2-12.7
		c-3.9-9.4,2.7-27.9,4.2-38.2c1.2-8.8,2.1-18,2.4-26.9c0.9-25.1,4.4-50.5-4-74.8c-3.3-9.9-8.8-21.3-7.1-32
		c2.1-12.6,9.4-26,13.8-37.8c8-22.1,19.2-44.9,19.3-69c0.1-25.5-12.3-38.7-33.5-49.4c-23.7-12.2-51.3-22-69.1-42.9
		c-18.5-21.7,6.3-47,15.8-66.9c4.8-10,7-18-2.9-25.6c-9.5-7.5-23-10-33.1-16.7c-9.2-5.9-17.6-13.3-14.3-25.1
		c3.6-12.9,17.3-22.8,21.6-35.4c3.3-9.5-1.3-15.8-6.8-23L208.2,207c-14.3-18.6-20.8-41.9-33.1-61.8c-11.5-18.5-33-33.1-49.3-46.9
		c-19.3-16.3-36-35.6-49.4-57.1C64.3,22.7,56.7-2.2,82.7-11.5c23.6-8.3,52.4-7.5,77-9.5 M1007.2,1007.4c9.8-19.8,43-4,58.7-0.1
		c25.6,6.2,51.5,13.8,77.3,18.5c22.8,4.2,50.7,10.5,73.8,5.1c27.1-6.3,16.3-45.2,14.6-64.6c-0.7-7.5-3.6-25.5,6.2-29.2
		c10.6-4.2,25.5,11.5,32,16.6c18.8,14.3,36.7,24.9,60.2,12.9c11.4-5.9,21.8-18.1,35-15.1c11.1,2.4,19.6,10.6,30.1,14.5
		c26.5,9.6,39.5-17.8,63.6-17c13.3,0.4,29.2,7.9,42.2,11.4c8.2,2.4,16.7,3.6,25.3,3.5c23.2-0.4,52.9,4.4,74.8-5.6
		c11.5-5.2,19.6-17.4,13.5-30c-4.3-9.2-13.5-14.3-22.2-18.2c-13.9-6.6-29.1-12.3-42.5-20.2c-9.2-5.4-17.4-13.3-25.7-20
		c-7.8-6.3-15.5-13.5-24.3-18.5c-13.4-7.8-27.9-13.9-41.8-20.9c-18.5-9.2-32.2-26.1-49.6-37c-21.3-13.3-44.9-18-57.9-41.3
		c-5.8-10.6-10.9-24-18.8-33.1c-8.6-9.5-21.6-16.1-32.2-22.6c-20.9-12.9-31-33.6-22.6-58c16.6-49.2,80.5-56.9,119.7-80.7
		c6.2-3.6,19-12.3,19.3-20.5c0.5-11.8-19.6-11.3-27.7-11.3c-25.1,0.5-50.1,4.7-74.2,12.1c-22,6.8-42.6,18.4-65,24.3
		c-11.1,3.1-25.2,5.9-33.1-5.2c-7.4-10.5-6.3-26.5-13.5-37c-20-28.7-89.5,63.8-103.3,71.6c-17.3,9.9-55.7,1.2-57.6-22.6
		c-0.8-12.2,11.4-24.5,15.5-35c4.4-10.9,3.5-20.5,3.1-31.9c-1.1-26.8-0.1-53.5,2.9-80.1c1.1-9.4,3.6-23.7-7.1-28.5
		c-9.2-4.2-22.5-0.4-32.6-2.9c-23.7-6.3-30.8-38.5-32.4-59.9c-0.8-12.9,0.9-24.5,9.1-34.4c6.4-7.8,17-12.2,25.7-17.3l42.3-25.5
		c7-4.2,17-10,21.3-17.3c10.3-18.2-30.8-49.2-40.7-59.4c-31.8-32.6-84.7-51.2-78.5-105.2c1.2-11,6.6-22.2,16.1-28.7
		c9.5-6.4,20.4-5.4,30.8-5.6c11.8-0.4,24,0.4,35.4-1.6c13.5-2.3,27.1-7.5,40.6-8.8c11.7-1.1,22.2,1.1,33.5,3.6
		c9.1,2.1,27.7,9.2,35,1.1c6.2-6.8-1.2-17.4-4.2-24.5l-20.2-47.6 M2574.5,983.7c-16.3-17.4-12.6-44.9-23.3-65.1
		c-11.7-21.6-39.1-27.2-61.5-28.3c-26.3-1.2-49.4,0.5-74.5,8.8c-8.8,2.9-24.8,7.4-26.9,18.1c-2.4,11.1,15,22.1,21.4,28.3
		c17.6,16.6,28.8,34,28.9,59.2 M3247.5,1011.1c-19.7-15.5-12.9-49.3-15.3-71c-2.4-21-13.8-38.2-34.4-44.4
		c-11.5-3.5-23.4-6.3-34.8-10.6c-12.6-4.7-24-12.2-36.7-16.7c-9.1-3.1-26.5-7-31.9,4.2c-4.7,9.6,3.5,24.3,6.4,32.7
		c7.6,22.1,16.2,44.1,17.8,67.4"/>
	<path class="st2" d="M791.2-22.8c-11.1,16.3-27.5,28.4-43.4,39.9c-16.2,11.7-45.4,26.1-42.5,50c2.8,22.2,23.3,41.9,33.1,61.5
		c8.7,17.3,22.5,45.3,9.4,63.6s-37.8,23.9-58.6,20.9c-24-3.3-51.6-9.9-61,19.7c-15.8,50.4,23.3,93,48,132.8
		c9.2,15,24.3,32.3,9.1,48.2c-8.8,9.4-23,14.5-31.5,24.3c-8.4,9.8-8.7,21-6,33.1c5.1,22,25.1,40.7,22.6,64.5
		c-1.1,10.9-9.2,22.8-13.5,32.7c-4.6,10.3-12.7,17.4-20.4,25.7c-8.3,9.1-13.8,15.7-19.2,26.7c-5.8,12.1-5.4,23-5.9,36.2
		c-1.1,22.8,7.6,45.8,10,68.6c2.4,22.8-1.2,44.2-4,66.9c-2.3,17.8-4.3,55.3-32.4,39c-18.2-10.9-24-38.5-37.9-54
		c-18-20-42.5-6-62,3.3c-9.8,4.7-19.7,10.9-30.1,13.8c-13.5,3.9-21.4-3.1-28.3-14.3c-5.9-9.5-10.3-19.2-22.5-13.5
		c-9.8,4.6-20,16.1-31.8,14.6c-18.6-2.3-16.3-38.5-15-52.3c2.4-23.7,10.6-52.7,3.3-75.6c-2.9-9.2-7-19-5.9-28.7
		c1.2-12.3,6.3-25.5,9.2-37.7c5.4-22,14.5-45.8,13.9-69c-0.5-24.4-12.3-39.4-33.2-50.4l-43-22.2c-7.6-4-16.2-8.7-21.3-15.7
		c-16.7-22.5,8.8-44.1,22.8-59.2c5.8-6,20.2-17.6,18.4-28c-1.7-9.5-23.3-12.6-30.1-14.7c-9.5-3.1-20.5-5.8-28.5-12.2
		c-10.3-8.3-5.2-17,0.4-26.3c6.2-10.3,15.5-20.9,15.1-33.6c-0.4-9.5-7.4-16.5-14.1-22.8c-18.6-17.6-37.3-30.4-50.1-53.5
		c-9.9-17.4-12.7-39-27.2-53.6c-19.8-20.2-43-37.7-63.8-57.1c-12.1-11.3-30.8-30.7-34.8-47.4c-9.8-39.9,109.2-29.6,127.7-32
		c8.8-1.1,20.1-3.5,26.7-9.5 M1620.9,972.9c20.4-11.3,28.4-32.6,15.7-53.3c-14.6-23.9-37.3-28-61.4-38.7c-9.5-4.2-18.2-10.3-25.5-18
		c-7.8-8-12.1-18.2-19-26.9c-15.5-19-44.6-17-65.7-26.8c-18.6-8.6-33.8-24.3-52.1-33.8c-11.1-5.8-24.9-10.3-34.8-17.8
		c-9.9-7.5-14.5-19.8-19.7-30.4c-4-8-8.7-15.8-15.5-21.7c-10.9-9.1-24.5-14.6-35-24c-19.6-17.8-18.2-38.3-3.1-58.3
		c12.2-16.1,34.3-25.2,52.7-32.4c24.4-9.5,48.2-17.8,70.3-31.5c15.7-9.8,36.7-29.5,41.4-48.1c6.8-26.5-28.5-20.5-44.2-17.6
		c-50.5,9.6-99.3,25.6-148.2,41c-17.4,5.4-40.6,11.7-41.7-12.7c-0.5-10.6,1.9-27.5-3.9-37.3c-6.6-11.5-21-6.6-30.8-3.3
		c-18.8,6.3-34.7,20.1-48.6,34c-11,11.1-21.7,22.5-32.7,33.8c-7.4,7.5-14.3,16.6-24.3,20.8c-8,3.3-22.1,4.6-24.3-7
		c-2.1-12.1,5.8-28.4,6.8-40.6c1.9-20.8-5.9-41.9-4-62.7c2.4-26.3,13.5-49.4,19.7-74.9c2.1-8.6,4.2-17.6-5.1-21.4
		c-11.8-4.7-26.1,3.1-38.2,4c-12.2,1.1-19.8,0.1-28.9-8c-7.5-6.6-11.8-19.7-12.7-29.6c-2.3-26.1,20.5-38.5,40.2-49.8
		c20.5-11.7,44-18.8,63.9-31.4c22-13.9,4.4-32.4-9.1-45.3c-19.6-18.2-39.1-37.1-59.8-54c-16.1-13.3-37.7-21.7-50.4-38.9
		c-13.3-17.6-13.4-46.6,9.6-55.2c11.1-4.2,24-3.1,35.8-3.6c10.5-0.7,20.8-2.1,31-4c11-1.7,22.2-5.1,33.5-4.2
		c12.2,0.9,23.3,4.7,34.8,8.2c10.5,3.1,60.6,23,64.9,2.3c1.7-8.7-6.4-19.6-10.5-26.3c-8-13.4-16.1-26.8-23.9-40.5 M2653.2,993.2
		c-9.8-16.7-35.2-13.4-51.3-19.3c-22-8.2-23.3-27.7-27.5-47.8c-3.6-18-9.9-34.7-26.5-44.4c-33.2-19.8-77.2-16.5-113.8-8
		c-21.4,4.8-42.5,11.5-62.8,19.7c-13,5.2-41.9,19.2-24,33.5c28.3,22,76,32.4,74.2,76.1 M3256.9,959.5c-10.5-31.5-6.4-85.2-47.8-93.9
		c-12.2-2.5-24.9-2.1-37.1-4.6c-6.6-1.2-12.7-4.3-19.2-7c-18.6-7.6-38.7-20-59.6-18.1c-19.3,1.7-37,13.1-32.4,34.2
		c4.6,21,17.4,40.1,26.5,59.4c8.2,17.4,10.9,34.7,12.3,53.5"/>
	<path class="st2" d="M755.1-11.3c-18.8,15.1-42.5,24-61.5,39c-8.8,7-19.2,15.7-18,27.9c1.2,12.2,10,21.8,16.6,31.4
		c13.3,20.2,32.6,43,37.3,67.4c2.7,13.4,1.7,25.1-11.1,33c-10.3,6.2-19.8,5.2-31,4.4c-21.7-1.6-53.3-8.7-68.5,12.2
		c-15.7,21.6-12.6,54.7-8.6,79.3c1.6,9.9,5.4,16.2,10.3,25.3l25.6,47.2c4.8,9.1,9.6,16.6,11.8,26.5c1.7,7.6,3.3,10.9-1.1,17.6
		c-3.3,5.1-7.8,9.1-12.2,13.4c-8.8,8.8-16.5,17.4-20,30c-3.6,13.1-0.7,23.9,2.7,36.4c2.9,11,7.5,22.6,5.1,34
		c-2.5,12.6-9.4,23.6-11.5,36.6c-2.5,15-9.5,23.6-18.1,36.2c-6.3,9.2-9.5,17.6-9.5,28.8c0,26.7,1.9,53.3,5.6,79.7
		c3.5,24.4,7.9,47.2-3.5,70.3c-8.8,18.5-18.1,2.8-27.5-7c-8.3-8.7-16.2-14.7-28.9-15.5s-25.7,3.9-37.7,7
		c-10.6,2.8-25.5,9.6-36.6,6.3c-13.8-3.9-13.9-20.4-25.2-27.2c-10.6-6.3-24.9-2.4-36.6-0.5c-5.6,0.9-11.5,3.5-16.2,0.9
		c-5.1-2.9-5.8-10.3-5.8-15.5c0.1-13.8,5.4-28.9,7.9-42.5c4.4-24,2.8-48.2-0.4-72.2c-6-46.9,24.5-101.4-17.4-138.8
		c-9.5-8.6-21.3-13.9-32.4-19.7c-10.6-5.6-25.6-10.6-33.1-21c-15.5-22.1,25.3-45.2,37.1-57.1c6.8-7,17.4-18.2,14.5-28.9
		c-3.3-11.7-19.3-15-29.2-18c-9.9-2.9-26.1-5.8-31.4-15.8c-5.6-11,6.2-26.8,9.1-37.4c8.6-30.1-14.7-41.7-36.6-55.9
		c-20.5-12.9-36-32.2-44.2-55.1c-3.9-10-7.4-20.8-14.3-29.1c-8-9.8-19.2-17.8-28.4-26.3c-18.2-16.9-42.5-33.6-55.9-55.1
		c-17.6-28.4,13.8-31.4,34.2-32.6c26.8-1.6,55.6-0.5,82.3-5.1c10.5-1.7,29.6-5.9,35.5-16.3s-0.7-25.2-6.3-34.2 M1627.8,993.9
		c8.8-5.4,21.3-13.8,27.9-21.7c16.3-19.7,9.9-47.6-2.9-67.3c-16.7-25.5-40.2-26-65-39.7c-11.8-6.3-20.9-17-24.8-30
		c-3.9-12.1-0.4-26.1-3.9-38.3c-4.2-14.5-15.8-10.5-27.2-7.8c-12.2,2.8-24.4,5.9-37.1,4.7c-26-2.4-44-19.6-65.7-32
		c-11.7-6.8-26.3-11-36.7-19.2c-8.7-6.8-14.3-18.8-20-28c-7.1-11.8-12.6-16.7-23.7-25.5c-11.1-8.7-23.2-15.5-30.3-27.5
		c-14.3-24.4,19.3-46.4,37.8-55.6c22.5-11.1,48-16.3,70.3-27.5c23-11.3,40.5-30.1,57.6-48.6c14.3-15.5,39.4-40.5,13.8-57.1
		c-22.2-14.6-53.5-7-77.3-0.8c-24.5,6.3-48.6,15.7-72.6,23.9c-21.3,7.1-48.2,20.8-71.4,20.1c-27.9-0.7-10.3-42.9-24.5-58
		c-16.5-17.6-50.5,0.4-66.7,10c-23,13.9-39.5,34.8-61.5,49.7c-13.9,9.4-20.9,1.6-26.1-11.5c-4.6-11.3-8-22.8-8.7-35
		c-1.2-25.1,8.8-49.6,20.1-71.6c9.6-19.2,33.2-52.3-0.7-60.3c-21.4-5.1-54,18.4-72.1,1.9c-42.6-38.9,84.6-75.7,104-82.7
		c7-2.5,23.9-6.8,23.9-16.1c0-10.9-17.4-23.9-24-30c-18.1-16.9-38.3-31.4-56.9-47.8c-19.6-17.4-37.4-34.7-58.3-50.4
		c-8.8-6.8-20.9-14.3-20-27.3c0.7-11.7,12.7-15.7,22.6-18.1c15.7-3.6,32.4-4.7,48.4-7c11.7-1.7,21.8-3.9,33.2-2.1
		c27.3,4,53.5,15.1,80.1,22.2c13.1,3.5,59.8,11,54.4-13.3c-1.9-8.6-9.8-16.5-14.7-23.9l-31-45.3 M2700.4,986.5
		c1.9-9.9,6.4-25.7-2.9-33.5c-9.8-8-24.4-4-35.4-2.9c-23.7,2.3-53.9,9.6-64.1-18.5c-4.6-12.2-4.6-26-10-37.8
		c-6.4-14.1-14.5-20.8-26-30.7c-9.4-8.2-21.4-16.2-33.6-19.6c-10.6-2.8-25.2-0.1-36.2,1.3c-26.8,3.6-54.4,9.9-80.7,16.3
		c-20.9,4.8-41.4,11.8-61,20.9c-11.1,5.4-67.8,27.1-46,46.6c19.7,17.8,51.7,21.6,74.5,33.5c22.8,11.9,32.3,32,27.5,56.9
		 M3271.2,918.9c-5.1-17.6-9.5-35.5-15.3-52.8c-3.5-10.3-8.8-20.9-19.2-25.5c-13.4-5.9-30.4-3.1-44.4-2.9c-15.3,0.1-23-2.3-37.7-7.8
		c-26.7-10.3-50.5-18.8-79.6-11.5c-11.5,2.8-29.1,9.8-34.8,21.4c-6.4,13.1-0.4,28.8,4.4,41.1c9.4,24.4,28.3,44.9,33.8,71
		c3.1,14.3,6.8,30.7-0.5,44.6c-6.4,11.8-18,12.3-29.7,13.3c-31.4,2.1-59.8,7.6-90.6,14.3 M2345.6-37.7c-9.5,3.3-20.5,5.6-28.5,11.5
		c-14.3,10.5-14.7,21.6-6.6,36.6c11.7,21.4,44.9,30.1,65.5,39.9l53.3,25.1c8.6,4,17.4,7.4,24.9,13.1c14.1,10.6,16.9,21.4-0.7,31.2
		c-9.9,5.4-26.1,8.8-37.3,10.9c-26.5,4.6-55.2,3.1-82,3.1c-29.2,0-56.9-0.7-85.9-4c-28.9-3.3-58.2-11.5-76.6,18.1
		c-14.5,23.2-0.7,52.7-12.2,76.6c-12.3,25.5-42.9,32.4-55.9,56.8c-14.6,27.2-8.6,53.9,16.2,72.4c13.3,9.9,23,14.3,38.7,19.7
		c13.4,4.6,26.5,5.1,40.6,6.3c12.7,1.2,25.7,1.6,37.5,7.4c12.1,5.9,24.4,17.8,7.6,27.2c-15.1,8.6-75.6-3.6-74.5,20.4
		c0.5,12.3,18.5,21,25.6,29.6c8.8,11.1,15.1,24,18.8,37.9c3.5,12.6,2.3,24.5-6.8,34c-9.1,9.5-20.2,16.3-29.1,26.1
		c-9.5,10.6-21.7,21-29.2,33.1c-7.1,11.4-11,24.9-15.3,37.5c-9.5,27.1-19.2,52.8-33,78c-5.6,10.5-13,31.4-24,37.5
		c-11,6.2-12.3-13.3-12.6-21.4c-0.7-31,3.6-62.8,1.1-93.9c-2.5-31.1-19.2-54.1-33.9-80.8c-5.8-11-13.5-20.5-23-28.4
		c-9.4-8.2-18.1-15.1-23.4-26.5c-12.9-26.9-18.1-54.4-51.9-60.6c-32.4-6-49.8,27.2-66.2,48.9c-7.5,9.8-12.6,18.6-26.1,17.8
		c-13.9-0.8-28.7-6-37.8-16.9c-17.4-20.9-22-47.2-10.9-72.1c5.8-13,17-25.5,17.3-39.9c0.4-16.9-12.2-23-24.5-32.7
		c-4.3-3.3-10.9-6.6-14.1-11c-4.3-5.8-5.9-16.5-8.6-23.3c-4.8-13-12.3-19.7-26.1-22.1c-28.5-5.2-59.6-3.3-88.7-4.6
		c-15.3-0.7-31.2-0.5-46.5-1.9c-9.2-0.8-23.4-1.6-29.7-9.2c-9.4-11.1,9.2-22,18-26.8c12.9-7,26-10.5,40.6-12.9
		c27.2-4.6,56.4-0.7,81.9-12.3c13.4-6,16.7-17.3,14.3-31.4c-1.9-10.9-12.9-27.7-8-38.9c5.8-13.4,23.7-11.7,35.4-11.8
		c14.5-0.1,28.9,0.9,42.9-3.1c25.6-7.6,38.5-36,64.1-44.4c12.6-4,30-7,40.1-16.5c8.7-8.3,15.3-21.7,19.2-33.1
		c4.4-12.7,7.9-26,13.5-38.2c7.5-15.8,16.9-31,24.4-47 M2680.7-42c-0.1,13.4,13.3,26.8,20.5,37l24.8,34.3c3.9,5.2,7.5,12.7,12.3,17
		c14.9,13.3,37.7,5.9,54.7,3.3 M2793,49.5c12.9-5.9,34.4-11,37.7-27.3c3.5-17.8-5.1-39.1-7.6-56.5"/>
	<path class="st2" d="M2658.2-27c9.4,13.9,24.4,25.1,35.4,37.7c8.6,9.8,13.5,22.6,19.7,34.2c5.9,11.1,11,22.6,24.5,25.6
		c12.6,2.7,27.9-2.1,40.7-3.9 M2778.5,66.5c23.7-7.1,52.1-11.5,73-25.5c20.1-13.4-5.8-42.9-8.8-60c-2.5-14.1-4.8-26.3-2.9-40.7
		 M193.9,991.1c-20.8-20.8-29.5-52.1-40.5-78.3c-4.7-11.1-11-22.2-12.7-34.3c-2.5-18.2,0.9-28.5,6.6-46c9.4-28.3,33-46.4,53.3-67.3
		c23.7-24,4.4-46.5-12.6-67.4c-16.2-19.8-39.4-46.5-37.7-73.7c1.1-15.8,11.4-25.6,19.2-38.9c8.6-14.5,4.2-23.4-4.2-36.7
		c-16.1-25.5-38.5-47-56.5-71c-7.1-9.1-12.7-19.2-16.3-30.1c-4.7-15.1-3.6-30.8-7.1-46.1c-6.3-27.5-25.6-47.6-22.6-77.9
		c2.3-22.6,19.2-59.2-10.5-72.1c-27.5-11.8-55.7,28.4-69.3,47c-19,26.3-2.8,53.9,10.3,78.4C6,400.6,11.9,422.3,6.4,449.2
		c-5.6,26.5-16.7,56.1-14.6,83.6c2.4,34,13.8,67.3,17.3,101c5.6,54.7-47,97.5-34.8,152c5.6,25.5,11.4,50.1,10,76.5l-5.2,113.2
		 M-149.3,514.6c6.2,10.9,21.3,40.7,15.3,52.4c-6,12.1-17.6,17.4-20.4,31.4c-4.8,23.9-1.2,50,2.8,73.7c4.4,26,5.4,54.1,16.3,78.3
		c10,22.2,29.6,51.6,28.8,77.6c-0.5,16.1-13.3,19.8-25.6,24.8c-12.9,5.1-25.1,10.5-37.4,16.9c-10.6,5.4-20.2,6.8-29.7-1.6
		 M-179.6,156.2c12.6-3.9,26.1-9.2,39.5-8.2c12.7,0.9,18.8,9.4,24.5,19.7c7.4,13.1,13.8,24.9,16.2,40.1
		c4.4,26.5-18.1,53.9-29.7,75.8c-10.3,19.2-20,44-12.3,65.7c8.2,23.6,39.4,54-7.6,85.8 M847.9-19.8c-14.3,24.4-32,45.7-49.2,68.3
		c-15.1,20.1-16.3,37.5-10.5,60.8c7.4,28.3,17.8,56.8,15.8,86.4c-1.7,25.7-19.6,47-25.1,71.6c-5.2,22.8-0.1,48.2-3.5,71.6
		c-2.3,15.3-6,30.7-9.1,46c-2.4,12.9-3.6,27.2-7.8,39.7c-3.6,11.1-10.3,20.1-17.8,28.5c-9.4,10.9-19,19.2-17.6,34.4
		c1.1,10.6,5.9,19.2,11.5,27.9l29.5,44.9c12.2,18.8,21.8,48.4-3.3,61.4c-21.7,11-51.6,1.7-72.1,18.1c-20.5,16.3-16.9,45.4-13.5,68.6
		c1.7,12.9,4.7,26.1,5.2,39c0.5,15.5-1.7,31.4-1.7,46.9c0,26.3,6.2,48.2,18.1,71.4c11.7,22.5,15.3,47,0.7,69.5
		c-9.1,13.9-17.8,5.2-28.7-1.7c-11.5-7.4-22.6-16.1-35.2-21.3c-12.1-4.8-25.2-6.3-37.3,0c-10.3,5.4-16.2,18.5-26.3,24
		c-7.4,4-11.1,4.6-17-0.5c-4.2-3.3-7.6-7.4-10.5-11.7c-7.4-11.3-12.6-28-22-37.7c-23.9-24-42.9,20.5-56.4,34
		c-12.2,12.1-18,9.2-30.8,1.1c-10.5-6.6-20.5-9.5-32-3.6c-9.8,4.8-24.5,23.2-33.2,7.4c-5.9-10.9-3.3-25.6-8.8-37.1
		c-11.8-24-35.4-29.6-59.9-31.4c-12.3-0.8-30,1.6-39.9-5.6c-10.3-7.4-3.5-18.2,2.7-26.7c18-24.4,39.5-40.9,47.4-71.4
		c5.9-23,0.4-48.6-10-69.5c-5.8-11.5-16.3-24.9-15.3-38.7c1.1-13,12.6-25.7,19.3-36c13.8-20.9,27.3-44,22.2-69.7
		c-5.1-25.7-38.3-37.1-58.6-48.2c-20.8-11.5-44.2-24.5-54.8-47.4c-6.4-13.9-2.5-23,2.4-36.2c4.2-11.1,11.5-24,7.4-35.6
		c-8.6-24.5-49.2-27.2-46.5-57.4c1.2-14.7,12.1-28,17.3-41.7c3.1-8.2,1.7-18-1.9-26c-6.3-13.8-16.5-26.8-24.5-39.9
		c-7.6-12.6-14.6-26.3-23.4-38.3c-15-20.4-37.9-30.8-56.1-47.8C67.4,101.9,58,73.4,46,49.9c-10.5-20.8-19.6-47-13.3-70.2
		 M939,1015.5c5.1-12.2-0.1-25.1,0.5-37.4c1.1-13.9,5.9-27.2,14.1-38.5c18.6-26,48.4-2.1,68.6,9.1c24.4,13.4,49.8,22.8,75.8,33.1
		c20.8,8.2,48.4,15,71,12.2c32-4,21.3-44.6,11.4-63.9c-7.5-14.6-44.8-44.8-33.2-64.6c5.8-9.8,29.1-9.2,38.2-8.6
		c11.7,1.2,23.3,3.9,34.3,8c26.8,9.6,44.2,31,68.9,44.1c25.7,13.8,45.3-17,66.2-28c10.6-5.6,21.8-9.4,33.1-3.5
		c9.4,5.1,22.6,22.8,33,9.1c8-10.6-4.8-23.7-10.3-31.9c-7.6-11.8-13.9-23.9-24.8-33c-19-16.2-44.2-23.4-58.8-44.4
		c-7.8-11.3-12.7-26.7-22-36.7c-8.6-9.2-23-16.1-33.5-23.2c-23.2-15.8-28.5-35.6-34.4-61.8c-2.8-12.3-4.7-25.2-14.3-34.4
		c-10-9.5-22.8-16.9-33.9-24.9c-9.5-6.8-19.3-13.5-31.5-8.8c-10.5,4.2-18.8,15.3-26.1,23.3c-9.1,9.8-16.5,21.8-30.7,24.5
		c-11.8,2.4-26.9-2.1-37.9-6.3c-22.6-8.6-46.9-25.5-65.3-40.5c-8.3-6.8-23-19.3-13.8-31.2c7.5-9.5,21.4-15,30.6-23.2
		c19.8-18.2,18.5-47.8,11.8-72.2c-3.5-12.9-10.6-19.8-21.6-26.5c-13.9-8.3-21.3-13.4-28-28.9c-9.5-22-11.7-49.3-14.5-73
		c-2.9-25.6-9.2-49.3,17.4-63.5c18.8-10,57.6-22.6,50.7-50.1c-7-27.5-36-43.5-54.1-62.6c-32-33.6-49.2-97-13.8-134.5
		c20.5-21.7,44.8-14.6,70.9-16.1c20.4-1.1,60.6-10.3,64.9-33.6 M2542.3,1018.4c-16.5-19.8-9.4-53.3-32.7-69.1
		c-8.7-5.9-25.2-11.7-35-4c-8.3,6.6-6.3,21.3-5.4,31.2"/>
	<path class="st2" d="M564.7-36.1c-11.5,16.2-25.1,31.5-26.3,52.4c-1.2,21.8,10.5,39.5,15.5,60.2c4.6,18.8-8,34.8-14.3,51.9
		c-13.8,37.9-16.5,80.3-22.6,120.1c-2.8,17.6-3.3,35.8-6,53.3c-0.7,4.4-2.3,20.4-9.8,15.7c-4.2-2.4-5.9-17.8-7-23.3
		c-3.3-19-5.4-37.8-9.5-56.4c-4.6-20.2-6.8-44-16.3-62.6c-8.8-17.3-24-25.7-40.1-35.5c-16.1-9.8-29.5-19.7-38.7-36.4
		c-8.6-15.3-12.7-34.4-5.2-50.7c8-17.8,17.8-34.8,15.8-55.1c-1.7-18.8-6.3-40.5-13.4-57.9 M1851,1007.3
		c15.7-16.3,29.7-40.5,17.8-62.7c-4.2-7.8-20.8-19.3-10.9-28.5c8.2-7.5,25.1-7.4,35.4-8.3c22.8-2.4,45.3-11.3,59.6-30.3
		c7.9-10.5,12.7-18.6,14.1-32c1.1-12.1-2.1-24-4.7-35.5c-2.5-11.5-5.6-22.6-7.5-33.9c-2.3-13.8-1.2-28.9-4.8-42.3
		c-2.5-9.1-9.8-23-20.5-15.5c-8.7,6.2-11.7,20.1-13.9,29.6c-2.9,12.7-4.6,25.6-14.5,35.4c-8.7,8.6-21.7,15-31.9,22
		c-9.1,6.2-18.6,15.1-28.7,19c-18,7-15.5-9.2-22.8-20.5c-12.6-19.6-51.3-7.6-61-28.5c-3.9-8.3,2.3-20.9,5.9-28.5
		c6.6-13.8,17.6-28,21.8-42.6c7.4-25.7-34.2-28.3-50.1-31.5c-11.7-2.3-20.8-3.5-30.7-9.4c-9.2-5.6-19-13.4-29.2-16.3
		c-26.9-8-57.1-4.8-84.1-12.7c-9.2-2.5-20.4-8.7-26-16.9c-3.6-5.2-3.9-8.6-0.1-15.5c2.3-4.3,8-9.8,11.8-12.9
		c19.7-16.2,47.4-24.9,70.1-35.4c20.1-9.1,38.9-24.4,54.7-39.5c8.6-8,15.1-16.1,17.3-27.9c2.1-12.3-3.1-27.7-7.6-39
		c-4.6-11-10.9-21-22.1-25.1c-11.8-4.2-25.2-0.5-37.9-1.3c-27.3-1.7-38.9-24.5-53.1-44.6c-26.9-37.9-94.5-16.5-131.5-9.8
		c-24.4,4.4-49.2,10.6-73.7,12.9c-26.8,2.4-50.7-10.6-75.3-19.8c-8.3-3.1-23.9-6.3-27.9-15.1c-5.1-11.1,10-16.1,17.6-19.6
		c17.8-8.3,52.4-18.5,62.3-37.8c11.7-23-23-41.8-37.3-52.9c-16.5-13.3-40.9-28.5-49.3-48.2c4.7,2.7,20.5-3.9,26.1-4.3
		c7.5-0.7,15.1,0,22.6,0.1c18.1,0,36.2,1.1,54.4,3.1c34.2,4.6,67.3,19.8,102.1,18.4c12.9-0.5,28-5.8,39.9-11.1
		c15.8-7.4,36.2-14.6,50-25.5c23.3-18.2-41.4-53.3-56.1-59.9c-20-9.1-41.4-16.7-60.6-27.5c-16.2-9.1-31.4-21-46.9-31.5
		c1.7-1.7,3.6-3.3,5.8-4.8c4.4-2.1,10.5-2.8,15-4l39.3-10.5c16.3-4.3,32.3-3.9,49.2-3.1c36.4,1.6,81.5,2.4,109.2-25.7 M2469.8-28.7
		c-13.4,6.4-64.1,22-49.8,44.1c12.2,18.8,43,26.3,63.4,31.9c23,6.3,49.3,7,70.9,17.8c10.6,5.2,18.6,13.4,17.4,26
		c-1.2,11.8-10.6,21.6-17.4,31c-13,17.8-20.5,42.7-40.6,53.5c-21.7,11.7-51.9,11.1-76,12.9c-20,1.3-40.2,0.7-60.4,1.1l-101,1.2
		c-17.8,0.1-36.4-0.4-42.3,20.2c-4,13.8-4.2,29.5-9.2,42.9c-4.2,11-13.8,21.6-20.4,31.5c-5.1,7.9-15,19.2-12.2,29.2
		c2.8,10,17.4,12.6,26.3,14.1c27.9,5.2,52.9,13.5,80.1,21.4c21.3,6.3,45.7,6.8,66.1,15.1c10,4,24.3,12.3,19,24.5
		c-5.2,12.6-19.8,16.2-31,21.6c-10.9,5.2-19.6,9.8-25.7,20.9c-6.4,11.4-7.5,25.6-13.5,37.3c-5.4,10.6-16.1,19-21,30
		c-4.7,9.9-2.4,22.6-1.7,33.2c0.7,12.9,1.7,23.6-3.5,35.5c-4.6,10.3-12.1,15.3-20.4,22.6c-21,18.4-41.1,35.8-64.3,50.9
		c-19.7,12.9-33.2,30-42.5,51.7c-8.6,20.1-17.8,49.8-4.8,69.7c14.1,21.6,50.4,1.2,69.3-1.7c11.5-1.7,23.7-1.2,35.4-1.6
		c11.4-0.4,21.3-2.9,32.3-5.4c10.5-2.4,24-7.6,35-4.6c9.1,2.7,24.4,12.9,27.2,22.5c5.1,17-33.6,28.8-45.4,33.5l-91.3,36.6
		c-18.5,7.5-36.2,18.4-47.6,35.2c-14.6,22.1-10.6,48.9-1.7,72.6c4.2,11.4,12.6,20.5,18.1,31.4c1.6,3.1,4.8,7.5,3.1,10.9
		c-2.1,3.6-9.8,5.4-13.5,6.6 M3261.6,670.4c-20.5,12.7-41.3,29.5-66.9,25.3c-13.9-2.3-26.9-9.4-40.7-12.2c-9.8-1.7-19.8-1.7-29.6,0
		c-20.8,3.3-42.5,13.3-60.4,23.7c-40.7,23.9-91.8,46.4-118.3,87.6c-8,12.3-14.5,26.1-21.6,39c-5.8,10.5-10.9,24-18.2,33.2
		c-6,7.4-17.8,9.8-26.7,12.2c-12.7,3.5-26,9.1-34.7-3.6c-7.1-10.3-10.6-24.4-15.1-36c-3.5-8.7-9.1-17.4-1.7-25.5
		c9.1-9.9,22.6-16.5,33-25.2c8.8-7.6,17-16.2,25.5-24.4c38.5-36.7,76.5-75,110.8-115.6c4.8-5.8,12.7-15.3,13.4-22.6
		c1.2-11.8-14.1-13.4-22.2-14.6c-13.8-2.1-28.4-3.1-41.8-6.6c-13.4-3.5-23.2-6.6-21.6-21.7c2.4-23.3,11.5-46.5,32-58.6
		c10.9-6.3,19.2-8.3,32-8.2c12.3,0.1,27.9,6.3,39.9,2.7c16.6-5.2,0.7-17-7.6-21.3c-11.5-5.9-24.8-8.2-37.7-6.4
		c-21.3,2.3-45.8,8.2-63.4,20.5c-13,9.2-46.4,43-64.9,26.5c-3.5-3.1-5.9-12.2-8-16.3c-3.3-7-6.4-13.9-10-20.8
		c-5.8-10.5-14.3-20-19-30.8c-5.9-13.5,0.4-18.5,11.7-26.3c10.9-7.5,23.6-13.3,35.2-19.7c9.6-5.4,17.3-13,25.5-20.2
		c7.1-6,21.8-15,26.1-23.7c5.1-10.3-8.2-16.3-15.5-20.9c-14.3-8.8-28.7-17.6-43-26.3c-10.3-6.3-15-9.5-22-19.2
		c-6.4-8.8-12.1-18.2-20.2-25.5c-15.8-14.1-53.5-35.2-28-58.2c20.2-18.2,45.2-11,68.6-18.5c11-3.5,19.8-14.5,31-17.4
		c12.3-3.3,27.9,0.7,40.7-0.5c20.5-1.9,39.7-12.9,60.4-15.5c15.1-1.7,32.3-6.3,47.4-5.6c11.8,0.5,21.4,8,30.8,14.6
		c18.5,12.9,31.9,37,52.8,45.3c12.2,4.8,24.5,6.3,36.2-0.7c11.7-7,12.6-19.8,5.1-30.7c-15.3-22.1-42.2-17.8-61.5-32.7
		c-8.8-7-15.1-18.5-23.7-26.5c-8.6-8-20.2-15.5-20.4-27.9c0-11.3,6.3-21.4,11.7-30.8c6.6-11.8,12.3-24.8,20.1-35.9
		c12.6-18.2,33.5-37.7,54.7-44.4c11-3.5,22.6-1.3,34-0.8c16.1,0.9,32.4,1.2,48.4,2.8"/>
	<path class="st2" d="M2335.1-62.4c-19,7.4-49.8,12.6-55.6,35.2c-5.4,21.4,6.2,45.3,22.2,59.8c16.9,14.9,41.4,18.6,61.4,27.7
		c9.4,4.4,61.4,28.9,38.5,42.2c-17.3,9.9-44.8,7-63.8,7.4c-24,0.5-48.9,3.3-72.6,0c-22-2.9-42.5-13-64.3-15.1
		c-26.7-2.5-42.9,5.2-58.7,27.3c-14.6,20.5-21.3,43.5-28.7,67.4c-4.2,13.4-6.8,14.6-18.6,23c-10.5,7.4-19.6,13.5-26.3,24.5
		c-11.1,18-12.6,45.4-11.8,66.1c0.7,22.1,17.3,44.8,31.8,60.8c8,8.8,18.1,16.2,27.1,24.5c9.9,9.4,7.6,14.6,5.1,27.9
		c-2.3,11.5-4,21-0.4,32.6c4,12.6,14.9,19.3,21.6,30.1c9.8,15.5-10.3,42.7-19.3,55.7c-3.3,4.8-15.1,27.5-23.3,25.6
		c-10-2.3-11.1-26.3-12.3-33c-2.1-11.3-4.3-22.1-10.9-32c-5.8-8.8-16.1-16.2-23.4-23.4c-7.4-7.2-15.7-14.5-23-22.1
		c-7.8-8.2-14.1-18.8-23-25.7c-19-15.1-44.2-24.8-66.3-34.2c-9.4-4-19.3-6.8-29.2-10c-12.1-3.9-22.5-5.4-19.8-20.2
		c3.1-17.6,29.7-43,15.7-60.8c-14.7-18.8-44.2,0-62.8,0.4c-12.9,0.4-19.7-2.3-25.7-13.5c-5.6-10.5-8-22.6-13.3-33.1
		c-4.2-8.3-16.7-21-16.9-30.3c0-11.5,18-13.3,25.7-15c22.1-5.2,44.5-11.1,52.7-35.2c4-11.5,1.1-24.8,6.3-35.9
		c5.2-10.9,18.1-17.3,27.7-24.5c18.4-13.9,29.2-34.2,38.5-54.8c8.3-18.8,11.5-39.1,21.6-57.4c12.2-22.1,22.8-45.3,31.8-69"/>
	<path class="st2" d="M2211.3-59c-3.6,33.6,28.8,60.8,27.7,94.5c-1.3,6.2-25.7-18-26.5-18.5c-8.3-6.6-18.5-11.8-29.2-12.6
		c-18-1.1-32.7,8-45.7,19.3c-40.9,35.8-80.7,73.8-123.3,107.6c-6,4.8-13.4,10-20.8,12.7c-10.9,3.9-16.2,1.2-17-10.9
		c-1.6-22.5,12.2-47.8,19.7-68.1c15.3-42.2,37.8-81.9,49.4-125.3 M41.9,396c2.7-22.5,0-40.9-2.9-63.4c-1.2-8.6-1.7-15.5-5.2-23.2
		c-4.8-10.6-13.4-9.2-22.6-3.1c-37.3,24.9,9.1,73.7,30.8,89.8 M860,833.5c13.9-9.5,27.7-21,42.7-28.9c18.5-9.5,39.9-14.1,57.9-24.4
		c13.5-7.8,29.2-21,33.2-36.7c5.1-19.6-14.1-34.8-27.7-45.3c-26.8-20.8-69.1-25.7-99.8-11.3c-33,15.5-65,36.4-71.6,74.4
		c-3.9,21.3-2.4,40.7,11.4,57.9c5.6,7,14.6,13.9,23.2,16.9c11.4,4,20.1,1.3,30.8-2.4 M1910.6,871.6c13.4-9.5,23.6-17.4,20.4-35
		c-3.1-16.7-15.7-19.6-30.7-12.7c-11.7,5.4-23.9,17.4-24,30.8C1876.5,873.5,1896.8,873.5,1910.6,871.6 M2476.9,613.6l50.1-6.8
		c14.1-1.9,32.7-1.3,45.3-9.8c13.9-9.4,14.3-28.7,17.8-43.7c3.1-13.3,4.2-28.3,0.9-41.4c-4-16.3-12.2-28.9-23.7-40.7
		c-6-6-10.6-11.7-20.4-10c-4.8,0.7-10.6,5.2-14.6,8.3c-26.8,20.5-54,44.9-74.8,71.6c-9.8,12.6-20,31.2-18.8,47.2
		c1.2,24,17.6,23.7,38.2,25.5"/>
	<path class="st2" d="M-176.3,630.8l13.3,91.1c2.9,20.1,13.1,38.5,20.8,57.1c3.9,9.1,8.6,18.5,9.4,28.5c1.1,13.4-5.8,19-17,24
		c-8.6,3.9-19.7,9.4-28.9,10.3 M-172.6,516.5c4.8,7.9,9.6,16.7,9.4,26 M-149.3,160.3c31.4,7.4,36,47.2,30.6,64.6
		c-7.1,22-23.9,41.1-32.6,62.6c-8.6,21-16.3,44.6-8.7,66.7c3.6,10.5,11.5,24.5,9.6,36.2c-1.6,9.4-9.1,15.1-17,19.6 M816.4-1.9
		C800.9,16.5,782,34.6,769,55.1c-7.4,11.8-10.5,21-7.6,35c1.7,9.2,6.3,18.6,9.4,27.7c7.9,22.8,19.8,46.6,18.4,71.4
		c-1.3,23.9-18.6,38.7-29.2,58.6c-11.8,22.2-6.8,48.4-6.4,72.6c0.4,22-5.1,44.2-8.3,65.8c-3.3,22.2-4.7,39.5-22,55.7
		c-8.7,8.2-20.2,15.3-23.2,27.3c-2.9,12.1,1.3,23,6.6,34c10,21.8,26.5,40.7,38.3,61.6c4.4,7.6,8.8,17.6,6.4,26.7
		c-2.8,11.4-13.5,13.1-23.4,14.9c-26.7,4.4-46.5,7.1-65.3,28c-13.5,15-12.6,38.3-10.3,57.4c2.7,22,8.3,43.4,8,65.7
		c-0.4,26.1-2.5,51.6,3.1,77.3c3.5,15.7,23,44.2,14.1,59.4c-6.6,11.4-24.4,1.7-33.6-1.1c-11.3-3.5-22-6.6-33.9-7
		c-19.2-0.5-44.9,22.5-58.2,2.9c-10.6-15.7-14.6-48.2-34.8-54.8c-21.7-7.1-40.6,28.3-53.1,40.1c-5.9,5.6-12.1,10.3-20.5,9.4
		c-13.4-1.6-27.5-7-40.7-10.3c-9.1-1.9-17.6-5.6-25.2-11c-8.7-5.6-17-12.7-26.9-16.1c-13.9-4.7-28.7-7.6-43-11.5
		c-11.1-2.9-15.7-6.8-11.7-19c3.9-11.5,12.3-21.6,18-32.2c4.6-8.8,7.6-18.5,9.6-28.3c4.2-20.9,3.6-46.6-2.9-67
		c-7.6-23.7-20.2-37.4-9.4-62.7c8.3-19.7,22.2-36.4,28.5-57.4c6.6-22.1,8-47.2-10.9-63.4c-18.2-15.8-44.2-23-64.6-35.6
		c-15.7-9.5-35.6-26.5-34.3-46.6c1.2-17.3,27.7-44.6,17.3-62c-11.1-18.8-45.3-20.4-50.1-43.4c-2.1-10.3,6.3-22,10.6-30.4
		c6.4-12.3,11-17.4,8.3-30.8c-3.9-20-21.6-36.6-32-54c-12.6-20.9-21.6-43.7-38.9-61.1c-16.2-16.2-37-27.3-51.9-44.6
		C78.9,79.8,66.3,58.4,56.7,38.8c-8.3-17-19.2-47.2,1.1-60.4 M965.2,1021.8c10.5-17.3-6.6-45.3,9.1-60c16.6-15.5,52.8,9.4,67.8,16.3
		c39.4,18,84,30.7,127.2,34.8c23,2.3,44.1-2.8,43.5-29.6c-0.4-24.8-7.4-48.6-16.3-71.3c-3.5-8.3-10.9-19.8-2.4-26.8
		c8.8-7.5,23.9,0.4,32.6,4.6c21.3,10.3,36.2,31.4,55.6,44.6c7.9,5.4,17.4,11.7,27.2,10.5c11.8-1.3,18.4-10,26.8-18
		c7.6-7.1,16.2-18.8,28.3-17.8c10.9,1.1,20.1,16.6,27.9,22.6c21,16.3,35.9-4.7,54.1-14.1c10-5.2,19.6-5.6,28.8,1.1
		c11.4,8.2,17.4,15.3,30.3,20.8c11.7,4.8,22.6,5.1,35.4,3.5c6.6-0.8,25.7-5.1,24-15c-1.1-6-14.3-13.4-19.8-16.3l-41.1-22
		c-20.5-11.1-37.8-25.2-56.4-39.4c-16.7-12.7-29.6-29.7-46.1-42.2c-19.2-14.5-43.5-19.2-58.7-38.5c-7-8.7-11.8-19.7-17.6-29.5
		c-6-10.3-9.2-13.4-19.2-20c-18.8-12.3-40.1-22.8-46.6-45.8c-5.6-18.8-6.4-49.6,7.5-65.1c15.7-17.6,39.9-26,58.6-39.7
		c3.3-2.4,8-5.4,7.5-9.8c-0.5-5.1-7.5-5.1-12.9-4.7c-9.2,0.4-18.6,4-26.9,7.9l-41.7,19.2c-7.4,3.3-17.4,7.5-25.5,7
		c-11.8-0.8-20.4-8.3-27.9-16.3c-7.8-8.6-14.6-21-28-19.2c-7.4,1.1-16.5,9.2-22.2,14.3c-11.3,10.3-21.7,21.8-32.4,32.7
		c-15,15-33.5,19-53.1,9.4c-11.1-5.4-20-10-29.6-17.8c-7.6-5.9-20-13.8-19.8-24.5c0.1-13,15.7-21,22.2-30.3
		c6.2-8.2,9.6-17.8,10.5-27.9c1.9-22.8,0.5-48.4-2.8-71c-1.6-11.3-5.6-16.9-16.1-20.8c-10.6-3.9-22.1-6.4-30.1-15.1
		c-8-8.7-9.9-22.5-13-33.6c-2.9-11-5.2-22.1-6.8-33.5c-2.9-20.4-4.8-41.9,14.6-54.1c19-12.1,47.4-20.5,61.6-39.1
		c16.1-20.8-9.1-43.7-22.1-59.2c-13-15.5-32.7-25.5-47-40.5c-15.5-16.3-26.1-37.1-27.7-59.8c-1.6-23.7,7.5-46.1,28.9-57.6
		c19.2-10.3,44-1.3,64.6-4.2c10.6-1.3,21.6-6,31.9-8.8c10.3-2.8,28-4.2,37-10.5c7.4-5.1,5.2-15.7,3.6-23.2 M2594,1027
		c-7.6-8.6-18.6-12.6-27.2-19.8c-7.4-6.4-12.7-14.6-16.1-23.7c-7.8-20-8.6-46.5-28.7-59.1c-18.1-11.1-47-15.7-67.9-12.1
		c-9.5,1.7-21.4,5.6-22.2,16.2c-0.8,11.4,9.9,23.2,14.1,33.1 M3240.7,1037.9c-23.3-11.8-26.3-30-28.9-53.6
		c-2.4-22.2-1.3-44.9-24.4-56.1c-9.8-4.7-20.4-7.5-31-8.2c-7.4-0.1-9.8,0-13,5.6c-3.2,5.6-0.5,20.2-0.7,26.3"/>
	<path class="st2" d="M2834,1017.2c14.9-13,28.9-25.2,45.3-36.2c15.7-10.6,31.9-15.3,49.8-21.6c17.3-6,37.3-10.6,52.8-20.8
		c16.9-11,12.6-25.6,7.9-42.2c-5.1-18-12.7-37.8-11-56.8c1.6-17.6,11-34.8,23.7-46.5c14.1-12.9,30-20.9,47.7-27.3
		c19-6.8,38.2-14.5,58-18.2c16.6-3.3,33.6-1.6,49.2,5.1c18,7.5,33.2,15.5,52.9,11.1 M3073.9-3.7c-19.8,29.2-37.3,60.3-64.1,83.7
		c-21.6,19-47.6,36.2-74.9,45.7c-17.4,5.9-30,6.2-48.8,6.2c-15.3,0-30.1,0.4-44.8,5.6c-16.2,5.6-31.9,15.5-47.4,23
		c-12.7,6.3-24.9,13.3-36.7,21c-12.3,7.9-25.7,16.2-33.6,29.1c-7.4,12.1-9.9,31.8-9.4,45.4c1.1,30.8,22,55.1,44,74.2
		c12.2,10.6,23.9,22,36.7,31.5c9.1,6.6,33.2,20.2,25.7,33.5c-6.8,12.2-28,13.8-39.7,16.7c-16.1,4-31,7.1-45.8,14.1
		c-35.6,17-13.3,54.7,5.6,75.8c10,11.4,18.1,21.3,18.5,37.1c0.4,15.8-4.3,28.4,9.2,39.9c12.2,10.3,23.7,17.6,33.5,30.1
		c9.8,12.6,19.6,29.2,31.9,39.5c13.9,11.5,31.5,13.4,47.4,20.8c15.5,7.1,11.4,20.1,2.1,31.8c-19,23.9-44.4,48.2-72.1,61.6
		c-25.5,12.2-57.9,13.9-84.8,7c-15.5-4.2-28.4-7.8-44.6-4.8c-14.1,2.7-36.6,5.6-46.6,16.2c-10.6,11.4-11.7,30-6.3,44.2
		c4.7,12.7,12.9,29.2,23,38.9c12.9,12.2,28.4,6.6,44,3.5c15.5-3.1,28.4-4.2,42.7,3.1c30.8,15.7,36.7,43.7,35.9,76.1 M2235.6,1040.3
		c28.3-13.8,62.2-16.2,90.2-30.3c14.9-7.4,8.7-16.2-3.5-20.8c-19.3-7.4-39.4-12.9-58.8-19.2c-24-7.8-61-22.6-56.9-53.9
		c3.6-29.2,42.9-44.9,65.5-56.1c27.5-13.5,55.9-25.1,85.2-34.4c19.2-6,39-11.1,57.9-18.2c11-4.2,25.6-11.7,30-23.4
		s-0.5-30.4-12.2-36.7c-13.5-7.1-31-7-44.9-13.8c-14.3-7-26-20.8-41.8-24.5c-16.7-4-31.9,3.3-47.4,8.6c-12.9,4.4-24.9,7.1-38.5,5.1
		c-18.1-2.8-31.4-4-49.4-1.9c-6.4,0.7-14.6,2.8-18.6-4.2c-3.5-5.9,0.9-14.3,4-19.2c9.2-14.6,27.9-22.6,41.4-32.6
		c12.2-9.1,21.6-21.7,32-32.7c11-11.3,23.2-21.4,34.8-31.9c23-20.8,25.7-57.1,35-84.7c4.8-14.6,10.6-28.7,17.6-42.5
		c7.4-14.5,18.4-20.4,31.9-27.9s24.5-15,33.8-27.5c8.3-11.3,19.8-26.1,20.9-40.1c2.1-25.5-51.1-39-69.5-44.1
		c-31.9-8.7-67.3-9.9-94.2-31c-23.2-18.2-14.3-60.8,12.1-71c25.6-9.9,58.2-8.8,85-9.2c33.6-0.5,67.8,0.7,101.2-1.3
		c28.9-1.7,61-5.2,79.7-30c9.9-13,16.7-28.4,26.8-41.1c9.9-12.3,24.4-21.6,32.7-35c8.3-13.4,12.6-32.2,7-47.7
		c-5.9-16.5-21.3-21.6-35.9-27.9c-14.3-6.3-28.9-8.3-44.2-11.3c-13.3-2.5-30.1-3.6-41.7-11.7c-15.7-10.9,2.7-22.8,11.5-30.3
		 M1557.7-20.8c-11.8,10-33.6,7.4-47.6,7.5c-29.2,0.5-57.9,5.8-87.1,7.5c-32.7,1.7-66.1,4.8-98.2-1.6c-14.1-2.8-33.2-10.5-47.6-5.9
		c-19.2,6.2-3.1,26.8,4.8,35.5c18.5,20.1,43.1,41.8,67.3,54.1c31.5,16.2,62.7,30.1,93.3,48.4c8.7,5.2,31.4,19.7,15.3,28
		c-9.5,4.8-23.4,3.6-34.4,2.7c-36.4-3.1-73.2-5.6-109.6-9.8c-32.2-3.6-64.5-9.2-96.5-13.8c-8.6-1.2-81.9-19.3-84.4-0.8
		c-0.7,4.4,7.1,15,9.9,18.6c5.1,6.3,10.9,12.1,16.9,17.3c13.5,11.7,29.5,21.3,44,31.9c23.7,17,52.7,28.5,74.2,48.1
		c10.5,9.4,25.3,23.9,11.4,36.2c-10.9,9.4-27.7,11.4-41.4,13.5c-12.2,2.1-38.3,1.7-47.4,13.1c-7.5,9.4,3.3,28.9,0.9,40.5
		c-1.9,8.8-21,36-13.4,44.9c8,9.2,41.1-1.6,49.8-3.1c28.8-4.7,62.7-3.9,85.4,16.1c14.3,12.6,22.2,19.6,41.8,17
		c16.6-2.1,33-9.1,48.8-13.9c27.3-8.2,55.9-12.2,84.6-11.7c15.5,0.4,32.7,1.2,47,7.9c12.6,5.9,21.3,15.7,30.8,25.5
		c14.6,14.9,29.6,29.1,44,44.2c9.9,10.5,6.2,19.8-2.9,30.6c-20.9,24.5-57.1,31.9-84.1,48.2c-29.1,17.8-55.9,40.2-83.5,60.4
		c-8,5.9-21.3,13.5-25.5,22.8c-7.8,17,8,24.5,20.9,28.4c15.7,4.7,29.6,7.9,43.1,17c7.6,5.2,16.6,13.9,25.3,17.3
		c5.4,2.1,13.5,1.3,19.6,0.5c15.3-2.4,29.6-11.1,44.9-13.3c15.5-2.1,31.2-0.4,45.8,5.2c15,5.6,29.5,14.1,43.4,22
		c11.7,6.6,23.2,15,23,29.7c-0.5,26.5-46.1,53.5-18.8,77.6c22.8,20.1,61.4,31.2,61.1,67.3c-0.1,17.4,0.9,34.8,2.9,52.1
		c1.7,13.5,3.1,29.2-2.8,42.2c-6.8,15-19.6,25.6-30.8,37 M326.8-66.9c16.6,18.4,35.8,51.9,26,77c-11.5,29.7-57.5,33.8-83.7,39.9
		c-13,2.9-27.2,10-12.7,23c10.3,9.2,24.3,15.1,31.4,27.3c8.6,14.5,10.6,31,20.9,44.8c7.9,10.6,20.5,16.9,32.6,22.5
		c17.8,8.3,36.6,14.9,54.7,22.2c11.7,4.8,24.3,13.5,24.5,27.7c0.4,18.4-19.2,26.8-24.5,42.3c-5.1,14.6,13.1,27.5,21.8,37
		c10.6,11.7,14.6,23.2,11.8,38.9c-2.9,16.7-15.3,29.1-20,44.9c-4.2,13.8,4.2,26.3,9.1,38.7c6.2,15.1,13.9,30.7,18.8,46.4
		c5.1,16.9,7.1,35.5,10.6,52.9c3.1,15.5,9.9,24.4,19,37.9c8.3,12.6,12.1,28.8,20.5,40.5c12.7,17.3,21,0.5,23.6-12.6
		c2.8-15,5.8-29.6,6.8-44.8c1.2-15.7,0.1-33.6,5.1-48.6c5.6-16.9,14.3-29.5,24.3-44c9.4-13.5,9.4-25.7,9.9-41.9
		c0.1-6.6-0.4-13.4,1.6-19.6c2.9-9.2,9.6-17.3,12.6-26.5c4.6-14.1-1.2-29.5-5.1-43.1c-8.3-30.3-8.7-60.4-5.4-91.7
		c2.8-26.3,4.2-65.1,30.1-79.7c14.5-8.2,31.2-6.3,46.2-12.3c15.8-6.4,5.1-21.7-1.9-31.2c-15.8-21.3-55.1-52.1-42.6-83.2
		c5.1-12.7,20.1-23,29.7-31.5c11.8-10.5,23.6-22.8,36.6-31.5"/>
</g>
</svg>
