<?xml version="1.0" encoding="utf-8"?>
<!-- Generator: Adobe Illustrator 18.1.0, SVG Export Plug-In . SVG Version: 6.00 Build 0)  -->
<svg version="1.1" id="Layer_1" xmlns="http://www.w3.org/2000/svg" xmlns:xlink="http://www.w3.org/1999/xlink" x="0px" y="0px"
	 viewBox="0 0 1366 768" enable-background="new 0 0 1366 768" xml:space="preserve">
<path fill="#FFFFFF" d="M440.9,68.3c-12.2-16.2-26-23.6-46.1-23.6c-19.7,0-35.4,11.8-35.4,29.5c0,24.8,24,31.1,55.9,45.3
	c39,17.3,70.1,38.6,70.1,82.3c0,51.2-36.3,83.1-89,83.1c-57.1,0-87-37.4-95.3-65.3l38.2-22.1c7.1,23.3,26.4,44.1,57.1,44.1
	c22.9,0,42.5-12.6,42.5-38.6c0-23.2-23.2-34.7-52.4-46.9c-43.7-18.1-74.8-38.6-74.8-79.6c0-46.1,35.8-75.2,83.1-75.2
	c37,0,63.8,17.3,78,38.2L440.9,68.3z M566.1,281V-0.6L520.8,64v217H566.1z M729.6,180.2L605.5-0.6V281h45.3V144.7l78.8,113.4
	l78.7-113.4V281h45.3V-0.6L729.6,180.2z M1052.9,39.6c-14.1-20.9-41-38.2-78-38.2c-47.2,0-83.1,29.1-83.1,75.2
	c0,40.9,31.1,61.4,74.9,79.6c29.1,12.2,52.4,23.6,52.4,46.9c0,26-19.7,38.6-42.5,38.6c-30.7,0-50-20.9-57.1-44.1l-38.2,22.1
	c8.3,27.9,38.2,65.3,95.3,65.3c52.8,0,89-31.9,89-83.1c0-43.7-31.1-65-70.1-82.3c-31.9-14.2-55.9-20.5-55.9-45.3
	c0-17.7,15.8-29.5,35.4-29.5c20.1,0,33.9,7.5,46.1,23.6L1052.9,39.6z"/>
<path fill="#FFFFFF" d="M302.5,333.3v95.9c0,55,21.6,80.6,67.9,80.6c46.3,0,67.9-25.7,67.9-80.9v-95.7h-24.9v108.1
	c0,28-16.1,44.8-43,44.8c-26.9,0-43-16.8-43-45V333.3H302.5z"/>
<path fill="#FFFFFF" d="M539.5,427.9l3.4-0.6c26.6-4.6,41.2-21,41.2-46.3c0-29.9-21.4-47.8-57.2-47.8h-53.9v174h24.9v-78h14.1
	l53.5,78h30.2L539.5,427.9z M498.1,407.4v-50.5h29c20,0,31.5,9.2,31.5,25.4c0,16.2-11.2,25.1-31.5,25.1H498.1z"/>
<path fill="#FFFFFF" d="M701,419.9l-11.1-1.9l11-2.4c13.2-2.9,27.3-14.2,27.3-37.1c0-28.3-21.3-45.2-56.9-45.2h-54.9v174h61.5
	c36.8,0,57.9-17.5,57.9-48C735.8,429.1,711.4,421.7,701,419.9 M641.3,356.9h30c20,0,31.5,9.3,31.5,25.4c0,16.2-11.2,25.1-31.5,25.1
	h-30V356.9z M676.6,483.6h-35.3v-53.1h35.3c21.5,0,33.3,9.3,33.3,26.2C709.9,473.8,697.8,483.6,676.6,483.6"/>
<path fill="#FFFFFF" d="M825.9,332.6l-78.2,174.6h25.1l16.3-32.9h73.5l16.3,32.9h25L825.9,332.6z M801.2,450.3l24.7-60.2l24.7,60.2
	H801.2z"/>
<polygon fill="#FFFFFF" points="951.1,394.3 1063.7,507.9 1063.7,333.3 1038.8,333.3 1038.8,446.2 926.2,332.6 926.2,507.2 
	951.1,507.2 "/>
<path fill="#FFFFFF" d="M404,553.4c-58.7,0-99.8,43.8-99.8,106.5s41,106.5,99.8,106.5c58.7,0,99.8-43.8,99.8-106.5
	S462.7,553.4,404,553.4 M404,740.6c-41.6,0-71.8-33.9-71.8-80.7c0-46.7,30.2-80.7,71.8-80.7c41.6,0,71.8,33.9,71.8,80.7
	C475.8,706.7,445.6,740.6,404,740.6 M596.7,557.6l-92.1,205.8h27.3l19.7-39.6h90.2l19.6,39.6h27.4L596.7,557.6z M565,697.4
	l31.7-77.3l31.7,77.3H565z M698.1,721.3c6.6,18,27.4,45.1,69.5,45.1c39.7,0,65.4-23.9,65.4-60.8c0-31-20.9-46.6-52.2-60.5
	c-3.4-1.5-6.7-2.9-9.8-4.2c-20.2-8.6-36.2-15.4-36.2-34.7c0-15.6,13.3-27,31.6-27c15.1,0,26.5,5.2,36.4,16.6l19.1-17.2
	c-12.3-16.1-32.3-25.3-55.5-25.3c-35.8,0-60.8,22.5-60.8,54.7c0,29.2,22.3,44.4,55.8,58.3c23.7,9.9,43.2,19.7,43.2,40.2
	c0,20.4-14.9,34-37.1,34c-24.9,0-40.1-16-46.6-32.5L698.1,721.3z M868.5,763.4h27.4V560.5l-27.4,39.1V763.4z M926.1,721.3
	c6.6,18,27.4,45.1,69.4,45.1c39.7,0,65.4-23.9,65.4-60.8c0-30.9-20.9-46.6-52.3-60.5c-3.4-1.5-6.7-2.9-9.8-4.2
	c-20.2-8.6-36.1-15.4-36.1-34.7c0-15.6,13.3-27,31.6-27c15.1,0,26.5,5.2,36.3,16.6l19.1-17.2c-12.3-16.1-32.3-25.3-55.5-25.3
	c-35.8,0-60.8,22.5-60.8,54.7c0,29.2,22.3,44.4,55.9,58.3c23.7,9.9,43.3,19.7,43.3,40.2c0,20.4-14.9,34-37.1,34
	c-24.9,0-40-16-46.6-32.5L926.1,721.3z"/>
</svg>
