<?xml version="1.0" encoding="utf-8"?>
<!-- Generator: Adobe Illustrator 18.1.0, SVG Export Plug-In . SVG Version: 6.00 Build 0)  -->
<svg version="1.1" id="Layer_1" xmlns="http://www.w3.org/2000/svg" xmlns:xlink="http://www.w3.org/1999/xlink" x="0px" y="0px"
	 viewBox="0 0 1366 768" enable-background="new 0 0 1366 768" xml:space="preserve">
<path fill="#846E2B" d="M438,67.7c-12.2-16.1-25.9-23.6-45.9-23.6c-19.6,0-35.3,11.8-35.3,29.5c0,24.7,23.9,31,55.8,45.2
	c38.9,17.3,69.9,38.5,69.9,82c0,51.1-36.2,82.9-88.8,82.9c-56.9,0-86.8-37.3-95-65.2l38.1-22c7.1,23.2,26.3,44,56.9,44
	c22.8,0,42.4-12.6,42.4-38.5c0-23.2-23.2-34.6-52.2-46.7c-43.6-18.1-74.6-38.5-74.6-79.3c0-46,35.7-75,82.9-75
	c36.9,0,63.6,17.3,77.7,38.1L438,67.7z"/>
<polygon fill="#846E2B" points="517.7,279.8 517.7,63.4 562.9,-1 562.9,279.8 "/>
<polygon fill="#846E2B" points="849.5,-1 849.5,279.8 804.4,279.8 804.4,143.9 725.8,257 647.3,143.9 647.3,279.8 602.1,279.8 
	602.1,-1 725.8,179.3 "/>
<path fill="#846E2B" d="M1016.4,67.7c-12.2-16.1-25.9-23.6-46-23.6c-19.6,0-35.3,11.8-35.3,29.5c0,24.7,24,31,55.8,45.2
	c38.9,17.3,69.9,38.5,69.9,82c0,51.1-36.1,82.9-88.8,82.9c-56.9,0-86.8-37.3-95-65.2l38.1-22c7.1,23.2,26.3,44,56.9,44
	c22.8,0,42.4-12.6,42.4-38.5c0-23.2-23.2-34.6-52.2-46.7c-43.6-18.1-74.6-38.5-74.6-79.3c0-46,35.8-75,82.9-75
	c36.9,0,63.7,17.3,77.8,38.1L1016.4,67.7z"/>
<path fill="#898B8D" d="M408.3,329.7h29.2v97.6c0,51.3-19.1,82.8-69.9,82.8c-50.8,0-69.9-31.2-69.9-82.6v-97.8H327v109.8
	c0,27.2,15.3,42.7,40.7,42.7c25.4,0,40.7-15.8,40.7-42.4V329.7z"/>
<path fill="none" d="M408.3,329.7h29.2v97.6c0,51.3-19.1,82.8-69.9,82.8c-50.8,0-69.9-31.2-69.9-82.6v-97.8H327v109.8
	c0,27.2,15.3,42.7,40.7,42.7c25.4,0,40.7-15.8,40.7-42.4V329.7z"/>
<path fill="#898B8D" d="M497.2,429.8v77.7H468V329.7h55.9c34.8,0,59.2,16.8,59.2,49.8c0,24.1-13.2,43.2-42.9,48.3l56.7,79.8h-35.6
	l-53.4-77.7H497.2z M497.2,403.7h26.7c14.7,0,29.2-5.1,29.2-22.9c0-18-14.8-23.1-29.2-23.1h-26.7V403.7z"/>
<path fill="none" d="M497.2,429.8v77.7H468V329.7h55.9c34.8,0,59.2,16.8,59.2,49.8c0,24.1-13.2,43.2-42.9,48.3l56.7,79.8h-35.6
	l-53.4-77.7H497.2z M497.2,403.7h26.7c14.7,0,29.2-5.1,29.2-22.9c0-18-14.8-23.1-29.2-23.1h-26.7V403.7z"/>
<path fill="#898B8D" d="M610.7,507.6V329.7h56.9c33.8,0,58.9,15.7,58.9,47.3c0,23.1-14,35.8-28.9,39.1c19.3,3.3,36.6,16,36.6,41.4
	c0,30.5-20.8,50-60,50H610.7z M640,403.7h27.7c14.7,0,29.2-5.1,29.2-22.9c0-18-14.7-23.1-29.2-23.1H640V403.7z M673,431.1h-33v48.5
	h33c16,0,31-6.1,31-24.6C704,436.7,689.3,431.1,673,431.1"/>
<path fill="#898B8D" d="M770.3,507.6h-29.7l81.3-181.6l81.3,181.6h-29.7l-16.3-32.8h-70.6L770.3,507.6z M821.9,394.3l-21.4,52.1
	h42.7L821.9,394.3z"/>
<polygon fill="#898B8D" points="919.7,507.6 919.7,325.9 1032,439.2 1032,329.7 1061.2,329.7 1061.2,511.4 948.9,398.1 948.9,507.6 
	"/>
<polygon fill="none" points="919.7,507.6 919.7,325.9 1032,439.2 1032,329.7 1061.2,329.7 1061.2,511.4 948.9,398.1 948.9,507.6 "/>
<path fill="#898B8D" d="M297.8,657.6c0-61.5,40.1-110.1,103.4-110.1c63.3,0,103.4,48.7,103.4,110.1c0,61.5-40.1,110.1-103.4,110.1
	C337.9,767.8,297.8,719.1,297.8,657.6 M468.8,657.6c0-44.7-28.5-76.5-67.6-76.5c-39.2,0-67.6,31.8-67.6,76.5
	c0,44.7,28.4,76.5,67.6,76.5C440.3,734.1,468.8,702.3,468.8,657.6"/>
<path fill="none" d="M297.8,657.6c0-61.5,40.1-110.1,103.4-110.1c63.3,0,103.4,48.7,103.4,110.1c0,61.5-40.1,110.1-103.4,110.1
	C337.9,767.8,297.8,719.1,297.8,657.6z M468.8,657.6c0-44.7-28.5-76.5-67.6-76.5c-39.2,0-67.6,31.8-67.6,76.5
	c0,44.7,28.4,76.5,67.6,76.5C440.3,734.1,468.8,702.3,468.8,657.6z"/>
<path fill="#898B8D" d="M531.2,764.7h-35.8L593.3,546l97.9,218.8h-35.8l-19.6-39.5h-85.1L531.2,764.7z M593.3,628.3L567.6,691H619
	L593.3,628.3z"/>
<path fill="none" d="M531.2,764.7h-35.8L593.3,546l97.9,218.8h-35.8l-19.6-39.5h-85.1L531.2,764.7z M593.3,628.3L567.6,691H619
	L593.3,628.3z"/>
<path fill="#898B8D" d="M798.3,599.5c-9.5-12.5-20.2-18.3-35.8-18.3c-15.3,0-27.6,9.2-27.6,23c0,19.3,18.7,24.2,43.5,35.2
	c30.3,13.5,54.4,30,54.4,64c0,39.8-28.1,64.5-69.1,64.5c-44.4,0-67.6-29.1-74-50.8l29.7-17.1c5.5,18.1,20.5,34.3,44.4,34.3
	c17.7,0,33-9.8,33-30c0-18-18-26.9-40.7-36.4c-34-14.1-58.1-30-58.1-61.8c0-35.8,27.8-58.4,64.5-58.4c28.7,0,49.6,13.5,60.6,29.7
	L798.3,599.5z"/>
<path fill="none" d="M798.3,599.5c-9.5-12.5-20.2-18.3-35.8-18.3c-15.3,0-27.6,9.2-27.6,23c0,19.3,18.7,24.2,43.5,35.2
	c30.3,13.5,54.4,30,54.4,64c0,39.8-28.1,64.5-69.1,64.5c-44.4,0-67.6-29.1-74-50.8l29.7-17.1c5.5,18.1,20.5,34.3,44.4,34.3
	c17.7,0,33-9.8,33-30c0-18-18-26.9-40.7-36.4c-34-14.1-58.1-30-58.1-61.8c0-35.8,27.8-58.4,64.5-58.4c28.7,0,49.6,13.5,60.6,29.7
	L798.3,599.5z"/>
<polygon fill="#898B8D" points="860.4,764.7 860.4,596.2 895.6,546 895.6,764.7 "/>
<path fill="#898B8D" d="M1025.7,599.5c-9.5-12.5-20.2-18.3-35.8-18.3c-15.3,0-27.6,9.2-27.6,23c0,19.3,18.7,24.2,43.5,35.2
	c30.3,13.5,54.5,30,54.5,64c0,39.8-28.2,64.5-69.2,64.5c-44.3,0-67.6-29.1-74-50.8l29.6-17.1c5.5,18.1,20.5,34.3,44.3,34.3
	c17.8,0,33-9.8,33-30c0-18-18-26.9-40.7-36.4c-33.9-14.1-58.1-30-58.1-61.8c0-35.8,27.9-58.4,64.6-58.4c28.7,0,49.6,13.5,60.6,29.7
	L1025.7,599.5z"/>
<path fill="none" d="M1025.7,599.5c-9.5-12.5-20.2-18.3-35.8-18.3c-15.3,0-27.6,9.2-27.6,23c0,19.3,18.7,24.2,43.5,35.2
	c30.3,13.5,54.5,30,54.5,64c0,39.8-28.2,64.5-69.2,64.5c-44.3,0-67.6-29.1-74-50.8l29.6-17.1c5.5,18.1,20.5,34.3,44.3,34.3
	c17.8,0,33-9.8,33-30c0-18-18-26.9-40.7-36.4c-33.9-14.1-58.1-30-58.1-61.8c0-35.8,27.9-58.4,64.6-58.4c28.7,0,49.6,13.5,60.6,29.7
	L1025.7,599.5z"/>
</svg>
