<?xml version="1.0" encoding="utf-8"?>
<!-- Generator: Adobe Illustrator 18.1.0, SVG Export Plug-In . SVG Version: 6.00 Build 0)  -->
<svg version="1.1" id="Layer_1" xmlns="http://www.w3.org/2000/svg" xmlns:xlink="http://www.w3.org/1999/xlink" x="0px" y="0px"
	 viewBox="0 0 1366 768" enable-background="new 0 0 1366 768" xml:space="preserve">
<g>
	<g>
		<g>
			<g>
				<path fill="#001648" d="M286.8,277.8c-10-1.4-19.5-2.7-29-5c-44.9-10.9-83.5-35.4-110.7-69l-31.8,16.8
					c14.1,18.2,30.9,34,50.4,47.2c25,17.2,52.6,30,82.6,37.2c12.7,3.2,25.4,5,38.6,6.4V277.8z"/>
				<path fill="#001648" d="M286.8,368.6V335c-15.4-1.4-30.4-3.6-44.9-7.3c-33.6-8.2-64.4-22.2-91.7-41.3
					c-22.2-15.4-41.3-33.6-57.2-54l-31.8,16.8c18.6,24.5,40.8,45.8,66.7,64c31.3,21.8,66.3,37.2,103.9,46.7
					C250.5,364.5,268.7,367.2,286.8,368.6"/>
				<path fill="#001648" d="M39.5,261c20,27.2,44.9,51.3,73.5,71.2c34,23.6,71.7,40.4,113,50.8c20.4,5,40.4,8.2,61.3,9.5v33.6
					c-24.1-1.4-47.2-5-70.3-10.9C170.6,404,128.4,384.9,90.8,359c-32.7-22.7-60.4-49.9-83-80.8L39.5,261z"/>
				<path fill="#ED1C29" d="M39.5,442.5c20-27.2,44.9-51.3,73.5-71.2c34-23.6,71.7-40.4,113-50.8c20.4-5,40.4-8.2,61.3-9.5v-33.6
					c-24.1,2.3-47.7,5.4-70.8,11.3c-45.8,11.3-88,30.4-125.7,56.3c-32.7,22.7-60.4,49.9-83,80.8L39.5,442.5z"/>
				<path fill="#ED1C29" d="M286.8,335.4V369c-15.4,1.4-30.4,3.6-44.9,7.3c-33.6,8.2-64.4,22.2-91.7,41.3
					C128,433,108.9,451.2,93,472l-31.8-16.8c18.6-24.5,40.8-46.3,66.7-64c31.3-21.8,66.3-37.2,103.9-46.7
					C250.5,339.5,268.7,336.3,286.8,335.4"/>
				<path fill="#ED1C29" d="M286.8,425.8c-10,1.4-19.5,2.7-29,5c-44.9,10.9-83.5,35.4-110.7,69l-31.8-16.8
					c14.1-18.2,30.9-34,50.4-47.2c25-17.2,52.6-30,82.6-37.2c12.7-3.2,25.4-5.4,38.6-6.4V425.8z"/>
				<path fill="#001648" d="M432.5,428c-48.6,0-72.6-29.5-72.6-76.2c0-44.5,27.7-74.9,74-74.9c19.1,0,32.2,3.2,42.2,8.6l-10.9,21.3
					c-5-2.7-13.2-5.4-26.8-5.4c-25.4,0-39.9,15.4-39.9,51.3c0,34.5,12.7,51.7,32.2,51.7c5.9,0,10-0.9,11.8-2.3v-41.8h-19.1v-20.9
					h54.5v79.9C467,424.8,454.3,428,432.5,428"/>
				<path fill="#001648" d="M548.7,428c-35.4,0-52.6-12.3-52.6-39.9v-77.6h36.3v79.9c0,8.2,5,15,17.2,15c6.4,0,11.3-0.9,15-2.7
					v-92.1h36.3v108.5C589.5,424.4,572.3,428,548.7,428"/>
				<path fill="#001648" d="M670.7,428c-36.3,0-55.4-25.4-55.4-59.9s19.1-59.5,55.4-59.5s55.8,25.4,55.8,59.5S707.1,428,670.7,428
					 M670.7,329.1c-15.9,0-19.5,18.2-19.5,38.6c0,20.9,3.6,37.7,19.5,37.7s19.5-16.8,19.5-37.7C689.8,346.8,686.6,329.1,670.7,329.1
					"/>
				<path fill="#001648" d="M786.9,428c-30,0-51.7-21.3-51.7-59.9c0-39,23.6-59.5,51.3-59.5c15.4,0,25,4.1,30.9,8.2l-7.3,18.2
					c-3.2-2.3-7.7-4.5-15-4.5c-15.9,0-23.1,13.2-23.1,36.8c0,23.1,8.6,36.8,23.1,36.8c6.8,0,11.3-1.8,15-4.5l7.7,20
					C812.3,424.4,802.8,428,786.9,428"/>
				<path fill="#001648" d="M875,428c-36.3,0-55.4-25.4-55.4-59.9s19.1-59.5,54.9-59.5c36.3,0,55.8,25.4,55.8,59.5
					S911.3,428,875,428 M875,329.1c-15.9,0-19.5,18.2-19.5,38.6c0,20.9,3.6,37.7,19.5,37.7c15.9,0,19.5-16.8,19.5-37.7
					C894,346.8,890.8,329.1,875,329.1"/>
			</g>
			<polygon fill="#001648" points="948.9,425.8 948.9,278.7 970.3,278.7 970.3,412.6 1018.8,412.6 1018.8,425.8 			"/>
			<g>
				<path fill="#001648" d="M1075.1,428c-32.7,0-47.7-13.2-47.7-34c0-30.4,31.3-39.5,69.9-43.1v-7.3c0-17.7-11.8-22.7-27.7-22.7
					c-12.3,0-23.1,4.1-30.4,7.3l-5-11.3c7.3-3.6,21.3-8.6,38.6-8.6c23.1,0,43.6,9.1,43.6,37.2v74
					C1106.9,424.8,1092.3,428,1075.1,428 M1097.3,360.4c-31.8,3.6-50.4,10-50.4,33.1c0,16.8,11.3,23.6,30,23.6
					c7.7,0,15.4-1.4,20.9-3.6v-53.1H1097.3z"/>
				<path fill="#001648" d="M1211.2,425.8v-83c0-10.9-5-22.7-26.3-22.7c-11.8,0-17.2,1.4-23.6,4.1v101.2h-20.4V316.4
					c11.3-5,25.9-8.2,45.8-8.2c34.9,0,44.9,17.7,44.9,34v83h-20.4V425.8z"/>
				<path fill="#001648" d="M1324.7,278.3v34c-6.8-1.8-12.7-2.7-20-2.7c-32.2,0-54.5,22.2-54.5,60.4c0,34.9,19.5,58.1,55.4,58.1
					c17.2,0,30.9-3.6,39.5-8.2V278.3H1324.7z M1324.7,412.1c-4.1,2.3-10,3.2-18.2,3.2c-25.4,0-35.9-20-35.9-47.2
					c0-25,9.1-48.1,38.6-48.1c5.4,0,10.4,0.9,15.4,2.3V412.1z"/>
			</g>
		</g>
	</g>
</g>
</svg>
